<svg viewBox="0 0 200 82" xmlns="http://www.w3.org/2000/svg" title="Indigo nails" class="static-header__logo-icon"><path d="m94.715 23.563c.396.236-2.77 58.07-2.77 58.07s-2.415-56.893-2.415-58.07c1.269-2.292 5.185-1.396 5.185 0zm-18.495 30.674c-1.615 1.374-3.501 2.449-5.654 3.21-2.156.761-4.456 1.141-6.904 1.141h-11.848v-30.791h11.259c2.71 0 5.191.388 7.443 1.165 2.253.776 4.186 1.848 5.802 3.211a14.49 14.49 0 0 1 3.771 4.862c.896 1.877 1.346 3.899 1.346 6.07 0 2.256-.465 4.335-1.396 6.223a15.216 15.216 0 0 1 -3.819 4.909zm.319-11.044c0-1.76-.327-3.454-.977-5.081a12.68 12.68 0 0 0 -2.857-4.311c-1.255-1.247-2.809-2.236-4.665-2.97-1.856-.732-3.989-1.099-6.398-1.099h-5.373v26.921h5.373c2.669 0 4.94-.4 6.813-1.208 1.873-.809 3.412-1.855 4.616-3.144 1.204-1.294 2.083-2.734 2.637-4.333.554-1.598.831-3.192.831-4.775zm103.393-5.256c.752 1.862 1.126 3.615 1.126 5.256 0 1.084-.172 2.231-.516 3.429a16.477 16.477 0 0 1 -1.516 3.586c-.67 1.19-1.526 2.316-2.57 3.392-1.044 1.07-2.276 2.011-3.696 2.834s-3.021 1.474-4.8 1.96c-1.778.48-3.762.722-5.948.722-3.231 0-6.006-.518-8.324-1.559-2.317-1.042-4.226-2.354-5.726-3.939-1.503-1.584-2.604-3.305-3.307-5.17-.702-1.859-1.051-3.609-1.051-5.255 0-1.67.349-3.445 1.051-5.322.703-1.877 1.804-3.601 3.307-5.169 1.5-1.569 3.409-2.867 5.726-3.894 2.318-1.026 5.093-1.54 8.324-1.54 3.264-.001 6.097.521 8.495 1.562 2.399 1.042 4.382 2.354 5.949 3.937 1.567 1.584 2.725 3.307 3.476 5.17zm-3.671 5.256c0-2.053-.377-3.937-1.128-5.653s-1.769-3.189-3.06-4.42a14.018 14.018 0 0 0 -4.503-2.882c-1.714-.689-3.534-1.034-5.46-1.034-1.958 0-3.769.346-5.434 1.034-1.664.69-3.109 1.649-4.334 2.882-1.224 1.231-2.187 2.704-2.887 4.42-.704 1.716-1.055 3.6-1.055 5.653 0 2.055.351 3.937 1.055 5.655.7 1.712 1.663 3.186 2.887 4.419a13.133 13.133 0 0 0 4.334 2.882c1.665.689 3.476 1.032 5.434 1.032 1.926 0 3.746-.343 5.46-1.032a14.035 14.035 0 0 0 4.503-2.882c1.291-1.233 2.309-2.707 3.06-4.419.751-1.718 1.128-3.6 1.128-5.655zm-175.579 15.395h4.456v-30.791h-4.456zm40.491-7.257h-.194l-27.174-24.064h-.244v31.321h2.252v-23.533h.195l27.174 24.061h.244v-31.319h-2.253zm70.126-18.256c1.206-1.232 2.685-2.184 4.429-2.859 1.747-.675 3.779-1.012 6.098-1.012 1.533 0 2.968.147 4.307.441 1.339.292 2.531.674 3.574 1.142 1.045.47 1.9 1.005 2.571 1.606.668.601 1.101 1.21 1.298 1.826h3.523c-.293-.645-.792-1.371-1.493-2.177-.701-.807-1.657-1.562-2.863-2.267-1.209-.702-2.702-1.298-4.48-1.781-1.778-.484-3.877-.727-6.293-.726-2.775 0-5.328.353-7.659 1.056-2.335.705-4.352 1.716-6.047 3.035a13.835 13.835 0 0 0 -3.968 4.861c-.946 1.922-1.418 4.099-1.419 6.535 0 2.084.367 4.095 1.103 6.045s1.863 3.696 3.384 5.236c1.519 1.542 3.458 2.774 5.811 3.697 2.354.922 5.165 1.383 8.435 1.383 2.452 0 4.626-.242 6.525-.722 1.893-.486 3.463-1.023 4.705-1.608v1.802h4.164v-13.721h-4.106s-.058 2.307-.058 6.036v3.728a18.637 18.637 0 0 1 -4.513 1.894c-1.536.409-3.287.613-5.25.613-2.583 0-4.84-.352-6.766-1.056-1.932-.703-3.534-1.679-4.809-2.925a11.99 11.99 0 0 1 -2.871-4.442c-.637-1.717-.956-3.601-.956-5.655 0-2.023.303-3.884.906-5.585.602-1.701 1.509-3.168 2.718-4.4zm12.515-22.167c8.795 2.863 17.339 6.28 26.356 8.485 15.126 3.348 34.238-1.189 49.578-3.704 0 0-4.301.377-10.695 1.005-37.839 3.725-42.624-.048-64.271-11.727-18.602-10.389-39.343-.896-39.343-.896s7.149 5.411 6.825 13.595c0 2.361.389.167.389-8.029.616-4.826 6.763-5.19 17.175-2.747 4.04.949 8.728 2.321 13.986 4.018zm-85.677 55.537 3.551 7.604h-1.055l-1.046-2.24h-3.76l-.959 2.24h-.501l3.225-7.604zm1.22 4.877-1.711-3.659h-.043l-1.569 3.659zm-14.754.932h-.044l-6.047-5.94h-.054v7.735h.501v-5.81h.043l6.048 5.936h.054v-7.73h-.501zm39.446-5.809h-.992v7.604h4.926v-.6h-3.934zm16.783 3.753a6.05 6.05 0 0 0 -1.103-.483 14.407 14.407 0 0 1 -1.104-.412 3.5 3.5 0 0 1 -.845-.501.924.924 0 0 1 -.339-.75c0-.174.038-.333.115-.488.076-.15.189-.286.338-.398.149-.107.332-.201.55-.271.219-.066.47-.099.754-.099.473 0 .875.099 1.207.295.331.202.526.516.583.942h.744a1.701 1.701 0 0 0 -.296-.721 1.99 1.99 0 0 0 -.578-.544 2.648 2.648 0 0 0 -.792-.337 3.72 3.72 0 0 0 -.922-.117c-.334 0-.652.046-.954.131a2.637 2.637 0 0 0 -.797.379c-.23.168-.41.38-.547.633a1.826 1.826 0 0 0 -.201.866c0 .431.109.774.328 1.036.217.258.491.473.822.651.331.173.688.319 1.074.445.383.122.742.262 1.073.417.33.155.605.342.822.572.218.22.328.524.328.9 0 .468-.173.815-.518 1.03-.346.215-.805.324-1.379.324-.458 0-.823-.057-1.1-.178a1.75 1.75 0 0 1 -.632-.427 1.37 1.37 0 0 1 -.295-.515 2.059 2.059 0 0 1 -.086-.454h-.742c.015.313.097.594.245.847.151.253.354.469.612.647.259.177.562.314.911.412.351.098.732.145 1.147.145.423 0 .803-.047 1.141-.149.338-.103.627-.248.868-.437.24-.187.425-.416.558-.683.129-.268.196-.562.196-.89 0-.446-.114-.816-.339-1.102a2.872 2.872 0 0 0 -.847-.716zm-29.446 3.851h.993v-7.604h-.993zm73.704-7.597 3.553 7.601h-1.056l-1.048-2.236h-3.76l-.961 2.236h-.502l3.226-7.601zm1.221 4.878-1.712-3.659h-.045l-1.569 3.659zm21.609-.412c.182.243.271.571.271.984 0 .263-.045.519-.136.777-.09.258-.239.487-.444.689-.204.207-.475.371-.81.497-.336.126-.747.188-1.238.188h-2.745v-7.601h2.732c.378 0 .707.057.988.169.279.113.51.253.688.426.178.179.31.371.4.577.087.211.131.417.131.619 0 .234-.051.454-.153.66-.103.206-.24.384-.409.543a2.18 2.18 0 0 1 -.597.38 1.83 1.83 0 0 1 -.718.145v.042c.16.01.372.033.632.079.263.043.518.128.764.258.246.132.462.32.644.568zm-4.111-1.144h1.309c.218 0 .422-.037.614-.107.193-.071.366-.173.515-.305a1.395 1.395 0 0 0 .474-1.054c0-.164-.03-.333-.09-.497a1.11 1.11 0 0 0 -.277-.445 1.393 1.393 0 0 0 -.49-.319 1.981 1.981 0 0 0 -.726-.116h-1.329zm3.292 2.217a1.75 1.75 0 0 0 -.124-.661 1.534 1.534 0 0 0 -.385-.558 1.922 1.922 0 0 0 -.651-.379 2.752 2.752 0 0 0 -.929-.14h-1.203v3.322h1.588c.232 0 .453-.034.66-.104.208-.065.387-.168.541-.31a1.53 1.53 0 0 0 .367-.496 1.57 1.57 0 0 0 .136-.674zm-42.912-5.539h-.994v7.601h4.928v-.596h-3.934z" fill-rule="evenodd"></path></svg>