<?xml version="1.0" encoding="UTF-8"?>
<svg width="82px" height="82px" viewBox="0 0 82 82" version="1.1" xmlns="http://www.w3.org/2000/svg" xmlns:xlink="http://www.w3.org/1999/xlink">
    <g id="Home" stroke="none" stroke-width="1" fill="none" fill-rule="evenodd">
        <g id="Mobile-Portrait" transform="translate(-130.000000, -490.000000)">
            <g id="corpo" transform="translate(131.000000, 491.000000)">
                <g id="Group-5">
                    <path d="M40.0000382,37.275986 C40.2590019,37.275986 40.4689488,37.4858705 40.4689488,37.7448967 L40.4689488,38.7125407 C40.4689488,38.971567 40.2590644,39.1814514 40.0000382,39.1814514 C39.7410119,39.1814514 39.5311275,38.971567 39.5311275,38.7125407 L39.5311275,37.7448967 C39.5311275,37.4858705 39.7410119,37.275986 40.0000382,37.275986 Z M55.6574651,28.3131027 C56.0818605,28.534116 56.0097108,29.0953707 55.966571,29.4307982 C55.5539296,32.6255177 54.3234456,34.9464379 52.3091929,36.3295368 C51.6734126,36.7660613 51.0081222,37.0801064 50.3510846,37.3134364 C50.5557172,38.0236797 50.8216208,38.7641834 51.160737,39.5646452 C51.7683827,41.0035757 53.1244098,44.8942837 52.5971041,49.9424508 C52.5719705,50.1834708 52.3684007,50.3627197 52.1313195,50.3627197 C52.1150014,50.3627197 52.0986833,50.3618444 52.0820526,50.3600938 C51.8245269,50.3332722 51.6374628,50.1026306 51.6644095,49.8450424 C51.7823249,48.7164057 51.7990807,47.6442884 51.7497513,46.6483221 C48.8964612,46.9466118 46.3150768,47.7311931 44.2596225,48.9297288 C42.4693217,49.9736489 41.127737,51.2998533 40.4689488,52.6733239 L40.4689488,55.0730211 L49.4063859,55.0732712 C49.8172142,55.072896 50.1135032,55.074209 50.2752461,54.9839906 C50.3732172,54.9292843 50.5264572,54.7877983 50.7254628,54.1933447 C50.9749858,53.4429626 51.1807438,52.6830147 51.3366722,51.9354461 C51.3895654,51.6819217 51.6378379,51.5188033 51.8914248,51.5721341 C52.1449492,51.6250272 52.3076299,51.8733623 52.2547368,52.1268867 C52.0914934,52.9097174 51.8762946,53.7047398 51.6151427,54.4901964 C51.1331025,55.9300647 50.5351476,56.0110299 49.4407727,56.0110299 L49.405073,56.0110299 L49.3005371,56.0109049 L30.5933153,56.0110299 L30.5574905,56.0110299 C29.4627404,56.0110299 28.8648481,55.9300647 28.3849336,54.490509 C25.9887377,47.3138001 28.1267202,41.2520983 28.8390892,39.5652079 C28.867599,39.4979973 28.8940456,39.4329751 28.9213049,39.3670775 C27.6827556,40.0896375 26.4345154,41.0330233 25.3672122,42.0048562 C25.225101,42.1341505 24.9328759,42.4002417 24.6092025,42.4003042 C24.5219226,42.4003042 24.432392,42.3809226 24.3428613,42.3342816 C23.9179657,42.1130183 23.990303,41.5511383 24.0335053,41.2153982 C24.4460841,38.0214915 25.6765682,35.7010089 27.6908834,34.3182852 C28.4932207,33.767409 29.3426368,33.4115995 30.1630429,33.1670158 C30.1255925,32.1573573 29.6429272,29.402601 29.6429272,29.402601 C29.393029,28.1914986 29.1569482,27.0476067 29.1003037,25.6631323 C29.0756078,25.0322287 29.3090628,24.6519109 29.5091938,24.4438396 C29.788352,24.1534901 30.1822369,24 30.648084,24 L49.3519923,24 C49.8178394,24 50.2117243,24.1534901 50.4908825,24.443777 C50.6910135,24.6518483 50.9244685,25.0321661 50.8997726,25.6621945 C50.8430656,27.0474816 50.6070473,28.191436 50.3571491,29.402476 C50.3571491,29.402476 50.0136565,31.2256631 49.937818,31.8787619 C51.5274876,31.1360074 53.2345725,29.9143388 54.6331142,28.6429032 C54.8133634,28.478722 55.2362583,28.0937776 55.6574651,28.3131027 Z M24.9993362,41.0749126 C26.2751483,39.9481516 27.6786292,38.9544361 28.9823258,38.2573848 C30.7419912,37.316625 32.2324394,36.9484988 33.4115934,37.1630098 C33.6344822,37.2035862 33.7965377,37.3977778 33.7965377,37.6243554 L33.7965377,39.3062441 L38.2815119,35.3239422 L33.7965377,31.3399523 L33.7965377,33.0235916 C33.7965377,33.2529827 33.6306684,33.4486122 33.4044034,33.4861251 C33.2306564,33.5149475 33.0453429,33.5430821 32.8504011,33.5727173 C30.0910182,33.9914857 25.9394083,34.6217016 24.9993362,41.0749126 Z M39.5311275,55.073105 L39.5311275,52.6733239 C38.8723393,51.2999784 37.530442,49.9737115 35.7395785,48.9296663 C33.6818109,47.7300678 31.0972379,46.9452364 28.2407593,46.6475094 C28.1327848,48.8555784 28.3544232,51.437588 29.2746135,54.1935322 C29.4726188,54.7876733 29.6259213,54.9290968 29.7238924,54.983803 C29.8856353,55.0740839 30.1815492,55.0732712 30.5920648,55.0730836 L30.697726,55.0729585 L39.5311275,55.073105 Z M50.8935829,41.6179737 C50.6590651,40.8313917 50.4333628,40.2527559 50.2970661,39.9300204 C49.9456957,39.1005487 49.6688508,38.3298471 49.4543398,37.5877804 C48.6716967,37.7926005 47.9273167,37.9058268 47.2902234,38.0025475 C47.2398936,38.0101751 47.1902516,38.0176777 47.1412973,38.0251177 L47.1412973,39.6660549 C47.1412973,40.180106 46.9188461,40.3878647 46.7322822,40.4716434 C46.6495039,40.5087811 46.5639746,40.52735 46.476257,40.52735 C46.2696862,40.52735 46.050111,40.4247524 45.8202197,40.2202448 L41.0462716,35.9812925 C40.8647094,35.8202998 40.6787082,35.6161674 40.6787082,35.3240048 C40.6787082,35.0319047 40.8647094,34.8277097 41.0465842,34.666467 L45.8205323,30.4258266 C46.1480195,30.1346018 46.4546246,30.0502604 46.7322822,30.1746155 C46.9188461,30.2583942 47.1412973,30.4661529 47.1412973,30.980204 L47.1412973,32.6033851 C47.6844209,32.6240172 48.3000068,32.5041636 48.9534807,32.2800869 C49.0264432,31.4599934 49.4387095,29.2130361 49.4387095,29.2130361 C49.6806674,28.0405093 49.9092457,26.9329424 49.9627015,25.6248067 C49.9692037,25.4599377 49.9488217,25.23311 49.8149634,25.0939373 C49.6909834,24.9649556 49.4947912,24.9378838 49.3520548,24.9378838 L30.6481466,24.9378838 C30.5054102,24.9378838 30.3092179,24.9649556 30.185238,25.0939373 C30.0514421,25.23311 30.0309976,25.4599377 30.0374998,25.625682 C30.0910182,26.9329424 30.3195965,28.0405093 30.5614919,29.2130361 C30.5614919,29.2130361 31.0412813,31.9240274 31.0914234,32.929747 C31.6729977,32.803016 32.2228111,32.7194874 32.7098529,32.6455871 C32.7601827,32.6379595 32.8098872,32.6303944 32.858904,32.6229543 L32.858904,30.9802665 C32.858904,30.4662154 33.0813552,30.2584567 33.2679191,30.174678 C33.5456393,30.0500728 33.8524944,30.1347268 34.1799816,30.4260767 L38.9539923,34.6668421 C39.1354294,34.8286476 39.3201802,35.0327175 39.3201802,35.3240048 C39.3201802,35.6153546 39.1354294,35.8194245 38.95468,35.9806047 L34.1799191,40.2202448 C33.8523068,40.5116571 33.5455768,40.5960611 33.2678566,40.4716434 C33.0812927,40.3878647 32.8588415,40.180106 32.8588415,39.6660549 L32.8588415,38.0443118 C32.0808249,38.012926 31.1545701,38.2689512 30.1797361,38.7113528 C30.0400007,39.1027994 29.8838847,39.5032491 29.7028227,39.9305205 C29.5497702,40.2928947 29.3278192,40.8675916 29.1018043,41.6179737 L32.9005433,41.6179737 C33.1595695,41.6179737 33.3694539,41.8278581 33.3694539,42.0868843 C33.3694539,42.3459106 33.1595695,42.555795 32.9005433,42.555795 L28.8439034,42.555795 C28.6206394,43.4513518 28.4191954,44.515654 28.3074071,45.7109385 C34.643703,46.3590981 38.433814,49.1106033 40.0000382,51.5902028 C41.5655745,49.1116036 45.352622,46.3613488 51.6827908,45.7117513 C51.5704398,44.5124028 51.3690583,43.4467878 51.1488579,42.555795 L40.7563598,42.555795 L41.683615,44.4233723 C41.7987794,44.6553268 41.7040595,44.9367357 41.472105,45.0519002 C41.4051446,45.0851616 41.3339952,45.100917 41.2639712,45.100917 C41.0914746,45.100917 40.9255427,45.0053842 40.8435772,44.8403902 L40.0000382,43.1413706 L39.1564991,44.8403902 C39.0745961,45.0053842 38.9086017,45.100917 38.7361051,45.100917 C38.6660811,45.100917 38.5949317,45.0851616 38.5279713,45.0519002 C38.2960168,44.9367357 38.2012969,44.6553268 38.3164613,44.4233723 L39.2437165,42.555795 L35.0662228,42.555795 C34.8071965,42.555795 34.5973121,42.3459106 34.5973121,42.0868843 C34.5973121,41.8278581 34.8071965,41.6179737 35.0662228,41.6179737 L50.8935829,41.6179737 Z M47.1494251,37.0752923 C49.9087455,36.6565238 54.0600428,36.0266205 55.0005525,29.5727843 C53.7230524,30.6996079 52.319509,31.6927607 51.0170002,32.3892493 C49.25771,33.3300091 47.7676995,33.6985729 46.5887956,33.4849997 C46.3657191,33.4445483 46.203476,33.2502943 46.203476,33.0235916 L46.203476,31.3399523 L41.7185019,35.3239422 L46.203476,39.3062441 L46.203476,37.6243554 C46.203476,37.3949643 46.3693454,37.1993348 46.5956104,37.1618219 C46.7692949,37.1329996 46.9546084,37.1048649 47.1494251,37.0752923 Z" id="Combined-Shape" fill="#B35E00"></path>
                    <circle id="Oval" stroke="#B35E00" stroke-width="2" cx="40" cy="40" r="40"></circle>
                </g>
            </g>
        </g>
    </g>
</svg>