<?xml version="1.0" encoding="UTF-8"?>
<svg width="140px" height="180px" viewBox="0 0 64 77"  version="1.1" xmlns="http://www.w3.org/2000/svg" xmlns:xlink="http://www.w3.org/1999/xlink">
    <title>Combined Shape</title>
    <g id="Home" stroke="none" stroke-width="1" fill="none" fill-rule="evenodd">
        <g id="home-mani" transform="translate(-982.000000, -582.000000)" fill="#B35E00">
            <g id="corpo" transform="translate(944.000000, 545.000000)">
                <path d="M88.7039845,37 C89.6356787,37 90.4234486,37.3069802 90.9817649,37.8875541 C91.3820271,38.3036967 91.848937,39.0643323 91.7995451,40.324389 C91.6861313,43.0949632 91.2140945,45.3828721 90.7142983,47.8049519 C90.7142983,47.8049519 90.0273129,51.4513262 89.875636,52.7575238 C93.0549752,51.2720148 96.469145,48.8286777 99.2662283,46.2858065 C99.6267268,45.9574439 100.472517,45.1875552 101.31493,45.6262055 C102.163721,46.0682319 102.019422,47.1907415 101.933142,47.8615963 C101.107859,54.2510355 98.6468911,58.8928758 94.6183859,61.6590736 C93.3468252,62.5321227 92.0162444,63.1602129 90.7021691,63.6268728 C91.1114344,65.0473594 91.6432416,66.5283668 92.3214739,68.1292903 C93.5367653,71.0071513 96.2488195,78.7885674 95.1942082,88.8849015 C95.143941,89.3669417 94.7368015,89.7254395 94.262639,89.7254395 C94.2300028,89.7254395 94.1973666,89.7236889 94.1641052,89.7201877 C93.6490538,89.6665443 93.2749256,89.2052613 93.3288191,88.6900848 C93.5646499,86.4328114 93.5981613,84.2885767 93.4995025,82.2966443 C87.7929224,82.8932237 82.6301535,84.4623863 78.5192451,86.8594576 C74.9386433,88.9472979 72.255474,91.5997066 70.9378976,94.3466478 L70.9378976,94.3466478 L70.9378976,99.1460421 L89.0523564,99.1462321 C89.750253,99.1444866 90.2593549,99.1303743 90.5504922,98.9679811 C90.7464343,98.8585686 91.0529143,98.5755967 91.4509257,97.3866894 C91.9499717,95.8859252 92.3614876,94.3660294 92.6733445,92.8708922 C92.7791307,92.3638435 93.2756759,92.0376067 93.7828496,92.1442682 C94.2898983,92.2500545 94.6152598,92.7467246 94.5094736,93.2537734 C94.1829867,94.8194348 93.7525893,96.4094795 93.2302853,97.9803928 C92.266205,100.860129 91.0702953,101.02206 88.8815454,101.02206 L88.8815454,101.02206 L51.114981,101.02206 C48.9254808,101.02206 47.7296961,100.860129 46.7698673,97.981018 C41.9774754,83.6276003 46.2534404,71.5041966 47.6781785,68.1304157 C47.735198,67.9959947 47.7880912,67.8659501 47.8426098,67.734155 C45.3655111,69.1792751 42.8690308,71.0660465 40.7344245,73.0097124 C40.4502021,73.268301 39.8657518,73.8004834 39.2184051,73.8006084 C39.0438453,73.8006084 38.8647839,73.7618451 38.6857226,73.6685632 C37.8359314,73.2260366 37.980606,72.1022765 38.0670106,71.4307965 C38.8921683,65.0429829 41.3531364,60.4020179 45.3817667,57.6365704 C46.9864415,56.5348179 48.6852735,55.8231991 50.3260857,55.3340315 C50.251185,53.3147147 49.2858543,47.805202 49.2858543,47.805202 C48.7860581,45.3829971 48.3138963,43.0952133 48.2006075,40.3262646 C48.1512156,39.0644573 48.6181255,38.3038217 49.0183877,37.8876791 C49.576704,37.3069802 50.3644739,37 51.2961681,37 L51.2961681,37 Z M46.4815185,82.2950187 C46.2655695,86.7111568 46.7088464,91.875176 48.5492269,97.3870645 C48.9452376,98.5753466 49.2518427,98.8581935 49.4477848,98.967606 C49.7712706,99.1481679 50.3630984,99.1465423 51.1841297,99.1462101 L51.1841297,99.1462101 L51.3954521,99.1459171 L69.062255,99.1462101 L69.062255,94.3466478 C67.7446786,91.5999567 65.0608841,88.9474229 61.4791569,86.8593325 C57.3636219,84.4601355 52.1944758,82.8904727 46.4815185,82.2950187 Z M88.7041096,38.8757677 L51.2962931,38.8757677 C51.0108203,38.8757677 50.6184359,38.9299112 50.3704759,39.1878746 C50.1028842,39.46622 50.0619952,39.9198754 50.0749997,40.251364 C50.1820364,42.8658847 50.639193,45.0810187 51.1229837,47.4260721 C51.1229837,47.4260721 51.1715624,47.70056 51.2480017,48.1489277 L51.3028613,48.4724955 C51.5857679,50.1502402 52.1101407,53.4012005 52.1828469,54.8594939 C53.3459954,54.6060321 54.4456221,54.4389748 55.4197059,54.2911742 C55.5203653,54.275919 55.6197744,54.2607888 55.717808,54.2459087 L55.717808,54.2459087 L55.717808,50.9605331 C55.717808,49.9324308 56.1627104,49.5169135 56.5358383,49.3493561 C57.0912786,49.1001457 57.7049888,49.2694537 58.3599632,49.8521533 L58.3599632,49.8521533 L67.9079845,58.3336842 C68.2708588,58.6572951 68.6403604,59.0654349 68.6403604,59.6480095 C68.6403604,60.2307092 68.2708588,60.638849 67.90936,60.9612095 L67.90936,60.9612095 L58.3598382,69.4404896 C57.7046137,70.0233143 57.0911535,70.1921221 56.5357132,69.9432868 C56.1625854,69.7757294 55.7176829,69.3602121 55.7176829,68.3321098 L55.7176829,68.3321098 L55.7176829,65.0886236 C54.1616498,65.0258521 52.3091401,65.5379025 50.3594721,66.4227056 C50.0800014,67.2055989 49.7677694,68.0064983 49.4056454,68.8610411 C49.0995405,69.5857894 48.6556384,70.7351832 48.2036085,72.2359473 L48.2036085,72.2359473 L55.8010865,72.2359473 C56.319139,72.2359473 56.7389078,72.6557162 56.7389078,73.1737687 C56.7389078,73.6918211 56.319139,74.11159 55.8010865,74.11159 L55.8010865,74.11159 L47.6878068,74.11159 C47.2412788,75.9027036 46.8383908,78.0313079 46.6148142,80.421877 C59.287406,81.7181961 66.8676281,87.2212065 70.0000763,92.1804056 C73.1311491,87.2232072 80.705244,81.7226976 93.3655817,80.4235025 C93.1408797,78.0248057 92.7381167,75.8935755 92.2977158,74.11159 L92.2977158,74.11159 L71.5127196,74.11159 L73.3672299,77.8467447 C73.5975589,78.3106536 73.4081189,78.8734715 72.94421,79.1038004 C72.8102891,79.1703232 72.6679904,79.201834 72.5279424,79.201834 C72.1829492,79.201834 71.8510855,79.0107685 71.6871543,78.6807804 L71.6871543,78.6807804 L70.0000763,75.2827412 L68.3129983,78.6807804 C68.1491922,79.0107685 67.8172034,79.201834 67.4722102,79.201834 C67.3321622,79.201834 67.1898635,79.1703232 67.0559426,79.1038004 C66.5920337,78.8734715 66.4025938,78.3106536 66.6329227,77.8467447 L66.6329227,77.8467447 L68.487433,74.11159 L60.1324455,74.11159 C59.614393,74.11159 59.1946242,73.6918211 59.1946242,73.1737687 C59.1946242,72.6557162 59.614393,72.2359473 60.1324455,72.2359473 L60.1324455,72.2359473 L91.7871659,72.2359473 C91.3181302,70.6627834 90.8667255,69.5055119 90.5941321,68.8600407 C89.8913914,67.2010973 89.3377017,65.6596942 88.9086797,64.1755607 C87.3433934,64.5852011 85.8546333,64.8116537 84.5804467,65.005095 C84.4797873,65.0203502 84.3805032,65.0353553 84.2825947,65.0502354 L84.2825947,65.0502354 L84.2825947,68.3321098 C84.2825947,69.3602121 83.8376923,69.7757294 83.4645644,69.9432868 C83.2990077,70.0175623 83.1279491,70.0547 82.952514,70.0547 C82.5393724,70.0547 82.100222,69.8495047 81.6404395,69.4404896 L81.6404395,69.4404896 L72.0925432,60.9625849 C71.7294188,60.6405996 71.3574163,60.2323347 71.3574163,59.6480095 C71.3574163,59.0638094 71.7294188,58.6554195 72.0931684,58.332934 L72.0931684,58.332934 L81.6410647,49.8516532 C82.2960391,49.2692036 82.9092492,49.1005208 83.4645644,49.349231 C83.8376923,49.5167884 84.2825947,49.9323058 84.2825947,50.960408 L84.2825947,50.960408 L84.2825947,54.2067703 C85.3688419,54.2480344 86.6000137,54.0083273 87.9069615,53.5601738 C87.9627563,52.9330434 88.1177594,51.8887159 88.2879486,50.8379069 L88.3672699,50.3539534 C88.6199309,48.8294486 88.877419,47.4260721 88.877419,47.4260721 C89.3613347,45.0810187 89.8184914,42.8658847 89.925403,40.2496134 C89.9384075,39.9198754 89.8976435,39.46622 89.6299268,39.1878746 C89.3819668,38.9299112 88.9895824,38.8757677 88.7041096,38.8757677 L88.7041096,38.8757677 Z M57.5930755,51.6799045 L57.5930755,55.0471832 C57.5930755,55.5059654 57.2613368,55.8972245 56.8088068,55.9722502 C56.4613127,56.0298949 56.0906857,56.0861642 55.7008022,56.1454345 C50.1820364,56.9829715 41.8788166,58.2434033 39.9986724,71.1498252 C42.5502966,68.8963031 45.3572583,66.9088722 47.9646516,65.5147696 C51.4839824,63.6332499 54.4648787,62.8969977 56.8231867,63.3260197 C57.2689644,63.4071725 57.5930755,63.7955555 57.5930755,64.2487108 L57.5930755,64.2487108 L57.5930755,67.6124883 L66.5630237,59.6478845 L57.5930755,51.6799045 Z M100.001105,48.1455686 C97.4461047,50.3992158 94.639018,52.3855213 92.0340004,53.7784986 C88.5154199,55.6600182 85.5353989,56.3971457 83.1775911,55.9699994 C82.7314383,55.8890967 82.4069521,55.5005886 82.4069521,55.0471832 L82.4069521,55.0471832 L82.4069521,51.6799045 L73.4370038,59.6478845 L82.4069521,67.6124883 L82.4069521,64.2487108 C82.4069521,63.7899286 82.7386907,63.3986696 83.1912208,63.3236439 C83.5385898,63.2659991 83.9092168,63.2097298 84.2988503,63.1505846 C89.817491,62.3130476 98.1200856,61.053241 100.001105,48.1455686 Z M70.0000763,63.5519721 C70.5180038,63.5519721 70.9378976,63.9717409 70.9378976,64.4897934 L70.9378976,64.4897934 L70.9378976,66.4250815 C70.9378976,66.943134 70.5181288,67.3629028 70.0000763,67.3629028 C69.4820238,67.3629028 69.062255,66.943134 69.062255,66.4250815 L69.062255,66.4250815 L69.062255,64.4897934 C69.062255,63.9717409 69.4820238,63.5519721 70.0000763,63.5519721 Z" id="Combined-Shape"></path>
            </g>
        </g>
    </g>
</svg>