<?xml version="1.0" encoding="UTF-8"?>
<svg width="109px" height="109px" viewBox="0 0 109 109" version="1.1" xmlns="http://www.w3.org/2000/svg" xmlns:xlink="http://www.w3.org/1999/xlink">
    <title>Combined Shape</title>
    <g id="Home" stroke="none" stroke-width="1" fill="none" fill-rule="evenodd">
        <g id="Artboard" transform="translate(-999.000000, -109.000000)" fill="#212121">
            <path d="M1085.35522,109 C1086.94202,109 1088.28369,109.522645 1089.23457,110.511095 C1089.91626,111.219593 1090.71147,112.514604 1090.62735,114.659899 C1090.43419,119.376907 1089.63025,123.27216 1088.77904,127.395843 C1088.77904,127.395843 1088.3705,129.563544 1087.98294,131.795965 L1087.89407,132.311331 C1087.65912,133.683598 1087.44463,135.019112 1087.35069,135.827785 C1092.7655,133.29865 1098.58026,129.138775 1103.34405,124.80944 C1103.95802,124.25039 1105.3985,122.939625 1106.83324,123.686444 C1108.27884,124.439011 1108.03308,126.350126 1107.88613,127.492282 C1106.48057,138.370546 1102.28924,146.273456 1095.42819,150.983014 C1093.26256,152.469413 1090.99642,153.538761 1088.75838,154.333267 C1089.45541,156.7517 1090.36115,159.273171 1091.51626,161.998805 C1093.58605,166.898473 1098.20502,180.146631 1096.40889,197.336025 C1096.32327,198.156716 1095.62986,198.767073 1094.82231,198.767073 C1094.76672,198.767073 1094.71114,198.764092 1094.65449,198.758131 C1093.77729,198.666801 1093.14011,197.881449 1093.23189,197.004342 C1093.63354,193.161248 1093.69062,189.510606 1093.52259,186.119265 C1083.80357,187.134965 1075.01073,189.806524 1068.00934,193.887629 C1061.91113,197.442257 1057.34135,201.958084 1055.09736,206.634856 L1055.09736,206.634856 L1055.09736,214.806008 L1085.81516,214.806587 C1087.07241,214.804793 1087.98585,214.789573 1088.50006,214.502853 C1088.83377,214.316574 1089.35574,213.834803 1090.03361,211.810643 C1090.88355,209.255535 1091.58441,206.667854 1092.11554,204.122326 C1092.29571,203.259056 1093.14139,202.703626 1094.00517,202.885221 C1094.86873,203.065326 1095.42286,203.910926 1095.2427,204.774196 C1094.68665,207.439794 1093.95363,210.146906 1093.06408,212.821446 C1091.42213,217.724307 1089.38535,218 1085.65763,218 L1085.65763,218 L1021.33645,218 C1017.60746,218 1015.57089,217.724307 1013.93618,212.82251 C1005.77414,188.385269 1013.05664,167.744711 1015.48315,162.000721 C1015.58026,161.771864 1015.67034,161.550458 1015.76319,161.326072 C1011.54439,163.786444 1007.29257,166.998744 1003.65707,170.30791 C1003.173,170.748167 1002.17761,171.654227 1001.0751,171.65444 C1000.7778,171.65444 1000.47284,171.588444 1000.16787,171.429628 C998.720571,170.67621 998.96697,168.762965 999.114127,167.619745 C1000.51947,156.744249 1004.71081,148.842828 1011.57207,144.134549 C1014.30503,142.258773 1017.19836,141.047215 1019.99286,140.214388 C1019.8653,136.776424 1018.22122,127.396269 1018.22122,127.396269 C1017.37001,123.272373 1016.56585,119.377333 1016.37291,114.663092 C1016.28879,112.514817 1017.084,111.219806 1017.76569,110.511308 C1018.71657,109.522645 1020.05824,109 1021.64504,109 L1021.64504,109 Z M1013.44509,186.116498 C1013.0773,193.635141 1013.83225,202.427081 1016.96665,211.811282 C1017.64111,213.834377 1018.16329,214.315935 1018.49701,214.502214 C1019.04795,214.809627 1020.0559,214.80686 1021.45422,214.806294 L1021.45422,214.806294 L1021.81413,214.805795 L1051.9029,214.806294 L1051.9029,206.634856 C1049.65891,201.95851 1045.08807,197.44247 1038.98794,193.887416 C1031.97867,189.802692 1023.17497,187.130281 1013.44509,186.116498 Z M1085.35544,112.193566 L1021.64525,112.193566 C1021.15905,112.193566 1020.49077,112.285747 1020.06847,112.72494 C1019.61272,113.198834 1019.54309,113.971199 1019.56523,114.535571 C1019.74753,118.986893 1020.52613,122.758243 1021.35008,126.750786 C1021.35008,126.750786 1022.98436,135.981918 1023.15516,139.40647 C1025.13615,138.974941 1027.00895,138.69052 1028.66794,138.438884 C1028.83937,138.412911 1029.00868,138.387152 1029.17564,138.361818 L1029.17564,138.361818 L1029.17564,132.76834 C1029.17564,131.017957 1029.93337,130.310523 1030.56885,130.02525 C1031.51483,129.60096 1032.56006,129.889213 1033.67556,130.881281 L1033.67556,130.881281 L1049.93704,145.321411 C1050.55506,145.872371 1051.18436,146.567245 1051.18436,147.5591 C1051.18436,148.551169 1050.55506,149.246042 1049.93938,149.794873 L1049.93938,149.794873 L1033.67535,164.231171 C1032.55942,165.223453 1031.51462,165.510854 1030.56864,165.087203 C1029.93315,164.80193 1029.17543,164.094496 1029.17543,162.344113 L1029.17543,162.344113 L1029.17543,156.821953 C1026.52531,156.715083 1023.37025,157.586868 1020.04973,159.093279 C1019.57375,160.426185 1019.04198,161.789747 1018.42524,163.244638 C1017.9039,164.47855 1017.14788,166.435437 1016.37802,168.990545 L1016.37802,168.990545 L1029.31748,168.990545 C1030.19978,168.990545 1030.9147,169.705217 1030.9147,170.587222 C1030.9147,171.469226 1030.19978,172.183898 1029.31748,172.183898 L1029.31748,172.183898 L1015.49955,172.183898 C1014.73905,175.233337 1014.05288,178.857367 1013.67211,182.927402 C1035.25511,185.134435 1048.16518,194.503521 1053.50013,202.946746 C1058.83274,194.506927 1071.73237,185.142099 1093.29451,182.93017 C1092.91181,178.846297 1092.22585,175.217796 1091.4758,172.183898 L1091.4758,172.183898 L1056.07635,172.183898 L1059.23481,178.543142 C1059.62709,179.332964 1059.30445,180.291183 1058.51436,180.683327 C1058.28627,180.796584 1058.04392,180.850233 1057.8054,180.850233 C1057.21784,180.850233 1056.65263,180.524936 1056.37343,179.963119 L1056.37343,179.963119 L1053.50013,174.177828 L1050.62683,179.963119 C1050.34784,180.524936 1049.78242,180.850233 1049.19486,180.850233 C1048.95634,180.850233 1048.71399,180.796584 1048.4859,180.683327 C1047.69581,180.291183 1047.37317,179.332964 1047.76545,178.543142 L1047.76545,178.543142 L1050.92391,172.183898 L1036.69432,172.183898 C1035.81201,172.183898 1035.09709,171.469226 1035.09709,170.587222 C1035.09709,169.705217 1035.81201,168.990545 1036.69432,168.990545 L1036.69432,168.990545 L1090.60627,168.990545 C1089.80744,166.312173 1089.03864,164.341874 1088.57438,163.242935 C1087.37753,160.418521 1086.43452,157.794223 1085.70385,155.267429 C1083.03797,155.964857 1080.50242,156.350402 1078.33232,156.679743 C1078.16089,156.705715 1077.99179,156.731262 1077.82504,156.756596 L1077.82504,156.756596 L1077.82504,162.344113 C1077.82504,164.094496 1077.06732,164.80193 1076.43184,165.087203 C1076.14987,165.21366 1075.85854,165.276888 1075.55975,165.276888 C1074.85612,165.276888 1074.10819,164.927535 1073.32512,164.231171 L1073.32512,164.231171 L1057.06386,149.797215 C1056.44542,149.249023 1055.81185,148.553936 1055.81185,147.5591 C1055.81185,146.564477 1056.44542,145.869178 1057.06493,145.320134 L1057.06493,145.320134 L1073.32619,130.88043 C1074.44169,129.888787 1075.48606,129.601598 1076.43184,130.025037 C1077.06732,130.31031 1077.82504,131.017744 1077.82504,132.768127 L1077.82504,132.768127 L1077.82504,138.295183 C1079.67506,138.365437 1081.7719,137.957326 1083.99779,137.194328 C1084.08064,136.263501 1084.2919,134.792832 1084.53676,133.24564 L1084.62442,132.69715 C1085.09775,129.762968 1085.6506,126.750786 1085.6506,126.750786 C1086.47477,122.758243 1087.25337,118.986893 1087.43545,114.532591 C1087.4576,113.971199 1087.38817,113.198834 1086.93222,112.72494 C1086.50991,112.285747 1085.84163,112.193566 1085.35544,112.193566 L1085.35544,112.193566 Z M1032.36946,133.993098 L1032.36946,139.726018 C1032.36946,140.507112 1031.80446,141.173246 1031.03375,141.30098 C1030.44192,141.399122 1029.8107,141.494923 1029.14668,141.595833 C1019.74753,143.021771 1005.60611,145.167705 1002.40399,167.141381 C1006.74972,163.304673 1011.53033,159.920996 1015.97105,157.547483 C1021.96491,154.344124 1027.04175,153.090627 1031.05824,153.821053 C1031.81746,153.959219 1032.36946,154.620456 1032.36946,155.39197 L1032.36946,155.39197 L1032.36946,161.118929 L1047.6464,147.558888 L1032.36946,133.993098 Z M1104.59563,127.975756 C1100.24415,131.812676 1095.46333,135.194437 1091.02666,137.566034 C1085.03407,140.769393 1079.95873,142.024381 1075.94308,141.297148 C1075.18323,141.159408 1074.63059,140.497958 1074.63059,139.726018 L1074.63059,139.726018 L1074.63059,133.993098 L1059.35365,147.558888 L1074.63059,161.118929 L1074.63059,155.39197 C1074.63059,154.610876 1075.19558,153.944742 1075.9663,153.817008 C1076.55791,153.718866 1077.18913,153.623065 1077.85273,153.522368 C1087.25166,152.096429 1101.39202,149.951561 1104.59563,127.975756 Z M1053.5,154 C1054.3284,154 1055,154.660892 1055,155.476523 L1055,155.476523 L1055,158.523477 C1055,159.339108 1054.3286,160 1053.5,160 C1052.6714,160 1052,159.339108 1052,158.523477 L1052,158.523477 L1052,155.476523 C1052,154.660892 1052.6714,154 1053.5,154 Z" id="Combined-Shape"></path>
        </g>
    </g>
</svg>