<?xml version="1.0" encoding="UTF-8"?>
<svg width="140px" height="170px" viewBox="0 0 64 90" version="1.1" xmlns="http://www.w3.org/2000/svg" xmlns:xlink="http://www.w3.org/1999/xlink">
    <title>018-face mask</title>
    <g id="Home" stroke="none" stroke-width="1" fill="none" fill-rule="evenodd">
        <g id="home-mani" transform="translate(-786.000000, -567.000000)" fill="#BC55CC" fill-rule="nonzero">
            <g id="viso" transform="translate(744.000000, 545.000000)">
                <g id="018-face-mask" transform="translate(42.000000, 22.000000)">
                    <path d="M36.0970175,1.70245614 C40.884386,3.80684211 43.8,7.57 44.3708772,12.3440351 C45.2521053,12.9549123 46.067193,13.6745614 46.8022807,14.5066667 C48.9901754,16.9829825 50.2701754,20.2073684 50.4459649,23.6515789 C55.6840351,27.2147368 58.8919298,32.1749123 59.7389474,38.0363158 C60.5405263,43.5835088 59.1015789,49.7221053 55.6866667,55.3624561 C55.6749123,62.2721053 55.4510526,66.6022807 52.0638596,73.2712281 C50.0466667,77.2429825 46.3478947,81.412807 41.9164912,84.7112281 C37.3422807,88.1159649 32.7405263,89.9715789 29.2710526,89.8150877 C29.1292982,89.8215789 28.9859649,89.8247368 28.8419298,89.8247368 C22.8994737,89.8247368 15.1022807,84.3991228 10.3307018,78.8814035 C9.8554386,78.3319298 9.91561404,77.5010526 10.4652632,77.0257895 C11.0147368,76.5503509 11.8457895,76.6108772 12.3208772,77.1603509 C17.4687719,83.1133333 24.7263158,87.4229825 29.2010526,87.1842105 C29.2477193,87.1815789 29.2945614,87.1815789 29.3414035,87.1842105 C35.3526316,87.5080702 45.8257895,79.7422807 49.7178947,72.0796491 C52.8614035,65.8905263 53.0466667,62.0064912 53.055614,55.2426316 C49.0594737,45.2378947 39.967193,39.034386 29.2685965,39.034386 C18.5701754,39.034386 9.47754386,45.2378947 5.48157895,55.2426316 C5.49052632,62.0064912 5.67578947,65.8903509 8.81929825,72.0796491 C9.14824561,72.7275439 8.88982456,73.5192982 8.24210526,73.8484211 C7.59438596,74.1773684 6.80245614,73.9189474 6.47333333,73.2712281 C3.07070175,66.5715789 2.86035088,62.2322807 2.85052632,55.267193 C0.612280702,50.2040351 -0.295964912,44.9526316 0.157368421,39.6529825 C0.453859649,36.1854386 1.35508772,32.7736842 2.79877193,29.5850877 C1.95017544,21.9005263 3.53333333,15.0950877 7.38947368,9.88561404 C7.82192982,9.30140351 8.64578947,9.17877193 9.22982456,9.61087719 C9.81385965,10.0433333 9.93684211,10.867193 9.5045614,11.4512281 C6.82909942,15.0655439 5.3797269,19.5788936 5.22157628,24.6890691 L5.20982456,25.2198246 C8.33614035,20.4991228 12.7505263,16.6077193 17.9764912,13.9645614 C23.5810526,11.13 29.8770175,9.77473684 36.6912281,9.93491228 C38.3508772,9.97403509 39.9145614,10.2657895 41.3608772,10.7905263 C40.4492982,7.85736842 38.2689474,5.53157895 35.0380702,4.11140351 C28.4435088,1.21263158 19.502807,2.62140351 13.2966667,7.5377193 C12.7270175,7.98877193 11.8996491,7.89280702 11.4484211,7.32333333 C10.997193,6.75368421 11.0933333,5.92631579 11.662807,5.47508772 C18.6001754,-0.0207017544 28.6475439,-1.57175439 36.0970175,1.70245614 Z M29.137193,68.0080702 C35.2729825,68.0080702 40.0792982,71.03 40.0792982,74.8878947 C40.0792982,78.7485965 35.2729825,81.772807 29.137193,81.772807 C23.0014035,81.772807 18.1950877,78.7485965 18.1950877,74.8878947 C18.1950877,71.0301754 23.0014035,68.0080702 29.137193,68.0080702 Z M29.137193,70.6392982 C24.2394737,70.6392982 20.8263158,72.8784211 20.8263158,74.8878947 C20.8263158,76.8996491 24.2394737,79.1414035 29.137193,79.1414035 C34.0349123,79.1414035 37.4480702,76.8996491 37.4480702,74.8878947 C37.4480702,72.8784211 34.0349123,70.6392982 29.137193,70.6392982 Z M26.1414035,73.3487719 C27.737193,74.1145614 30.5373684,74.1145614 32.1335088,73.3487719 C32.7884211,73.0347368 33.574386,73.3108772 33.8887719,73.9657895 C34.2031579,74.6208772 33.9268421,75.4068421 33.2717544,75.7210526 C32.1126316,76.277193 30.6249123,76.5554386 29.1373684,76.5554386 C27.6494737,76.5554386 26.1622807,76.2773684 25.0029825,75.7210526 C24.3478947,75.4066667 24.0715789,74.6208772 24.3859649,73.9657895 C24.7001754,73.3107018 25.4863158,73.034386 26.1414035,73.3487719 Z M39.977193,48.7447368 C44.7657895,48.7447368 48.6617544,52.0652632 48.6617544,56.1466667 C48.6617544,60.2308772 44.7657895,63.5536842 39.977193,63.5536842 C35.185614,63.5536842 31.2873684,60.2308772 31.2873684,56.1466667 C31.2873684,52.0652632 35.1857895,48.7447368 39.977193,48.7447368 Z M18.7749123,48.7445614 C23.5663158,48.7445614 27.4645614,52.0652632 27.4645614,56.1464912 C27.4645614,60.2307018 23.5663158,63.5535088 18.7749123,63.5535088 C13.9861404,63.5535088 10.0901754,60.2307018 10.0901754,56.1464912 C10.0901754,52.0650877 13.9861404,48.7445614 18.7749123,48.7445614 Z M39.9770175,51.3759649 C36.6363158,51.3759649 33.9185965,53.5161404 33.9185965,56.1466667 C33.9185965,58.78 36.6364912,60.9222807 39.9770175,60.9224561 C43.3147368,60.9224561 46.0303509,58.78 46.0303509,56.1466667 C46.0303509,53.5161404 43.3147368,51.3759649 39.9770175,51.3759649 Z M18.7749123,51.3757895 C15.4370175,51.3757895 12.7214035,53.5159649 12.7214035,56.1464912 C12.7214035,58.7798246 15.4370175,60.9222807 18.7749123,60.9222807 C22.1154386,60.9222807 24.8331579,58.78 24.8331579,56.1464912 C24.8331579,53.5159649 22.1154386,51.3757895 18.7749123,51.3757895 Z M21.8935088,55.0901754 C22.3121053,55.6842105 22.17,56.5050877 21.5761404,56.9236842 C20.7907018,57.4773684 19.7826316,57.7542105 18.7745614,57.7542105 C17.7664912,57.7542105 16.7585965,57.4773684 15.9729825,56.9236842 C15.3791228,56.5049123 15.2370175,55.6840351 15.655614,55.0901754 C16.074386,54.4963158 16.8952632,54.354386 17.4891228,54.772807 C18.1619298,55.247193 19.3875439,55.247193 20.0605263,54.772807 C20.6545614,54.3545614 21.4754386,54.4963158 21.8935088,55.0901754 Z M41.2626316,54.772807 C41.8566667,54.3545614 42.6775439,54.4963158 43.0959649,55.0901754 C43.5145614,55.6842105 43.3726316,56.5049123 42.7785965,56.9236842 C41.9929825,57.4773684 40.9849123,57.7542105 39.9768421,57.7542105 C38.9689474,57.7542105 37.9608772,57.4773684 37.1752632,56.9236842 C36.5814035,56.5049123 36.4394737,55.6840351 36.8580702,55.0901754 C37.2763158,54.4963158 38.0975439,54.3542105 38.6914035,54.772807 C39.3645614,55.247193 40.5898246,55.2470175 41.2626316,54.772807 Z M50.3087719,26.822807 C49.8010526,30.8494737 48.0773684,34.2703509 45.3319298,36.6173684 C44.1,37.6705263 42.6957895,38.4610526 41.1745614,38.9801754 C42.3998246,39.5429825 43.5852632,40.1952632 44.7217544,40.934386 C48.8963158,43.6496491 52.2421053,47.4680702 54.5149123,52.0687719 C59.4033333,42.5126316 57.7882456,32.8207018 50.3087719,26.822807 Z M7.40526316,26.6707018 C7.15070175,27.0549123 6.91070175,27.4442105 6.67719298,27.8359649 C9.63192982,26.0385965 13.1163158,24.6689474 16.8857895,23.8577193 C22.9075439,22.5615789 29.0191228,22.8466667 34.0949123,24.6601754 C34.7791228,24.9047368 35.135614,25.6575439 34.8912281,26.3417544 C34.6466667,27.0261404 33.8935088,27.3826316 33.2096491,27.1380702 C23.9626316,23.8342105 11.0487719,26.4505263 4.26017544,32.962807 C2.14789474,38.9198246 2.12421053,45.3863158 4.24701754,51.6214035 C6.51350877,47.22 9.77754386,43.5612281 13.8163158,40.934386 C18.3738596,37.97 23.7178947,36.4029825 29.2691228,36.4029825 C31.1359649,36.4029825 32.9784211,36.5842105 34.7763158,36.9322807 C38.1966667,37.4405263 41.2549123,36.6408772 43.6222807,34.6175439 C46.3161404,32.3145614 47.8122807,28.6768421 47.8352632,24.3738596 C47.8068421,20.4664912 46.0063158,16.4878947 42.5564912,14.2905263 C42.4717544,14.2498246 42.3915789,14.2010526 42.3177193,14.1436842 C40.7452632,13.2003509 38.847193,12.6177193 36.6294737,12.5654386 C24.3701754,12.2761404 13.4463158,17.5491228 7.40526316,26.6707018 Z" id="Combined-Shape"></path>
                </g>
            </g>
        </g>
    </g>
</svg>