<?xml version="1.0" encoding="UTF-8"?>
<svg width="81px" height="122px" viewBox="0 0 81 122" version="1.1" xmlns="http://www.w3.org/2000/svg" xmlns:xlink="http://www.w3.org/1999/xlink">
    <title>Combined Shape</title>
    <g id="Home" stroke="none" stroke-width="1" fill="none" fill-rule="evenodd">
        <g id="Artboard" transform="translate(-767.000000, -96.000000)" fill="#212121" fill-rule="nonzero">
            <path d="M815.743404,98.3121921 C822.215893,101.170372 826.157783,106.281499 826.929605,112.7656 C828.121019,113.595294 829.223012,114.572723 830.216846,115.702889 C833.174865,119.066225 834.905416,123.44559 835.143082,128.123522 C842.224917,132.963008 846.561968,139.699926 847.70713,147.660892 C848.790859,155.195098 846.845413,163.532548 842.228475,171.193281 C842.212583,180.577976 841.909926,186.459227 837.330465,195.517001 C834.603233,200.911443 829.602519,206.574905 823.611292,211.054825 C817.426991,215.679144 811.205451,218.199441 806.514746,217.986895 C806.323095,217.995711 806.12931,218 805.934575,218 C797.900415,218 787.358664,210.630923 780.907522,203.136749 C780.26497,202.390453 780.346327,201.261954 781.089448,200.616451 C781.832333,199.97071 782.955911,200.052917 783.598226,200.799213 C790.558144,208.884562 800.370293,214.737934 806.420107,214.413633 C806.4832,214.410059 806.54653,214.410059 806.60986,214.413633 C814.736999,214.8535 828.896637,204.305994 834.158736,193.898596 C838.408738,185.492521 838.659213,180.217219 838.67131,171.030535 C833.268555,157.442087 820.975854,149.016473 806.511426,149.016473 C792.047234,149.016473 779.754059,157.442087 774.351542,171.030535 C774.363638,180.217219 774.614113,185.492283 778.864115,193.898596 C779.30885,194.778568 778.959466,195.85393 778.083754,196.300945 C777.208042,196.747722 776.137359,196.396734 775.692387,195.517001 C771.092052,186.417528 770.807659,180.523887 770.794377,171.063894 C767.768284,164.187106 766.540342,157.054642 767.153246,149.856651 C767.5541,145.147028 768.772554,140.513179 770.724405,136.182422 C769.577108,125.74524 771.717527,116.502083 776.931002,109.426569 C777.51568,108.633093 778.629533,108.466535 779.419144,109.053421 C780.208755,109.640783 780.375027,110.759751 779.790586,111.552988 C776.152592,116.490169 774.19137,122.662496 773.996506,129.652389 L773.984,130.25 L774.350558,129.705324 C778.429278,123.722485 784.039554,118.754153 790.641668,115.278449 L791.244577,114.966601 C798.821906,111.116696 807.334007,109.275975 816.546772,109.493526 C818.790607,109.546662 820.904697,109.942924 822.860106,110.655622 C821.627657,106.671803 818.679838,103.512912 814.311714,101.584028 C805.395913,97.6469117 793.308146,99.5603077 784.917487,106.237655 C784.147325,106.850275 783.028728,106.719936 782.418671,105.946476 C781.808614,105.172777 781.938595,104.049044 782.70852,103.436186 C792.087794,95.9717966 805.671767,93.8651547 815.743404,98.3121921 Z M806.333769,188.368572 C814.629314,188.368572 821.12742,192.472961 821.12742,197.71276 C821.12742,202.95637 814.629314,207.063857 806.333769,207.063857 C798.038224,207.063857 791.540118,202.95637 791.540118,197.71276 C791.540118,192.4732 798.038224,188.368572 806.333769,188.368572 Z M806.333769,191.94231 C799.712086,191.94231 795.09752,194.98349 795.09752,197.71276 C795.09752,200.445127 799.712086,203.489881 806.333769,203.489881 C812.955452,203.489881 817.570018,200.445127 817.570018,197.71276 C817.570018,194.98349 812.955452,191.94231 806.333769,191.94231 Z M812.757871,196.460355 C813.182919,197.350096 812.809342,198.417595 811.923668,198.844356 C810.356542,199.599707 808.345155,199.97762 806.334006,199.97762 C804.322383,199.97762 802.311708,199.599945 800.744345,198.844356 C799.858671,198.417356 799.485094,197.350096 799.910141,196.460355 C800.334952,195.570614 801.397808,195.195321 802.283482,195.622321 C804.440979,196.662417 808.226797,196.662417 810.384767,195.622321 C811.270204,195.195798 812.332823,195.570852 812.757871,196.460355 Z M820.989374,162.205085 C827.463524,162.205085 832.730842,166.715029 832.730842,172.258397 C832.730842,177.805577 827.463524,182.318619 820.989374,182.318619 C814.511193,182.318619 809.240791,177.805577 809.240791,172.258397 C809.240791,166.715029 814.51143,162.205085 820.989374,162.205085 Z M792.324037,162.204847 C798.801981,162.204847 804.072383,166.715029 804.072383,172.258159 C804.072383,177.805339 798.801981,182.31838 792.324037,182.31838 C785.84965,182.31838 780.582332,177.805339 780.582332,172.258159 C780.582332,166.71479 785.84965,162.204847 792.324037,162.204847 Z M820.989137,165.778823 C816.472531,165.778823 812.798194,168.685612 812.798194,172.258397 C812.798194,175.834994 816.472769,178.744643 820.989137,178.744881 C825.501711,178.744881 829.173202,175.834994 829.173202,172.258397 C829.173202,168.685612 825.501711,165.778823 820.989137,165.778823 Z M792.324037,165.778585 C787.811226,165.778585 784.139735,168.685374 784.139735,172.258159 C784.139735,175.834756 787.811226,178.744643 792.324037,178.744643 C796.840405,178.744643 800.514743,175.834994 800.514743,172.258159 C800.514743,168.685374 796.840405,165.778585 792.324037,165.778585 Z M796.540358,170.823469 C797.106297,171.630288 796.914172,172.745205 796.111278,173.313743 C795.04937,174.065758 793.686466,174.441765 792.323562,174.441765 C790.960659,174.441765 789.597992,174.065758 788.535847,173.313743 C787.732953,172.744967 787.540828,171.63005 788.106767,170.823469 C788.672944,170.016888 789.782764,169.824119 790.585658,170.392419 C791.495289,171.03673 793.152311,171.03673 794.062178,170.392419 C794.86531,169.824357 795.97513,170.016888 796.540358,170.823469 Z M822.222129,170.298442 C823.017859,169.77917 824.11745,169.955165 824.677939,170.692471 C825.238663,171.429994 825.048543,172.448935 824.252814,172.968861 C823.200458,173.656287 821.850115,174 820.499772,174 C819.149664,174 817.799321,173.656287 816.746965,172.968861 C815.95147,172.448935 815.761351,171.429776 816.322075,170.692471 C816.882328,169.955165 817.98239,169.778735 818.777885,170.298442 C819.679602,170.887416 821.320882,170.887198 822.222129,170.298442 Z M834.957598,132.430689 C834.271165,137.899713 831.940756,142.545953 828.228942,145.733676 C826.563381,147.164077 824.664898,148.237771 822.608208,148.942844 C824.264756,149.707249 825.86746,150.593178 827.403989,151.597055 C833.047967,155.28493 837.571451,160.471115 840.644271,166.719794 C847.253382,153.740631 845.069795,140.577038 834.957598,132.430689 Z M776.95235,132.224099 C776.608184,132.745934 776.283706,133.27468 775.968004,133.806761 C779.962788,131.365573 784.673653,129.505313 789.769956,128.403502 C797.911326,126.643083 806.174139,127.030289 813.036571,129.493399 C813.961619,129.825563 814.443593,130.848027 814.113185,131.777322 C813.78254,132.706856 812.764275,133.191043 811.839702,132.85888 C799.337798,128.371573 781.878348,131.925056 772.700213,140.770045 C769.844424,148.860875 769.812403,157.643673 772.682423,166.112178 C775.746704,160.134185 780.159657,155.164836 785.620049,151.597055 C791.781816,147.570822 799.006915,145.442497 806.512137,145.442497 C809.036095,145.442497 811.527083,145.688641 813.957824,146.16139 C818.582115,146.85169 822.716842,145.765606 825.917508,143.017511 C829.559588,139.889597 831.582359,134.948842 831.613431,129.104525 C831.575006,123.797531 829.140707,118.393796 824.476568,115.409327 C824.362004,115.354046 824.253608,115.287804 824.15375,115.209886 C822.0278,113.928649 819.461622,113.137318 816.463281,113.06631 C799.888794,112.673385 785.119811,119.835157 776.95235,132.224099 Z" id="Combined-Shape"></path>
        </g>
    </g>
</svg>