<?xml version="1.0" encoding="UTF-8"?>
<svg width="16px" height="16px" viewBox="0 0 16 16" version="1.1" xmlns="http://www.w3.org/2000/svg" xmlns:xlink="http://www.w3.org/1999/xlink">
    <!-- Generator: Sketch 52.2 (67145) - http://www.bohemiancoding.com/sketch -->
    <title>instagram</title>
    <desc>Created with Sketch.</desc>
    <g id="Wait" stroke="none" stroke-width="1" fill="none" fill-rule="evenodd">
        <g id="black" transform="translate(-203.000000, -754.000000)" fill="#C7C7C7" fill-rule="nonzero">
            <g id="instagram" transform="translate(203.000000, 754.000000)">
                <path d="M11.3522813,0 C13.9150313,0 16,2.08496875 16,4.64775 L16,11.3522813 C16,13.9150313 13.9150313,16 11.35225,16 L4.64775,16 C2.08496875,16 0,13.9150313 0,11.35225 L0,4.64775 C0,2.08496875 2.08496875,0 4.64775,0 L11.3522813,0 Z M14.75,11.35225 L14.75,4.64775 C14.75,2.77421875 13.2257813,1.25 11.35225,1.25 L4.64775,1.25 C2.77421875,1.25 1.25,2.77421875 1.25,4.64775 L1.25,11.3522813 C1.25,13.2257813 2.77421875,14.75 4.64775,14.75 L11.3522813,14.75 C13.2257813,14.75 14.75,13.2257813 14.75,11.35225 Z M8,3.6875 C10.3779375,3.6875 12.3125,5.6220625 12.3125,8 C12.3125,10.3779375 10.3779375,12.3125 8,12.3125 C5.6220625,12.3125 3.6875,10.3779375 3.6875,8 C3.6875,5.6220625 5.6220625,3.6875 8,3.6875 Z M8,11.0625 C9.68865625,11.0625 11.0625,9.68865625 11.0625,8 C11.0625,6.31134375 9.68865625,4.9375 8,4.9375 C6.31134375,4.9375 4.9375,6.31134375 4.9375,8 C4.9375,9.68865625 6.31134375,11.0625 8,11.0625 Z M12.375,4.25 C12.029822,4.25 11.75,3.97017797 11.75,3.625 C11.75,3.27982203 12.029822,3 12.375,3 C12.720178,3 13,3.27982203 13,3.625 C13,3.97017797 12.720178,4.25 12.375,4.25 Z" id="Combined-Shape"></path>
            </g>
        </g>
    </g>
</svg>