<?xml version="1.0" encoding="UTF-8"?>
<svg width="559px" height="575px" viewBox="0 0 559 575" version="1.1" xmlns="http://www.w3.org/2000/svg" xmlns:xlink="http://www.w3.org/1999/xlink">
    <title>logo_juliette</title>
    <g id="Home" stroke="none" stroke-width="1" fill="none" fill-rule="evenodd">
        <g id="Artboard" transform="translate(-762.000000, -417.000000)" fill-rule="nonzero">
            <g id="logo_juliette" transform="translate(767.000000, 417.000000)">
                <path d="M263.387429,348.534337 C264.323224,348.534337 265.188835,348.71368 265.99206,349.056772 C266.795284,349.407661 267.504929,349.883311 268.113196,350.475923 C268.721463,351.068536 269.197159,351.770315 269.532486,352.557866 C269.867813,353.353215 270.039375,354.187551 270.039375,355.068673 C270.039375,356.004378 269.891207,356.807524 269.594872,357.48591 C269.298537,358.156498 268.885227,358.749111 268.37054,359.255951 C267.848054,359.762791 267.255384,360.20725 266.576932,360.581532 C265.89848,360.955814 265.188835,361.314501 264.440199,361.649795 C265.344801,362.608892 266.194815,363.497811 266.966847,364.29316 C267.746676,365.096306 268.627884,365.993023 269.610469,366.975513 C270.078366,365.805882 270.437088,364.838988 270.678835,364.059234 C270.928381,363.27948 271.045355,362.632285 271.045355,362.117647 C271.045355,361.548427 270.460483,361.25212 269.290739,361.22093 L269.251747,358.764706 C270.811406,358.764706 271.895369,359.045417 272.519233,359.60684 C273.143097,360.160465 273.455028,360.948016 273.455028,361.961696 C273.455028,362.874008 273.275668,363.903283 272.924744,365.057319 C272.573821,366.211354 272.098125,367.49015 271.505455,368.893707 C272.644006,370.063338 273.844943,371.279754 275.084872,372.550752 C276.332599,373.821751 277.494545,375.030369 278.586307,376.16881 L276.808295,377.876471 L270.312315,371.303146 C270.210938,371.560465 270.078366,371.825581 269.922401,372.0829 C269.610469,372.706703 269.251747,373.346101 268.830639,374.008892 C268.41733,374.671683 267.902642,375.272093 267.294375,375.817921 C266.686108,376.363748 265.94527,376.808208 265.079659,377.159097 C264.214048,377.509986 263.176875,377.681532 261.983736,377.681532 C260.689219,377.681532 259.519474,377.439808 258.482301,376.964159 C257.445128,376.480711 256.56392,375.864706 255.838679,375.09275 C255.113438,374.328591 254.55196,373.455267 254.162045,372.464979 C253.772131,371.48249 253.577173,370.484405 253.577173,369.470725 C253.577173,368.37907 253.779929,367.380985 254.177642,366.476471 C254.583153,365.571956 255.097841,364.753215 255.737301,364.028044 C256.376761,363.302873 257.078608,362.67907 257.858438,362.156635 C258.638267,361.6342 259.4025,361.197538 260.151136,360.831053 C260.049759,360.698495 259.948381,360.581532 259.862599,360.480164 C259.76902,360.378796 259.659844,360.261833 259.535071,360.129275 L259.574063,360.129275 C258.770838,359.294938 258.139176,358.49959 257.686875,357.735431 C257.234574,356.971272 257.008423,356.004378 257.008423,354.834747 C257.008423,353.977018 257.172188,353.173871 257.491918,352.425308 C257.811648,351.676744 258.271747,351.006156 258.856619,350.421341 C259.441491,349.836525 260.112145,349.376471 260.876378,349.041176 C261.640611,348.705882 262.475028,348.534337 263.387429,348.534337 Z M296.935696,349.017784 L297.013679,359.754993 C297.894886,358.741313 299.010043,357.891382 300.359148,357.189603 C301.708253,356.487825 303.314702,356.136936 305.186293,356.136936 C306.84733,356.136936 308.344602,356.433242 309.678111,357.033653 C311.011619,357.634063 312.15017,358.429412 313.085966,359.427497 C314.021761,360.425581 314.739205,361.579617 315.246094,362.874008 C315.745185,364.160602 315.99473,365.501778 315.99473,366.905335 C315.99473,368.285499 315.745185,369.626676 315.253892,370.936662 C314.762599,372.246648 314.045156,373.416279 313.117159,374.437756 C312.181364,375.467031 311.050611,376.285773 309.709304,376.909576 C308.375795,377.533379 306.870724,377.84528 305.217486,377.84528 C304.180313,377.84528 303.221122,377.821888 302.339915,377.7829 C301.458707,377.743912 300.593097,377.650342 299.750881,377.494391 C298.908665,377.33844 298.058651,377.112312 297.200838,376.816005 C296.343026,376.519699 295.438423,376.10643 294.479233,375.591792 L294.479233,349.017784 L296.935696,349.017784 Z M162.376108,356.136936 C163.748608,356.136936 165.074318,356.370862 166.34544,356.854309 C167.616563,357.329959 168.747315,358.02394 169.729901,358.912859 C170.712486,359.809576 171.51571,360.901231 172.123977,362.180027 C172.732244,363.466621 173.075369,364.901368 173.153352,366.476471 L173.114361,367.724077 L154.047528,367.724077 C154.148906,369.049658 154.492031,370.188098 155.076903,371.147196 C155.661776,372.106293 156.355824,372.893844 157.159048,373.502052 C157.962273,374.11026 158.827884,374.570315 159.748082,374.866621 C160.668281,375.162927 161.54169,375.311081 162.376108,375.311081 C164.037145,375.311081 165.542216,374.874419 166.891321,374.008892 C168.240426,373.143365 169.300994,371.887962 170.080824,370.258276 L172.763438,370.258276 C172.217557,371.529275 171.5625,372.628728 170.798267,373.564432 C170.034034,374.500137 169.191818,375.272093 168.271619,375.880301 C167.35142,376.488509 166.384432,376.948564 165.370653,377.24487 C164.356875,377.541176 163.350895,377.68933 162.337116,377.68933 C160.777457,377.68933 159.342571,377.408618 158.016861,376.854993 C156.691151,376.301368 155.552599,375.537209 154.593409,374.578112 C153.634219,373.619015 152.877784,372.480575 152.339702,371.170588 C151.793821,369.860602 151.520881,368.457045 151.520881,366.95212 C151.520881,365.392613 151.801619,363.965663 152.355298,362.655677 C152.908977,361.345691 153.681009,360.20725 154.647997,359.232558 C155.622784,358.257866 156.769134,357.501505 158.094844,356.955677 C159.420554,356.40985 160.839844,356.136936 162.376108,356.136936 Z M329.852301,356.136936 C331.224801,356.136936 332.550511,356.370862 333.821634,356.854309 C335.092756,357.329959 336.223509,358.02394 337.206094,358.912859 C338.188679,359.809576 338.991903,360.901231 339.60017,362.180027 C340.208437,363.466621 340.551562,364.901368 340.629545,366.476471 L340.590554,367.724077 L321.523722,367.724077 C321.625099,369.049658 321.968224,370.188098 322.553097,371.147196 C323.137969,372.106293 323.832017,372.893844 324.635241,373.502052 C325.438466,374.11026 326.304077,374.570315 327.224276,374.866621 C328.144474,375.162927 329.017884,375.311081 329.852301,375.311081 C331.513338,375.311081 333.018409,374.874419 334.367514,374.008892 C335.716619,373.143365 336.777187,371.887962 337.557017,370.258276 L340.239631,370.258276 C339.69375,371.529275 339.038693,372.628728 338.27446,373.564432 C337.510227,374.500137 336.668011,375.272093 335.747812,375.880301 C334.827614,376.488509 333.860625,376.948564 332.846847,377.24487 C331.833068,377.541176 330.827088,377.68933 329.81331,377.68933 C328.253651,377.68933 326.818764,377.408618 325.493054,376.854993 C324.167344,376.301368 323.028793,375.537209 322.069602,374.578112 C321.110412,373.619015 320.361776,372.480575 319.815895,371.170588 C319.270014,369.860602 318.997074,368.457045 318.997074,366.95212 C318.997074,365.392613 319.277812,363.965663 319.831491,362.655677 C320.38517,361.345691 321.157202,360.20725 322.12419,359.232558 C323.098977,358.257866 324.245327,357.501505 325.571037,356.955677 C326.896747,356.40985 328.316037,356.136936 329.852301,356.136936 Z M472.771662,356.136936 C474.144162,356.136936 475.469872,356.370862 476.740994,356.854309 C478.012116,357.329959 479.142869,358.02394 480.125455,358.912859 C481.10804,359.809576 481.911264,360.901231 482.519531,362.180027 C483.127798,363.466621 483.470923,364.901368 483.548906,366.476471 L483.509915,367.724077 L464.443082,367.724077 C464.54446,369.049658 464.887585,370.188098 465.472457,371.147196 C466.05733,372.106293 466.751378,372.893844 467.554602,373.502052 C468.357827,374.11026 469.223437,374.570315 470.143636,374.866621 C471.063835,375.162927 471.937244,375.311081 472.771662,375.311081 C474.432699,375.311081 475.93777,374.874419 477.286875,374.008892 C478.63598,373.143365 479.696548,371.887962 480.476378,370.258276 L483.158991,370.258276 C482.613111,371.529275 481.958054,372.628728 481.193821,373.564432 C480.429588,374.500137 479.587372,375.272093 478.667173,375.880301 C477.746974,376.488509 476.779986,376.948564 475.766207,377.24487 C474.752429,377.541176 473.746449,377.68933 472.73267,377.68933 C471.173011,377.68933 469.738125,377.408618 468.412415,376.854993 C467.086705,376.301368 465.948153,375.537209 464.988963,374.578112 C464.029773,373.619015 463.273338,372.480575 462.735256,371.170588 C462.189375,369.860602 461.916435,368.457045 461.916435,366.95212 C461.916435,365.392613 462.197173,363.965663 462.750852,362.655677 C463.304531,361.345691 464.076563,360.20725 465.043551,359.232558 C466.018338,358.257866 467.164688,357.501505 468.490398,356.955677 C469.816108,356.40985 471.235398,356.136936 472.771662,356.136936 Z M206.132344,356.136936 C207.426861,356.136936 208.588807,356.316279 209.594787,356.682763 C210.608565,357.049248 211.396193,357.407934 211.965469,357.774419 L211.965469,360.65171 C210.982884,360.027907 210.015895,359.521067 209.064503,359.115595 C208.120909,358.710123 207.15392,358.515185 206.163537,358.515185 C205.048381,358.515185 203.987812,358.710123 202.974034,359.1 C201.960256,359.489877 201.063452,360.0513 200.29142,360.776471 C199.511591,361.501642 198.895526,362.382763 198.443224,363.419836 C197.990923,364.456908 197.764773,365.626539 197.764773,366.92093 C197.764773,368.168536 197.990923,369.299179 198.443224,370.328454 C198.895526,371.357729 199.495994,372.238851 200.252429,372.971819 C201.001065,373.712585 201.890071,374.289603 202.896051,374.702873 C203.90983,375.116142 204.985994,375.326676 206.124545,375.326676 C207.317685,375.326676 208.261278,375.178523 208.963125,374.882216 C209.664972,374.58591 210.234247,374.305198 210.670952,374.04788 C210.72554,374.024487 210.787926,373.969904 210.865909,373.891929 C210.943892,373.813953 211.068665,373.69699 211.232429,373.525445 C211.403991,373.353899 211.63794,373.12777 211.949872,372.847059 L211.949872,376.16881 L211.981065,376.16881 C211.177841,376.613269 210.288835,376.971956 209.314048,377.260465 C208.339261,377.548974 207.286491,377.68933 206.140142,377.68933 C204.666264,377.68933 203.262571,377.432011 201.936861,376.909576 C200.611151,376.387141 199.464801,375.654172 198.490014,374.71067 C197.515227,373.759371 196.743196,372.628728 196.17392,371.303146 C195.604645,369.977565 195.316108,368.511628 195.316108,366.905335 C195.316108,365.40041 195.589048,363.996854 196.134929,362.686867 C196.68081,361.376881 197.429446,360.23844 198.388636,359.263748 C199.347827,358.289056 200.486378,357.524897 201.812088,356.971272 C203.137798,356.417647 204.572685,356.136936 206.132344,356.136936 Z M108.248139,356.136936 C109.620639,356.136936 110.946349,356.370862 112.217472,356.854309 C113.488594,357.329959 114.619347,358.02394 115.601932,358.912859 C116.584517,359.809576 117.387741,360.901231 117.996009,362.180027 C118.604276,363.466621 118.947401,364.901368 119.025384,366.476471 L118.986392,367.724077 L99.9195597,367.724077 C100.020938,369.049658 100.364063,370.188098 100.948935,371.147196 C101.533807,372.106293 102.227855,372.893844 103.03108,373.502052 C103.834304,374.11026 104.699915,374.570315 105.620114,374.866621 C106.540312,375.162927 107.413722,375.311081 108.248139,375.311081 C109.909176,375.311081 111.414247,374.874419 112.763352,374.008892 C114.112457,373.143365 115.173026,371.887962 115.952855,370.258276 L118.635469,370.258276 C118.089588,371.529275 117.434531,372.628728 116.670298,373.564432 C115.906065,374.500137 115.063849,375.272093 114.143651,375.880301 C113.223452,376.488509 112.256463,376.948564 111.242685,377.24487 C110.228906,377.541176 109.222926,377.68933 108.209148,377.68933 C106.649489,377.68933 105.214602,377.408618 103.888892,376.854993 C102.563182,376.301368 101.424631,375.537209 100.46544,374.578112 C99.50625,373.619015 98.7498153,372.480575 98.211733,371.170588 C97.6658523,369.860602 97.3929119,368.457045 97.3929119,366.95212 C97.3929119,365.392613 97.6736506,363.965663 98.2273295,362.655677 C98.7810085,361.345691 99.5530398,360.20725 100.520028,359.232558 C101.494815,358.257866 102.641165,357.501505 103.966875,356.955677 C105.292585,356.40985 106.711875,356.136936 108.248139,356.136936 Z M378.568253,356.136936 C379.940753,356.136936 381.266463,356.370862 382.537585,356.854309 C383.808707,357.329959 384.93946,358.02394 385.922045,358.912859 C386.904631,359.809576 387.707855,360.901231 388.316122,362.180027 C388.924389,363.466621 389.267514,364.901368 389.345497,366.476471 L389.306506,367.724077 L370.239673,367.724077 C370.341051,369.049658 370.684176,370.188098 371.269048,371.147196 C371.85392,372.106293 372.547969,372.893844 373.351193,373.502052 C374.154418,374.11026 375.020028,374.570315 375.940227,374.866621 C376.860426,375.162927 377.733835,375.311081 378.568253,375.311081 C380.22929,375.311081 381.734361,374.874419 383.083466,374.008892 C384.432571,373.143365 385.493139,371.887962 386.272969,370.258276 L388.955582,370.258276 C388.409702,371.529275 387.754645,372.628728 386.990412,373.564432 C386.226179,374.500137 385.383963,375.272093 384.463764,375.880301 C383.543565,376.488509 382.576577,376.948564 381.562798,377.24487 C380.54902,377.541176 379.54304,377.68933 378.529261,377.68933 C376.969602,377.68933 375.534716,377.408618 374.209006,376.854993 C372.883295,376.301368 371.744744,375.537209 370.785554,374.578112 C369.826364,373.619015 369.069929,372.480575 368.531847,371.170588 C367.985966,369.860602 367.713026,368.457045 367.713026,366.95212 C367.713026,365.392613 367.993764,363.965663 368.547443,362.655677 C369.101122,361.345691 369.873153,360.20725 370.840142,359.232558 C371.814929,358.257866 372.961278,357.501505 374.286989,356.955677 C375.612699,356.40985 377.031989,356.136936 378.568253,356.136936 Z M435.924716,356.136936 C437.297216,356.136936 438.622926,356.370862 439.894048,356.854309 C441.16517,357.329959 442.295923,358.02394 443.278509,358.912859 C444.261094,359.809576 445.064318,360.901231 445.672585,362.180027 C446.280852,363.466621 446.623977,364.901368 446.70196,366.476471 L446.662969,367.724077 L427.596136,367.724077 C427.697514,369.049658 428.040639,370.188098 428.625511,371.147196 C429.210384,372.106293 429.904432,372.893844 430.707656,373.502052 C431.510881,374.11026 432.376491,374.570315 433.29669,374.866621 C434.216889,375.162927 435.090298,375.311081 435.924716,375.311081 C437.585753,375.311081 439.090824,374.874419 440.439929,374.008892 C441.789034,373.143365 442.849602,371.887962 443.629432,370.258276 L446.312045,370.258276 C445.766165,371.529275 445.111108,372.628728 444.346875,373.564432 C443.582642,374.500137 442.740426,375.272093 441.820227,375.880301 C440.900028,376.488509 439.93304,376.948564 438.919261,377.24487 C437.905483,377.541176 436.899503,377.68933 435.885724,377.68933 C434.326065,377.68933 432.891179,377.408618 431.565469,376.854993 C430.239759,376.301368 429.101207,375.537209 428.142017,374.578112 C427.182827,373.619015 426.426392,372.480575 425.88831,371.170588 C425.342429,369.860602 425.069489,368.457045 425.069489,366.95212 C425.069489,365.392613 425.350227,363.965663 425.903906,362.655677 C426.457585,361.345691 427.229616,360.20725 428.196605,359.232558 C429.171392,358.257866 430.317741,357.501505 431.643452,356.955677 C432.969162,356.40985 434.388452,356.136936 435.924716,356.136936 Z M415.407401,356.129138 C416.210625,356.129138 416.96706,356.261696 417.661108,356.53461 C418.362955,356.807524 418.971222,357.236389 419.485909,357.813406 C420.008395,358.398222 420.421705,359.138988 420.733636,360.035705 C421.045568,360.932421 421.201534,362.016279 421.201534,363.287278 L418.752869,363.287278 C418.752869,361.649795 418.417543,360.448974 417.739091,359.66922 C417.060639,358.889466 416.288608,358.49959 415.399602,358.49959 C414.229858,358.49959 413.364247,358.827086 412.794972,359.474282 C412.225696,360.121477 411.937159,360.901231 411.937159,361.805746 C411.991747,362.74145 412.319276,363.435431 412.927543,363.887688 C413.53581,364.339945 414.424815,364.73762 415.59456,365.072914 C416.265213,365.252257 416.959261,365.462791 417.65331,365.696717 C418.355156,365.930643 418.994616,366.265937 419.579489,366.710397 C420.164361,367.154856 420.655653,367.731874 421.061165,368.44145 C421.466676,369.158824 421.692827,370.078933 421.739616,371.225171 L421.739616,371.537073 L421.755213,371.537073 C421.755213,372.387004 421.591449,373.19015 421.271719,373.930917 C420.94419,374.671683 420.499687,375.318878 419.930412,375.872503 C419.361136,376.433926 418.682685,376.870588 417.910653,377.198085 C417.130824,377.525581 416.304205,377.681532 415.422997,377.681532 C414.565185,377.681532 413.746364,377.541176 412.950937,377.252668 C412.16331,376.964159 411.453665,376.558687 410.829801,376.028454 C410.205938,375.498222 409.714645,374.843228 409.348125,374.07907 C408.989403,373.314911 408.802244,372.464979 408.802244,371.529275 L408.802244,370.43762 L411.250909,370.43762 C411.250909,371.997127 411.648622,373.197948 412.43625,374.040082 C413.223878,374.882216 414.22206,375.303283 415.415199,375.303283 C416.608338,375.303283 417.551932,374.921204 418.253778,374.157045 C418.955625,373.392886 419.306548,372.503967 419.306548,371.490287 L419.306548,371.373324 C419.25196,370.281669 418.88544,369.447332 418.19919,368.862517 C417.51294,368.277702 416.522557,367.802052 415.220241,367.443365 C414.440412,367.264022 413.707372,367.037893 413.021122,366.764979 C412.334872,366.492066 411.726605,366.141176 411.188523,365.712312 C410.658239,365.283447 410.244929,364.753215 409.940795,364.121614 C409.64446,363.482216 409.496293,362.71026 409.496293,361.805746 C409.496293,361.025992 409.628864,360.285226 409.886207,359.591245 C410.143551,358.889466 410.525668,358.289056 411.032557,357.782216 C411.539446,357.275376 412.155511,356.877702 412.880753,356.573598 C413.605994,356.277291 414.44821,356.129138 415.407401,356.129138 Z M236.732855,356.121341 L236.732855,377.205882 L234.28419,377.205882 L234.245199,374.102462 C233.262614,375.272093 232.077273,376.161012 230.704773,376.76922 C229.332273,377.377428 227.772614,377.681532 226.033594,377.681532 C224.349162,377.681532 222.836293,377.377428 221.502784,376.76922 C220.169276,376.161012 219.030724,375.357866 218.094929,374.359781 C217.159134,373.361696 216.449489,372.207661 215.958196,370.913269 C215.466903,369.618878 215.217358,368.285499 215.217358,366.905335 C215.217358,365.478386 215.466903,364.121614 215.973793,362.819425 C216.480682,361.525034 217.198125,360.378796 218.13392,359.396306 C219.069716,358.406019 220.200469,357.618468 221.541776,357.018057 C222.875284,356.425445 224.372557,356.121341 226.033594,356.121341 L236.732855,356.121341 Z M129.06179,356.129138 C129.865014,356.129138 130.621449,356.261696 131.315497,356.53461 C132.017344,356.807524 132.625611,357.236389 133.140298,357.813406 C133.662784,358.398222 134.076094,359.138988 134.388026,360.035705 C134.699957,360.932421 134.855923,362.016279 134.855923,363.287278 L132.407259,363.287278 C132.407259,361.649795 132.071932,360.448974 131.39348,359.66922 C130.715028,358.889466 129.942997,358.49959 129.053991,358.49959 C127.884247,358.49959 127.018636,358.827086 126.449361,359.474282 C125.880085,360.121477 125.591548,360.901231 125.591548,361.805746 C125.646136,362.74145 125.973665,363.435431 126.581932,363.887688 C127.190199,364.339945 128.079205,364.73762 129.248949,365.072914 C129.919602,365.252257 130.613651,365.462791 131.307699,365.696717 C132.009545,365.930643 132.649006,366.265937 133.233878,366.710397 C133.81875,367.154856 134.310043,367.731874 134.715554,368.44145 C135.121065,369.158824 135.347216,370.078933 135.394006,371.225171 L135.394006,371.537073 L135.409602,371.537073 C135.409602,372.387004 135.245838,373.19015 134.926108,373.930917 C134.59858,374.671683 134.154077,375.318878 133.584801,375.872503 C133.015526,376.433926 132.337074,376.870588 131.565043,377.198085 C130.785213,377.525581 129.958594,377.681532 129.077386,377.681532 C128.219574,377.681532 127.400753,377.541176 126.605327,377.252668 C125.817699,376.964159 125.108054,376.558687 124.48419,376.028454 C123.860327,375.498222 123.369034,374.843228 123.002514,374.07907 C122.643793,373.314911 122.456634,372.464979 122.456634,371.529275 L122.456634,370.43762 L124.905298,370.43762 C124.905298,371.997127 125.303011,373.197948 126.090639,374.040082 C126.878267,374.882216 127.876449,375.303283 129.069588,375.303283 C130.262727,375.303283 131.206321,374.921204 131.908168,374.157045 C132.610014,373.392886 132.960938,372.503967 132.960938,371.490287 L132.960938,371.373324 C132.906349,370.281669 132.53983,369.447332 131.85358,368.862517 C131.16733,368.277702 130.176946,367.802052 128.874631,367.443365 C128.094801,367.264022 127.361761,367.037893 126.675511,366.764979 C125.989261,366.492066 125.380994,366.141176 124.842912,365.712312 C124.312628,365.283447 123.899318,364.753215 123.595185,364.121614 C123.298849,363.482216 123.150682,362.71026 123.150682,361.805746 C123.150682,361.025992 123.283253,360.285226 123.540597,359.591245 C123.79794,358.889466 124.180057,358.289056 124.686946,357.782216 C125.193835,357.275376 125.809901,356.877702 126.535142,356.573598 C127.260384,356.277291 128.102599,356.129138 129.06179,356.129138 Z M399.374105,356.129138 C400.17733,356.129138 400.933764,356.261696 401.627812,356.53461 C402.329659,356.807524 402.937926,357.236389 403.452614,357.813406 C403.975099,358.398222 404.388409,359.138988 404.700341,360.035705 C405.012273,360.932421 405.168239,362.016279 405.168239,363.287278 L402.719574,363.287278 C402.719574,361.649795 402.384247,360.448974 401.705795,359.66922 C401.027344,358.889466 400.255312,358.49959 399.366307,358.49959 C398.196562,358.49959 397.330952,358.827086 396.761676,359.474282 C396.192401,360.121477 395.903864,360.901231 395.903864,361.805746 C395.958452,362.74145 396.28598,363.435431 396.894247,363.887688 C397.502514,364.339945 398.39152,364.73762 399.561264,365.072914 C400.231918,365.252257 400.925966,365.462791 401.620014,365.696717 C402.321861,365.930643 402.961321,366.265937 403.546193,366.710397 C404.131065,367.154856 404.622358,367.731874 405.027869,368.44145 C405.433381,369.158824 405.659531,370.078933 405.706321,371.225171 L405.706321,371.537073 L405.721918,371.537073 C405.721918,372.387004 405.558153,373.19015 405.238423,373.930917 C404.910895,374.671683 404.466392,375.318878 403.897116,375.872503 C403.327841,376.433926 402.649389,376.870588 401.877358,377.198085 C401.097528,377.525581 400.270909,377.681532 399.389702,377.681532 C398.531889,377.681532 397.713068,377.541176 396.917642,377.252668 C396.130014,376.964159 395.420369,376.558687 394.796506,376.028454 C394.172642,375.498222 393.681349,374.843228 393.31483,374.07907 C392.956108,373.314911 392.768949,372.464979 392.768949,371.529275 L392.768949,370.43762 L395.217614,370.43762 C395.217614,371.997127 395.615327,373.197948 396.402955,374.040082 C397.190582,374.882216 398.188764,375.303283 399.381903,375.303283 C400.575043,375.303283 401.518636,374.921204 402.220483,374.157045 C402.92233,373.392886 403.273253,372.503967 403.273253,371.490287 L403.273253,371.373324 C403.218665,370.281669 402.852145,369.447332 402.165895,368.862517 C401.479645,368.277702 400.489261,367.802052 399.186946,367.443365 C398.407116,367.264022 397.674077,367.037893 396.987827,366.764979 C396.301577,366.492066 395.69331,366.141176 395.155227,365.712312 C394.624943,365.283447 394.211634,364.753215 393.9075,364.121614 C393.611165,363.482216 393.462997,362.71026 393.462997,361.805746 C393.462997,361.025992 393.595568,360.285226 393.852912,359.591245 C394.110256,358.889466 394.492372,358.289056 394.999261,357.782216 C395.506151,357.275376 396.122216,356.877702 396.847457,356.573598 C397.572699,356.277291 398.414915,356.129138 399.374105,356.129138 Z M192.064219,356.59699 L192.064219,377.221477 L189.607756,377.221477 L189.607756,356.59699 L192.064219,356.59699 Z M354.081605,356.136936 C354.448125,356.136936 354.877031,356.152531 355.38392,356.191518 C355.89081,356.230506 356.428892,356.324077 356.998168,356.464432 C357.567443,356.604788 358.167912,356.815321 358.791776,357.088235 C359.415639,357.361149 360.039503,357.743228 360.663366,358.234473 C362.714318,359.973324 363.735895,362.686867 363.735895,366.367305 L363.735895,377.221477 L361.248239,377.221477 L361.248239,366.359508 C361.248239,364.8 361.06108,363.529001 360.686761,362.530917 C360.312443,361.532832 359.797756,360.729685 359.150497,360.137073 C358.705994,359.747196 358.105526,359.380711 357.341293,359.029822 C356.57706,358.678933 355.532088,358.507387 354.206378,358.507387 L347.164517,358.546375 L347.164517,377.221477 L344.708054,377.221477 L344.669062,356.136936 L354.081605,356.136936 Z M144.354247,349.009986 L144.354247,356.59699 L149.298366,356.59699 L149.298366,358.967442 L144.354247,358.967442 L144.354247,377.21368 L141.905582,377.21368 L141.905582,358.967442 L137.66331,358.967442 L137.66331,356.59699 L141.905582,356.59699 L141.905582,349.009986 L144.354247,349.009986 Z M459.818693,356.051163 L459.818693,358.538577 L453.041974,358.538577 L453.041974,377.21368 L450.59331,377.21368 L450.632301,356.168126 L451.579444,356.16776 C453.72725,356.166055 455.43995,356.158379 456.72277,356.144733 C458.188849,356.136936 459.218224,356.097948 459.818693,356.051163 Z M182.44892,349.009986 L182.44892,356.59699 L187.39304,356.59699 L187.39304,358.967442 L182.44892,358.967442 L182.44892,377.21368 L180.000256,377.21368 L180.000256,358.967442 L175.757983,358.967442 L175.757983,356.59699 L180.000256,356.59699 L180.000256,349.009986 L182.44892,349.009986 Z M305.178494,358.507387 C304.00875,358.507387 302.90919,358.717921 301.872017,359.146785 C300.834844,359.57565 299.930241,360.160465 299.166009,360.893434 C298.401776,361.6342 297.809105,362.523119 297.395795,363.560192 C296.982486,364.597264 296.795327,365.712312 296.849915,366.905335 L296.927898,374.258413 C298.378381,374.726265 299.688494,375.06156 300.858239,375.272093 C302.027983,375.482627 303.104148,375.583995 304.086733,375.583995 C305.927131,375.583995 307.455597,375.279891 308.679929,374.671683 C309.896463,374.063475 310.863452,373.314911 311.580895,372.433789 C312.298338,371.552668 312.797429,370.601368 313.101562,369.595486 C313.397898,368.581806 313.546065,367.685089 313.546065,366.905335 C313.546065,365.657729 313.327713,364.527086 312.88321,363.505609 C312.438707,362.476334 311.838239,361.595212 311.074006,360.862244 C310.309773,360.121477 309.420767,359.54446 308.406989,359.13119 C307.39321,358.717921 306.317045,358.507387 305.178494,358.507387 Z M226.033594,358.49959 C224.895043,358.49959 223.81108,358.710123 222.781705,359.123393 C221.75233,359.536662 220.871122,360.11368 220.114687,360.854446 C219.358253,361.595212 218.765582,362.476334 218.32108,363.497811 C217.876577,364.519289 217.658224,365.657729 217.658224,366.897538 C217.658224,367.887825 217.829787,368.878112 218.18071,369.876197 C218.531634,370.874282 219.054119,371.778796 219.755966,372.581943 C220.457812,373.385089 221.33902,374.040082 222.399588,374.546922 C223.460156,375.053762 224.707884,375.303283 226.134972,375.303283 C227.382699,375.303283 228.505653,375.077155 229.503835,374.624897 C230.502017,374.17264 231.367628,373.57223 232.092869,372.815869 C232.794716,372.11409 233.348395,371.232969 233.769503,370.172503 C234.095515,369.262791 234.266734,366.259896 234.275995,361.16382 L234.276392,358.507387 L226.033594,358.507387 L226.033594,358.49959 Z M262.022727,362.74145 C260.806193,363.31067 259.808011,363.879891 259.043778,364.456908 C258.279545,365.026129 257.679077,365.595349 257.25017,366.148974 C256.821264,366.710397 256.524929,367.264022 256.353366,367.825445 C256.181804,368.386867 256.103821,368.94829 256.103821,369.51751 C256.103821,370.242681 256.236392,370.952257 256.509332,371.63844 C256.782273,372.324624 257.179986,372.932832 257.694673,373.463064 C258.217159,373.993297 258.833224,374.422161 259.558466,374.749658 C260.283707,375.077155 261.118125,375.240903 262.046122,375.240903 C263.262656,375.240903 264.307628,374.936799 265.181037,374.328591 C266.046648,373.720383 266.888864,372.597538 267.692088,370.960055 L268.432926,369.36156 L262.022727,362.74145 Z M108.404105,358.491792 C107.335739,358.491792 106.337557,358.663338 105.386165,359.022025 C104.434773,359.372914 103.592557,359.848564 102.859517,360.456772 C102.118679,361.064979 101.494815,361.79015 100.987926,362.616689 C100.481037,363.443228 100.153509,364.35554 99.9975426,365.33803 L116.457912,365.337337 L116.401623,364.989106 C116.246388,364.163648 115.95383,363.386696 115.523949,362.663475 C115.032656,361.829138 114.416591,361.103967 113.675753,360.480164 C112.934915,359.856361 112.116094,359.372914 111.203693,359.022025 C110.291293,358.671135 109.363295,358.491792 108.404105,358.491792 Z M162.532074,358.491792 C161.463707,358.491792 160.465526,358.663338 159.514134,359.022025 C158.562741,359.372914 157.720526,359.848564 156.987486,360.456772 C156.246648,361.064979 155.622784,361.79015 155.115895,362.616689 C154.609006,363.443228 154.281477,364.35554 154.125511,365.33803 L170.585912,365.337337 L170.529591,364.989106 C170.374357,364.163648 170.081799,363.386696 169.651918,362.663475 C169.160625,361.829138 168.54456,361.103967 167.803722,360.480164 C167.062884,359.856361 166.244063,359.372914 165.331662,359.022025 C164.419261,358.671135 163.491264,358.491792 162.532074,358.491792 Z M330.000469,358.491792 C328.932102,358.491792 327.93392,358.663338 326.982528,359.022025 C326.031136,359.372914 325.18892,359.848564 324.455881,360.456772 C323.715043,361.064979 323.091179,361.79015 322.58429,362.616689 C322.077401,363.443228 321.749872,364.35554 321.593906,365.33803 L338.054912,365.337337 L337.997986,364.989106 C337.842751,364.163648 337.550194,363.386696 337.120312,362.663475 C336.62902,361.829138 336.012955,361.103967 335.272116,360.480164 C334.531278,359.856361 333.712457,359.372914 332.800057,359.022025 C331.887656,358.671135 330.959659,358.491792 330.000469,358.491792 Z M378.71642,358.491792 C377.648054,358.491792 376.649872,358.663338 375.69848,359.022025 C374.747088,359.372914 373.904872,359.848564 373.171832,360.456772 C372.430994,361.064979 371.807131,361.79015 371.300241,362.616689 C370.793352,363.443228 370.465824,364.35554 370.309858,365.33803 L386.770912,365.337337 L386.713938,364.989106 C386.558703,364.163648 386.266145,363.386696 385.836264,362.663475 C385.344972,361.829138 384.728906,361.103967 383.988068,360.480164 C383.24723,359.856361 382.428409,359.372914 381.516009,359.022025 C380.603608,358.671135 379.675611,358.491792 378.71642,358.491792 Z M436.072884,358.491792 C435.004517,358.491792 434.006335,358.663338 433.054943,359.022025 C432.103551,359.372914 431.261335,359.848564 430.528295,360.456772 C429.787457,361.064979 429.163594,361.79015 428.656705,362.616689 C428.149815,363.443228 427.822287,364.35554 427.666321,365.33803 L444.126912,365.337337 L444.070401,364.989106 C443.915166,364.163648 443.622608,363.386696 443.192727,362.663475 C442.701435,361.829138 442.085369,361.103967 441.344531,360.480164 C440.603693,359.856361 439.784872,359.372914 438.872472,359.022025 C437.960071,358.671135 437.032074,358.491792 436.072884,358.491792 Z M472.927628,358.491792 C471.859261,358.491792 470.86108,358.663338 469.909687,359.022025 C468.958295,359.372914 468.11608,359.848564 467.38304,360.456772 C466.642202,361.064979 466.018338,361.79015 465.511449,362.616689 C465.00456,363.443228 464.677031,364.35554 464.521065,365.33803 L480.981912,365.337337 L480.925145,364.989106 C480.769911,364.163648 480.477353,363.386696 480.047472,362.663475 C479.556179,361.829138 478.940114,361.103967 478.199276,360.480164 C477.458437,359.856361 476.639616,359.372914 475.727216,359.022025 C474.814815,358.671135 473.886818,358.491792 472.927628,358.491792 Z M263.418622,350.990561 C262.771364,350.990561 262.202088,351.115321 261.726392,351.357045 C261.250696,351.598769 260.845185,351.91067 260.517656,352.269357 C260.190128,352.635841 259.948381,353.041313 259.776818,353.49357 C259.605256,353.945828 259.527273,354.38249 259.527273,354.795759 C259.527273,355.544323 259.706634,356.199316 260.073153,356.760739 C260.439673,357.322161 260.798395,357.805609 261.164915,358.218878 L261.203906,358.218878 C261.492443,358.53078 261.73419,358.788098 261.944744,358.998632 C262.155298,359.201368 262.397045,359.466484 262.685582,359.778386 C263.488807,359.411902 264.198452,359.06881 264.806719,358.749111 C265.414986,358.429412 265.921875,358.08632 266.319588,357.735431 C266.725099,357.384542 267.021435,356.994665 267.216392,356.5658 C267.411349,356.144733 267.512727,355.630096 267.512727,355.037483 C267.512727,354.515048 267.411349,354.016005 267.216392,353.516963 C267.021435,353.025718 266.740696,352.589056 266.381974,352.214774 C266.015455,351.840492 265.594347,351.536389 265.095256,351.318057 C264.603963,351.099726 264.042486,350.990561 263.418622,350.990561 Z M192.064219,349.009986 L192.064219,353.758687 L189.607756,353.758687 L189.607756,349.009986 L192.064219,349.009986 Z" id="Combined-Shape" fill="#FFFFFF"></path>
                <path d="M225.214773,187.827086 C226.025795,187.827086 226.439105,188.435294 226.439105,189.254036 C226.439105,189.659508 226.236349,189.862244 225.830838,190.064979 C214.219176,196.989193 195.479872,215.118468 184.881989,227.337209 C173.172352,240.940085 164.496466,254.304574 156.065165,267.579886 L154.57926,269.921693 L154.57926,269.921693 L153.095027,272.26183 C148.888849,278.890027 144.661784,285.500318 140.065185,292.111354 C144.75196,290.684405 149.23598,289.05472 154.125511,287.830506 C154.733778,287.62777 155.552599,288.033242 155.755355,288.64145 C155.958111,289.249658 155.552599,290.068399 154.944332,290.271135 C149.033224,291.900821 143.33267,293.530506 137.834872,295.362927 C115.835881,325.91368 77.1329403,363.193707 58.9941051,363.193707 C54.7128409,363.193707 51.047642,359.528865 51.047642,355.248016 C51.047642,343.029275 75.9008097,319.808208 113.589972,302.489877 L128.461321,283.339124 C115.625327,280.898495 107.678864,271.120383 107.678864,259.299316 C107.678864,230.580985 142.919361,215.711081 185.903565,202.470862 C198.123494,198.806019 211.162244,193.308755 224.40375,188.00643 C224.910639,187.856977 224.854318,187.832068 225.056135,187.827916 L225.214773,187.827086 L225.214773,187.827086 Z M110.314687,306.575787 C74.668679,323.894118 53.4807102,345.688235 53.4807102,355.263611 C53.4807102,358.320246 55.9215767,360.760876 58.9785085,360.760876 C71.4089915,360.760876 87.9101847,335.504651 110.314687,306.575787 Z M312.789631,205.145417 C315.643807,205.145417 318.084673,207.383311 318.084673,210.237209 C318.084673,227.758276 273.065114,258.714501 257.991009,268.289877 C254.306314,272.963721 250.086665,278.424855 245.889551,283.979708 L244.957456,285.215381 C233.937424,299.849089 223.358778,314.775599 223.358778,317.383174 C223.366577,319.207798 224.590909,320.229275 226.626264,320.229275 C234.742886,320.229275 250.99846,305.075643 263.393915,292.700588 L264.28308,291.811096 C266.149678,289.940173 267.919185,288.144378 269.548652,286.487897 C269.565845,286.464992 269.584254,286.442065 269.60267,286.419152 L294.455838,256.476607 L309.732699,256.476607 L270.210937,303.940219 C269.189361,305.367168 261.858963,314.739808 261.858963,317.383174 C261.858963,319.215595 263.083295,320.237073 265.118651,320.237073 C271.475041,320.237073 282.562736,310.943402 292.79214,300.968766 L293.733792,300.046348 C294.203236,299.584422 294.670486,299.12161 295.134992,298.65876 L296.060181,297.733256 C300.359135,293.416338 304.387123,289.145171 307.697344,285.608208 L308.144986,285.608122 C322.019861,267.939412 348.222465,255.244596 356.179347,255.244596 C359.236278,255.244596 362.29321,257.685226 362.29321,261.15513 C362.29321,271.744186 337.237287,290.894938 318.903494,291.30041 C312.181364,300.470315 307.291832,309.024213 307.291832,313.913269 C307.291832,317.983584 309.943253,320.229275 315.441051,320.229275 C324.774441,320.229275 335.889122,308.661739 348.181451,295.868347 L349.1173,294.894508 C350.993488,292.942786 352.896496,290.968821 354.824207,289.008858 L355.790111,288.030211 C356.444663,287.369437 357.101999,286.710954 357.762037,286.056164 L379.605426,258.714501 L365.350142,258.714501 L367.182741,256.273871 L381.64858,256.273871 L406.096236,225.723119 L419.946009,225.723119 L395.498352,256.273871 L417.902855,256.273871 L442.350511,225.723119 L456.200284,225.723119 L431.752628,256.273871 L449.680909,256.273871 L447.84831,258.714501 L429.717273,258.714501 L405.472372,289.062517 C403.226463,291.916416 386.319759,312.080848 386.319759,317.375376 C386.319759,319.207798 387.544091,320.229275 389.579446,320.229275 C397.323153,320.229275 420.546477,298.637893 430.933807,285.60041 L431.184973,285.600128 C445.061472,267.935583 471.257372,255.244596 479.213054,255.244596 C482.269986,255.244596 485.326918,257.685226 485.326918,261.15513 C485.326918,271.744186 460.270994,290.894938 441.937202,291.30041 C435.215071,300.470315 430.32554,309.024213 430.32554,313.913269 C430.32554,317.983584 432.97696,320.229275 438.474759,320.229275 C449.580311,320.229275 463.207814,303.851973 478.340355,288.51918 L479.308296,287.542077 C479.95494,286.891845 480.60427,286.244175 481.256207,285.60041 L484.718651,285.60041 C474.534077,295.378523 453.143352,322.669904 438.474759,322.669904 C427.268608,322.669904 422.379077,316.151163 422.379077,307.597264 C422.379077,303.759057 423.233672,299.992955 424.737478,296.350827 C414.24773,307.576696 398.032755,323.221966 388.565668,323.084087 C383.270625,323.005198 380.619205,319.621067 380.619205,313.507798 C380.619205,310.103734 382.216184,305.279515 384.550658,300.470733 C374.258478,311.04421 360.655283,323.205722 352.303594,323.084087 C347.008551,323.005198 344.357131,319.621067 344.357131,313.507798 C344.357131,309.718668 346.335843,304.169918 349.107873,298.841504 C338.544115,310.006487 325.433022,322.669904 315.441051,322.669904 C304.234901,322.669904 299.345369,316.151163 299.345369,307.597264 C299.345369,303.310559 300.411354,299.113795 302.257199,295.07923 C291.362127,306.478008 274.262628,323.083174 264.923693,323.083174 C260.642429,323.083174 255.752898,320.432011 255.752898,314.326539 C255.752898,310.206704 257.98906,304.427853 261.387136,298.448459 C250.209186,309.483372 234.867371,323.083174 226.41571,323.083174 C222.142244,323.083174 217.244915,320.432011 217.244915,314.326539 C217.244915,310.480401 219.635136,304.43239 223.685462,297.108731 C212.720904,308.484808 196.911111,323.083174 188.944901,323.083174 C184.663636,323.083174 179.774105,320.432011 179.774105,314.326539 C179.774105,312.088646 180.382372,309.437483 181.606705,306.380848 C174.065753,314.326539 165.713778,321.453488 159.404957,321.453488 C155.123693,321.453488 150.234162,318.810123 150.234162,312.696854 C150.234162,305.77264 152.472273,300.478112 160.013224,290.902736 L187.315057,256.476607 L202.591918,256.476607 L164.7,302.310534 C163.475668,303.737483 156.348026,313.110123 156.348026,315.753488 C156.348026,317.58591 157.572358,318.607387 159.607713,318.607387 C164.490802,318.607387 173.955884,310.125406 182.613222,300.401272 L183.29492,299.631129 C184.881174,297.828722 186.435206,295.990629 187.923324,294.162107 L218.890355,256.46881 L234.167216,256.46881 L194.239943,303.932421 C193.015611,305.359371 185.887969,314.732011 185.887969,317.375376 C185.887969,319.207798 187.112301,320.229275 189.147656,320.229275 C198.926719,320.229275 219.911932,297.616416 230.704773,285.60041 L231.623842,284.215096 C253.977357,250.762135 296.214822,205.145417 312.789631,205.145417 Z M415.8675,258.714501 L393.462997,258.714501 L369.218097,289.062517 C368.075232,290.519827 363.105476,296.490884 358.515147,302.690873 L357.943636,303.466754 C353.771513,309.160746 350.065483,314.897086 350.065483,317.375376 C350.065483,319.207798 351.289815,320.229275 353.32517,320.229275 C358.281143,320.229275 369.577567,311.385445 379.791674,301.60019 L380.745849,300.680305 C384.251459,297.2794 387.599958,293.795476 390.484555,290.55515 C390.862358,290.039104 391.24246,289.540606 391.622599,289.062517 L415.8675,258.714501 Z M356.592656,257.895759 C351.703125,257.895759 333.572088,272.157456 321.75767,287.432832 C340.496974,286.005882 358.2225,265.435978 358.2225,259.930917 C358.2225,258.917237 357.614233,257.895759 356.592656,257.895759 Z M479.626364,257.895759 C474.736832,257.895759 456.605795,272.157456 444.791378,287.432832 C463.530682,286.005882 481.256207,265.435978 481.256207,259.930917 C481.256207,258.917237 480.640142,257.895759 479.626364,257.895759 Z M215.43571,194.345828 C205.453892,198.213406 196.080341,201.886047 186.714588,204.732148 C142.506051,218.175103 114.595952,241.598906 114.595952,262.784815 C114.595952,270.52777 118.877216,279.081669 130.278324,281.116826 C152.285114,253.209439 180.600724,219.602052 215.43571,194.345828 Z M312.399716,207.991518 C303.439474,207.991518 275.529375,244.250068 263.917713,261.357866 C283.670795,247.509439 314.840582,218.791108 314.840582,210.229412 C314.840582,208.802462 313.819006,207.991518 312.399716,207.991518 Z M325.430668,222.042681 C328.690355,222.042681 331.950043,224.077839 331.950043,227.337209 C331.942244,232.436799 327.871534,236.70985 322.779247,236.70985 C319.316804,236.70985 315.651605,234.877428 315.651605,231.415321 C315.651605,226.120793 320.135625,222.042681 325.430668,222.042681 Z" id="Combined-Shape" fill="#FFFFFF"></path>
                <path d="M350.99348,212.241176 C346.532855,212.155404 342.953437,208.506156 343.054815,204.139535 C343.140597,200.248564 346.860384,196.443365 350.393011,196.607114 C354.728864,196.817647 358.698196,200.724213 358.643608,204.716553 C358.581222,208.623119 354.822443,212.319152 350.99348,212.241176 M396.028636,203.367579 C391.57581,203.445554 387.918409,199.936662 387.863821,195.531053 C387.809233,191.413953 391.295071,187.686731 395.147429,187.725718 C399.381903,187.772503 403.015923,191.601094 403.015923,196.030096 C403.023707,199.97565 399.857599,203.297401 396.028636,203.367579 M398.274545,133.641997 C394.624943,133.548427 391.076719,129.704241 391.178097,125.93803 C391.295071,121.493434 394.975866,117.937756 399.327315,118.062517 C403.054901,118.163885 406.509545,122.109439 406.384773,126.117373 C406.252202,130.429412 402.672784,133.75896 398.274545,133.641997 M420.164361,208.919425 C416.070256,209.012996 412.701392,205.691245 412.623409,201.49617 C412.545426,196.880027 415.45419,193.761012 419.930412,193.659644 C423.860753,193.573871 427.689716,197.145144 427.798892,200.98933 C427.923665,205.441724 424.671776,208.825855 420.164361,208.919425 M432.087955,173.386047 C428.929645,173.261286 424.492415,169.222161 424.812145,165.120657 C425.139673,160.925581 428.118622,157.775376 432.392088,157.806566 C436.416009,157.837756 440.120199,161.588372 440.081207,165.588509 C440.034418,169.814774 436.260043,173.549795 432.087955,173.386047 M438.155028,97.001368 C438.295398,92.9388509 441.796832,89.6326949 445.844148,89.7418605 C450.164403,89.8588235 453.439687,93.5392613 453.307116,98.1320109 C453.205739,101.656498 449.314389,105.539672 446.01571,105.399316 C441.297741,105.188782 437.991264,101.664295 438.155028,97.001368 M450.257983,145.868536 C445.812955,145.759371 442.506477,142.172503 442.607855,137.571956 C442.685838,133.766758 446.374432,130.05513 450.000639,130.11751 C453.728224,130.179891 458.181051,134.343776 458.165495,137.7513 C458.157656,142.305062 454.578239,145.977702 450.257983,145.868536 M454.586037,15.3690745 C450.218991,15.3923393 447.052884,12.2031464 447.006094,7.72735978 C446.967102,3.40752394 450.047429,0.397674419 454.2975,0.0935704514 C458.259034,-0.187140903 461.768267,3.69603283 462.049006,8.10943912 C462.290753,11.8288646 458.570966,15.345554 454.586037,15.3690745 M469.862898,68.4623919 C466.072926,68.4701778 462.16598,64.555814 462.056804,60.6492476 C461.955426,56.8908345 465.971548,52.7347469 469.636747,52.8049248 C473.645071,52.8829001 477.481832,56.7192886 477.552017,60.7194254 C477.63,64.7585499 473.949205,68.4545828 469.862898,68.4623919 M481.880071,110.647059 C481.763097,106.600137 485.256733,102.872914 489.397628,102.63119 C492.766491,102.428454 496.79821,106.787278 496.946378,110.787415 C497.102344,115.060465 493.897244,118.226265 489.280653,118.343228 C485.420497,118.436799 482.004844,114.888919 481.880071,110.647059 M493.281179,163.412996 C489.405426,163.155677 485.319119,160.122435 485.662244,155.381532 C485.59206,150.936936 488.383849,147.911491 492.501349,147.763338 C496.642244,147.615185 500.206065,150.461286 500.712955,155.864979 C501.024886,159.171135 496.618849,163.631327 493.281179,163.412996 M503.364375,53.8887825 C499.012926,53.7484268 495.238551,49.7794802 495.308736,45.4050616 C495.363324,41.7090287 499.262472,37.9506156 503.122628,37.8804378 C506.741037,37.8102599 510.788352,42.2470588 510.757159,46.2549932 C510.733764,49.8028728 506.670852,53.9901505 503.364375,53.8887825 M529.184531,171.771956 C525.410156,171.709576 521.690369,167.639261 521.744957,163.631327 C521.807344,159.288098 524.98125,156.028728 529.137741,156.051995 C532.873125,156.067715 536.881449,160.418741 536.795668,164.356498 C536.702088,168.528181 533.302031,171.842134 529.184531,171.771956 M530.128125,128.667168 C526.018423,128.604788 522.688551,125.080301 522.696336,120.783858 C522.711946,116.097538 526.236776,112.315732 530.268494,112.939535 C534.230028,112.994118 537.942017,116.799316 537.879631,120.737073 C537.817244,125.189466 534.347003,128.737346 530.128125,128.667168" id="Shape" fill="#FFFFFF"></path>
                <path d="M548.797244,295.822982 C548.797244,447.141997 426.11446,569.812859 274.780739,569.812859 C123.447017,569.812859 0.764232955,447.141997 0.764232955,295.822982 C0.764232955,144.503967 123.447017,21.8409029 274.780739,21.8409029 C426.11446,21.8409029 548.797244,144.503967 548.797244,295.822982" id="Path" stroke="#FFFFFF" stroke-width="10"></path>
            </g>
        </g>
    </g>
</svg>