<?xml version="1.0" encoding="UTF-8"?>
<svg width="461px" height="191px" viewBox="0 0 461 191" version="1.1" xmlns="http://www.w3.org/2000/svg" xmlns:xlink="http://www.w3.org/1999/xlink">
    <title>Group</title>
    <g id="Home" stroke="none" stroke-width="1" fill="none" fill-rule="evenodd">
        <g id="Artboard" transform="translate(-133.000000, -1230.000000)">
            <g id="Group" transform="translate(133.000000, 1230.000000)">
                <g id="logo_juliette" fill="#212121" fill-rule="nonzero">
                    <path d="M212.387429,161.534337 C213.323224,161.534337 214.188835,161.71368 214.99206,162.056772 C215.795284,162.407661 216.504929,162.883311 217.113196,163.475923 C217.721463,164.068536 218.197159,164.770315 218.532486,165.557866 C218.867813,166.353215 219.039375,167.187551 219.039375,168.068673 C219.039375,169.004378 218.891207,169.807524 218.594872,170.48591 C218.298537,171.156498 217.885227,171.749111 217.37054,172.255951 C216.848054,172.762791 216.255384,173.20725 215.576932,173.581532 C214.89848,173.955814 214.188835,174.314501 213.440199,174.649795 C214.344801,175.608892 215.194815,176.497811 215.966847,177.29316 C216.746676,178.096306 217.627884,178.993023 218.610469,179.975513 C219.078366,178.805882 219.437088,177.838988 219.678835,177.059234 C219.928381,176.27948 220.045355,175.632285 220.045355,175.117647 C220.045355,174.548427 219.460483,174.25212 218.290739,174.22093 L218.251747,171.764706 C219.811406,171.764706 220.895369,172.045417 221.519233,172.60684 C222.143097,173.160465 222.455028,173.948016 222.455028,174.961696 C222.455028,175.874008 222.275668,176.903283 221.924744,178.057319 C221.573821,179.211354 221.098125,180.49015 220.505455,181.893707 C221.644006,183.063338 222.844943,184.279754 224.084872,185.550752 C225.332599,186.821751 226.494545,188.030369 227.586307,189.16881 L225.808295,190.876471 L219.312315,184.303146 C219.210938,184.560465 219.078366,184.825581 218.922401,185.0829 C218.610469,185.706703 218.251747,186.346101 217.830639,187.008892 C217.41733,187.671683 216.902642,188.272093 216.294375,188.817921 C215.686108,189.363748 214.94527,189.808208 214.079659,190.159097 C213.214048,190.509986 212.176875,190.681532 210.983736,190.681532 C209.689219,190.681532 208.519474,190.439808 207.482301,189.964159 C206.445128,189.480711 205.56392,188.864706 204.838679,188.09275 C204.113438,187.328591 203.55196,186.455267 203.162045,185.464979 C202.772131,184.48249 202.577173,183.484405 202.577173,182.470725 C202.577173,181.37907 202.779929,180.380985 203.177642,179.476471 C203.583153,178.571956 204.097841,177.753215 204.737301,177.028044 C205.376761,176.302873 206.078608,175.67907 206.858438,175.156635 C207.638267,174.6342 208.4025,174.197538 209.151136,173.831053 C209.049759,173.698495 208.948381,173.581532 208.862599,173.480164 C208.76902,173.378796 208.659844,173.261833 208.535071,173.129275 L208.574063,173.129275 C207.770838,172.294938 207.139176,171.49959 206.686875,170.735431 C206.234574,169.971272 206.008423,169.004378 206.008423,167.834747 C206.008423,166.977018 206.172188,166.173871 206.491918,165.425308 C206.811648,164.676744 207.271747,164.006156 207.856619,163.421341 C208.441491,162.836525 209.112145,162.376471 209.876378,162.041176 C210.640611,161.705882 211.475028,161.534337 212.387429,161.534337 Z M245.935696,162.017784 L246.013679,172.754993 C246.894886,171.741313 248.010043,170.891382 249.359148,170.189603 C250.708253,169.487825 252.314702,169.136936 254.186293,169.136936 C255.84733,169.136936 257.344602,169.433242 258.678111,170.033653 C260.011619,170.634063 261.15017,171.429412 262.085966,172.427497 C263.021761,173.425581 263.739205,174.579617 264.246094,175.874008 C264.745185,177.160602 264.99473,178.501778 264.99473,179.905335 C264.99473,181.285499 264.745185,182.626676 264.253892,183.936662 C263.762599,185.246648 263.045156,186.416279 262.117159,187.437756 C261.181364,188.467031 260.050611,189.285773 258.709304,189.909576 C257.375795,190.533379 255.870724,190.84528 254.217486,190.84528 C253.180313,190.84528 252.221122,190.821888 251.339915,190.7829 C250.458707,190.743912 249.593097,190.650342 248.750881,190.494391 C247.908665,190.33844 247.058651,190.112312 246.200838,189.816005 C245.343026,189.519699 244.438423,189.10643 243.479233,188.591792 L243.479233,162.017784 L245.935696,162.017784 Z M111.376108,169.136936 C112.748608,169.136936 114.074318,169.370862 115.34544,169.854309 C116.616563,170.329959 117.747315,171.02394 118.729901,171.912859 C119.712486,172.809576 120.51571,173.901231 121.123977,175.180027 C121.732244,176.466621 122.075369,177.901368 122.153352,179.476471 L122.114361,180.724077 L103.047528,180.724077 C103.148906,182.049658 103.492031,183.188098 104.076903,184.147196 C104.661776,185.106293 105.355824,185.893844 106.159048,186.502052 C106.962273,187.11026 107.827884,187.570315 108.748082,187.866621 C109.668281,188.162927 110.54169,188.311081 111.376108,188.311081 C113.037145,188.311081 114.542216,187.874419 115.891321,187.008892 C117.240426,186.143365 118.300994,184.887962 119.080824,183.258276 L121.763438,183.258276 C121.217557,184.529275 120.5625,185.628728 119.798267,186.564432 C119.034034,187.500137 118.191818,188.272093 117.271619,188.880301 C116.35142,189.488509 115.384432,189.948564 114.370653,190.24487 C113.356875,190.541176 112.350895,190.68933 111.337116,190.68933 C109.777457,190.68933 108.342571,190.408618 107.016861,189.854993 C105.691151,189.301368 104.552599,188.537209 103.593409,187.578112 C102.634219,186.619015 101.877784,185.480575 101.339702,184.170588 C100.793821,182.860602 100.520881,181.457045 100.520881,179.95212 C100.520881,178.392613 100.801619,176.965663 101.355298,175.655677 C101.908977,174.345691 102.681009,173.20725 103.647997,172.232558 C104.622784,171.257866 105.769134,170.501505 107.094844,169.955677 C108.420554,169.40985 109.839844,169.136936 111.376108,169.136936 Z M278.852301,169.136936 C280.224801,169.136936 281.550511,169.370862 282.821634,169.854309 C284.092756,170.329959 285.223509,171.02394 286.206094,171.912859 C287.188679,172.809576 287.991903,173.901231 288.60017,175.180027 C289.208437,176.466621 289.551562,177.901368 289.629545,179.476471 L289.590554,180.724077 L270.523722,180.724077 C270.625099,182.049658 270.968224,183.188098 271.553097,184.147196 C272.137969,185.106293 272.832017,185.893844 273.635241,186.502052 C274.438466,187.11026 275.304077,187.570315 276.224276,187.866621 C277.144474,188.162927 278.017884,188.311081 278.852301,188.311081 C280.513338,188.311081 282.018409,187.874419 283.367514,187.008892 C284.716619,186.143365 285.777187,184.887962 286.557017,183.258276 L289.239631,183.258276 C288.69375,184.529275 288.038693,185.628728 287.27446,186.564432 C286.510227,187.500137 285.668011,188.272093 284.747812,188.880301 C283.827614,189.488509 282.860625,189.948564 281.846847,190.24487 C280.833068,190.541176 279.827088,190.68933 278.81331,190.68933 C277.253651,190.68933 275.818764,190.408618 274.493054,189.854993 C273.167344,189.301368 272.028793,188.537209 271.069602,187.578112 C270.110412,186.619015 269.361776,185.480575 268.815895,184.170588 C268.270014,182.860602 267.997074,181.457045 267.997074,179.95212 C267.997074,178.392613 268.277812,176.965663 268.831491,175.655677 C269.38517,174.345691 270.157202,173.20725 271.12419,172.232558 C272.098977,171.257866 273.245327,170.501505 274.571037,169.955677 C275.896747,169.40985 277.316037,169.136936 278.852301,169.136936 Z M421.771662,169.136936 C423.144162,169.136936 424.469872,169.370862 425.740994,169.854309 C427.012116,170.329959 428.142869,171.02394 429.125455,171.912859 C430.10804,172.809576 430.911264,173.901231 431.519531,175.180027 C432.127798,176.466621 432.470923,177.901368 432.548906,179.476471 L432.509915,180.724077 L413.443082,180.724077 C413.54446,182.049658 413.887585,183.188098 414.472457,184.147196 C415.05733,185.106293 415.751378,185.893844 416.554602,186.502052 C417.357827,187.11026 418.223437,187.570315 419.143636,187.866621 C420.063835,188.162927 420.937244,188.311081 421.771662,188.311081 C423.432699,188.311081 424.93777,187.874419 426.286875,187.008892 C427.63598,186.143365 428.696548,184.887962 429.476378,183.258276 L432.158991,183.258276 C431.613111,184.529275 430.958054,185.628728 430.193821,186.564432 C429.429588,187.500137 428.587372,188.272093 427.667173,188.880301 C426.746974,189.488509 425.779986,189.948564 424.766207,190.24487 C423.752429,190.541176 422.746449,190.68933 421.73267,190.68933 C420.173011,190.68933 418.738125,190.408618 417.412415,189.854993 C416.086705,189.301368 414.948153,188.537209 413.988963,187.578112 C413.029773,186.619015 412.273338,185.480575 411.735256,184.170588 C411.189375,182.860602 410.916435,181.457045 410.916435,179.95212 C410.916435,178.392613 411.197173,176.965663 411.750852,175.655677 C412.304531,174.345691 413.076563,173.20725 414.043551,172.232558 C415.018338,171.257866 416.164688,170.501505 417.490398,169.955677 C418.816108,169.40985 420.235398,169.136936 421.771662,169.136936 Z M155.132344,169.136936 C156.426861,169.136936 157.588807,169.316279 158.594787,169.682763 C159.608565,170.049248 160.396193,170.407934 160.965469,170.774419 L160.965469,173.65171 C159.982884,173.027907 159.015895,172.521067 158.064503,172.115595 C157.120909,171.710123 156.15392,171.515185 155.163537,171.515185 C154.048381,171.515185 152.987812,171.710123 151.974034,172.1 C150.960256,172.489877 150.063452,173.0513 149.29142,173.776471 C148.511591,174.501642 147.895526,175.382763 147.443224,176.419836 C146.990923,177.456908 146.764773,178.626539 146.764773,179.92093 C146.764773,181.168536 146.990923,182.299179 147.443224,183.328454 C147.895526,184.357729 148.495994,185.238851 149.252429,185.971819 C150.001065,186.712585 150.890071,187.289603 151.896051,187.702873 C152.90983,188.116142 153.985994,188.326676 155.124545,188.326676 C156.317685,188.326676 157.261278,188.178523 157.963125,187.882216 C158.664972,187.58591 159.234247,187.305198 159.670952,187.04788 C159.72554,187.024487 159.787926,186.969904 159.865909,186.891929 C159.943892,186.813953 160.068665,186.69699 160.232429,186.525445 C160.403991,186.353899 160.63794,186.12777 160.949872,185.847059 L160.949872,189.16881 L160.981065,189.16881 C160.177841,189.613269 159.288835,189.971956 158.314048,190.260465 C157.339261,190.548974 156.286491,190.68933 155.140142,190.68933 C153.666264,190.68933 152.262571,190.432011 150.936861,189.909576 C149.611151,189.387141 148.464801,188.654172 147.490014,187.71067 C146.515227,186.759371 145.743196,185.628728 145.17392,184.303146 C144.604645,182.977565 144.316108,181.511628 144.316108,179.905335 C144.316108,178.40041 144.589048,176.996854 145.134929,175.686867 C145.68081,174.376881 146.429446,173.23844 147.388636,172.263748 C148.347827,171.289056 149.486378,170.524897 150.812088,169.971272 C152.137798,169.417647 153.572685,169.136936 155.132344,169.136936 Z M57.2481392,169.136936 C58.6206392,169.136936 59.9463494,169.370862 61.2174716,169.854309 C62.4885937,170.329959 63.6193466,171.02394 64.6019318,171.912859 C65.584517,172.809576 66.3877415,173.901231 66.9960085,175.180027 C67.6042756,176.466621 67.9474006,177.901368 68.0253835,179.476471 L67.986392,180.724077 L48.9195597,180.724077 C49.0209375,182.049658 49.3640625,183.188098 49.9489347,184.147196 C50.5338068,185.106293 51.2278551,185.893844 52.0310795,186.502052 C52.834304,187.11026 53.6999148,187.570315 54.6201136,187.866621 C55.5403125,188.162927 56.4137216,188.311081 57.2481392,188.311081 C58.9091761,188.311081 60.4142472,187.874419 61.7633523,187.008892 C63.1124574,186.143365 64.1730256,184.887962 64.9528551,183.258276 L67.6354687,183.258276 C67.0895881,184.529275 66.4345312,185.628728 65.6702983,186.564432 C64.9060653,187.500137 64.0638494,188.272093 63.1436506,188.880301 C62.2234517,189.488509 61.2564631,189.948564 60.2426847,190.24487 C59.2289062,190.541176 58.2229261,190.68933 57.2091477,190.68933 C55.6494886,190.68933 54.2146023,190.408618 52.888892,189.854993 C51.5631818,189.301368 50.4246307,188.537209 49.4654403,187.578112 C48.50625,186.619015 47.7498153,185.480575 47.211733,184.170588 C46.6658523,182.860602 46.3929119,181.457045 46.3929119,179.95212 C46.3929119,178.392613 46.6736506,176.965663 47.2273295,175.655677 C47.7810085,174.345691 48.5530398,173.20725 49.5200284,172.232558 C50.4948153,171.257866 51.6411648,170.501505 52.966875,169.955677 C54.2925852,169.40985 55.711875,169.136936 57.2481392,169.136936 Z M327.568253,169.136936 C328.940753,169.136936 330.266463,169.370862 331.537585,169.854309 C332.808707,170.329959 333.93946,171.02394 334.922045,171.912859 C335.904631,172.809576 336.707855,173.901231 337.316122,175.180027 C337.924389,176.466621 338.267514,177.901368 338.345497,179.476471 L338.306506,180.724077 L319.239673,180.724077 C319.341051,182.049658 319.684176,183.188098 320.269048,184.147196 C320.85392,185.106293 321.547969,185.893844 322.351193,186.502052 C323.154418,187.11026 324.020028,187.570315 324.940227,187.866621 C325.860426,188.162927 326.733835,188.311081 327.568253,188.311081 C329.22929,188.311081 330.734361,187.874419 332.083466,187.008892 C333.432571,186.143365 334.493139,184.887962 335.272969,183.258276 L337.955582,183.258276 C337.409702,184.529275 336.754645,185.628728 335.990412,186.564432 C335.226179,187.500137 334.383963,188.272093 333.463764,188.880301 C332.543565,189.488509 331.576577,189.948564 330.562798,190.24487 C329.54902,190.541176 328.54304,190.68933 327.529261,190.68933 C325.969602,190.68933 324.534716,190.408618 323.209006,189.854993 C321.883295,189.301368 320.744744,188.537209 319.785554,187.578112 C318.826364,186.619015 318.069929,185.480575 317.531847,184.170588 C316.985966,182.860602 316.713026,181.457045 316.713026,179.95212 C316.713026,178.392613 316.993764,176.965663 317.547443,175.655677 C318.101122,174.345691 318.873153,173.20725 319.840142,172.232558 C320.814929,171.257866 321.961278,170.501505 323.286989,169.955677 C324.612699,169.40985 326.031989,169.136936 327.568253,169.136936 Z M384.924716,169.136936 C386.297216,169.136936 387.622926,169.370862 388.894048,169.854309 C390.16517,170.329959 391.295923,171.02394 392.278509,171.912859 C393.261094,172.809576 394.064318,173.901231 394.672585,175.180027 C395.280852,176.466621 395.623977,177.901368 395.70196,179.476471 L395.662969,180.724077 L376.596136,180.724077 C376.697514,182.049658 377.040639,183.188098 377.625511,184.147196 C378.210384,185.106293 378.904432,185.893844 379.707656,186.502052 C380.510881,187.11026 381.376491,187.570315 382.29669,187.866621 C383.216889,188.162927 384.090298,188.311081 384.924716,188.311081 C386.585753,188.311081 388.090824,187.874419 389.439929,187.008892 C390.789034,186.143365 391.849602,184.887962 392.629432,183.258276 L395.312045,183.258276 C394.766165,184.529275 394.111108,185.628728 393.346875,186.564432 C392.582642,187.500137 391.740426,188.272093 390.820227,188.880301 C389.900028,189.488509 388.93304,189.948564 387.919261,190.24487 C386.905483,190.541176 385.899503,190.68933 384.885724,190.68933 C383.326065,190.68933 381.891179,190.408618 380.565469,189.854993 C379.239759,189.301368 378.101207,188.537209 377.142017,187.578112 C376.182827,186.619015 375.426392,185.480575 374.88831,184.170588 C374.342429,182.860602 374.069489,181.457045 374.069489,179.95212 C374.069489,178.392613 374.350227,176.965663 374.903906,175.655677 C375.457585,174.345691 376.229616,173.20725 377.196605,172.232558 C378.171392,171.257866 379.317741,170.501505 380.643452,169.955677 C381.969162,169.40985 383.388452,169.136936 384.924716,169.136936 Z M364.407401,169.129138 C365.210625,169.129138 365.96706,169.261696 366.661108,169.53461 C367.362955,169.807524 367.971222,170.236389 368.485909,170.813406 C369.008395,171.398222 369.421705,172.138988 369.733636,173.035705 C370.045568,173.932421 370.201534,175.016279 370.201534,176.287278 L367.752869,176.287278 C367.752869,174.649795 367.417543,173.448974 366.739091,172.66922 C366.060639,171.889466 365.288608,171.49959 364.399602,171.49959 C363.229858,171.49959 362.364247,171.827086 361.794972,172.474282 C361.225696,173.121477 360.937159,173.901231 360.937159,174.805746 C360.991747,175.74145 361.319276,176.435431 361.927543,176.887688 C362.53581,177.339945 363.424815,177.73762 364.59456,178.072914 C365.265213,178.252257 365.959261,178.462791 366.65331,178.696717 C367.355156,178.930643 367.994616,179.265937 368.579489,179.710397 C369.164361,180.154856 369.655653,180.731874 370.061165,181.44145 C370.466676,182.158824 370.692827,183.078933 370.739616,184.225171 L370.739616,184.537073 L370.755213,184.537073 C370.755213,185.387004 370.591449,186.19015 370.271719,186.930917 C369.94419,187.671683 369.499687,188.318878 368.930412,188.872503 C368.361136,189.433926 367.682685,189.870588 366.910653,190.198085 C366.130824,190.525581 365.304205,190.681532 364.422997,190.681532 C363.565185,190.681532 362.746364,190.541176 361.950937,190.252668 C361.16331,189.964159 360.453665,189.558687 359.829801,189.028454 C359.205938,188.498222 358.714645,187.843228 358.348125,187.07907 C357.989403,186.314911 357.802244,185.464979 357.802244,184.529275 L357.802244,183.43762 L360.250909,183.43762 C360.250909,184.997127 360.648622,186.197948 361.43625,187.040082 C362.223878,187.882216 363.22206,188.303283 364.415199,188.303283 C365.608338,188.303283 366.551932,187.921204 367.253778,187.157045 C367.955625,186.392886 368.306548,185.503967 368.306548,184.490287 L368.306548,184.373324 C368.25196,183.281669 367.88544,182.447332 367.19919,181.862517 C366.51294,181.277702 365.522557,180.802052 364.220241,180.443365 C363.440412,180.264022 362.707372,180.037893 362.021122,179.764979 C361.334872,179.492066 360.726605,179.141176 360.188523,178.712312 C359.658239,178.283447 359.244929,177.753215 358.940795,177.121614 C358.64446,176.482216 358.496293,175.71026 358.496293,174.805746 C358.496293,174.025992 358.628864,173.285226 358.886207,172.591245 C359.143551,171.889466 359.525668,171.289056 360.032557,170.782216 C360.539446,170.275376 361.155511,169.877702 361.880753,169.573598 C362.605994,169.277291 363.44821,169.129138 364.407401,169.129138 Z M185.732855,169.121341 L185.732855,190.205882 L183.28419,190.205882 L183.245199,187.102462 C182.262614,188.272093 181.077273,189.161012 179.704773,189.76922 C178.332273,190.377428 176.772614,190.681532 175.033594,190.681532 C173.349162,190.681532 171.836293,190.377428 170.502784,189.76922 C169.169276,189.161012 168.030724,188.357866 167.094929,187.359781 C166.159134,186.361696 165.449489,185.207661 164.958196,183.913269 C164.466903,182.618878 164.217358,181.285499 164.217358,179.905335 C164.217358,178.478386 164.466903,177.121614 164.973793,175.819425 C165.480682,174.525034 166.198125,173.378796 167.13392,172.396306 C168.069716,171.406019 169.200469,170.618468 170.541776,170.018057 C171.875284,169.425445 173.372557,169.121341 175.033594,169.121341 L185.732855,169.121341 Z M78.0617898,169.129138 C78.8650142,169.129138 79.6214489,169.261696 80.3154972,169.53461 C81.0173438,169.807524 81.6256108,170.236389 82.1402983,170.813406 C82.6627841,171.398222 83.0760938,172.138988 83.3880256,173.035705 C83.6999574,173.932421 83.8559233,175.016279 83.8559233,176.287278 L81.4072585,176.287278 C81.4072585,174.649795 81.0719318,173.448974 80.3934801,172.66922 C79.7150284,171.889466 78.9429972,171.49959 78.0539915,171.49959 C76.8842472,171.49959 76.0186364,171.827086 75.4493608,172.474282 C74.8800852,173.121477 74.5915483,173.901231 74.5915483,174.805746 C74.6461364,175.74145 74.9736648,176.435431 75.5819318,176.887688 C76.1901989,177.339945 77.0792045,177.73762 78.2489489,178.072914 C78.9196023,178.252257 79.6136506,178.462791 80.3076989,178.696717 C81.0095455,178.930643 81.6490057,179.265937 82.2338778,179.710397 C82.81875,180.154856 83.3100426,180.731874 83.715554,181.44145 C84.1210653,182.158824 84.3472159,183.078933 84.3940057,184.225171 L84.3940057,184.537073 L84.4096023,184.537073 C84.4096023,185.387004 84.2458381,186.19015 83.926108,186.930917 C83.5985795,187.671683 83.1540767,188.318878 82.5848011,188.872503 C82.0155256,189.433926 81.3370739,189.870588 80.5650426,190.198085 C79.7852131,190.525581 78.9585938,190.681532 78.0773864,190.681532 C77.2195739,190.681532 76.4007528,190.541176 75.6053267,190.252668 C74.8176989,189.964159 74.108054,189.558687 73.4841903,189.028454 C72.8603267,188.498222 72.3690341,187.843228 72.0025142,187.07907 C71.6437926,186.314911 71.4566335,185.464979 71.4566335,184.529275 L71.4566335,183.43762 L73.9052983,183.43762 C73.9052983,184.997127 74.3030114,186.197948 75.0906392,187.040082 C75.878267,187.882216 76.8764489,188.303283 78.0695881,188.303283 C79.2627273,188.303283 80.206321,187.921204 80.9081676,187.157045 C81.6100142,186.392886 81.9609375,185.503967 81.9609375,184.490287 L81.9609375,184.373324 C81.9063494,183.281669 81.5398295,182.447332 80.8535795,181.862517 C80.1673295,181.277702 79.176946,180.802052 77.8746307,180.443365 C77.0948011,180.264022 76.3617614,180.037893 75.6755114,179.764979 C74.9892614,179.492066 74.3809943,179.141176 73.8429119,178.712312 C73.3126278,178.283447 72.8993182,177.753215 72.5951847,177.121614 C72.2988494,176.482216 72.1506818,175.71026 72.1506818,174.805746 C72.1506818,174.025992 72.2832528,173.285226 72.5405966,172.591245 C72.7979403,171.889466 73.1800568,171.289056 73.686946,170.782216 C74.1938352,170.275376 74.8099006,169.877702 75.535142,169.573598 C76.2603835,169.277291 77.1025994,169.129138 78.0617898,169.129138 Z M348.374105,169.129138 C349.17733,169.129138 349.933764,169.261696 350.627812,169.53461 C351.329659,169.807524 351.937926,170.236389 352.452614,170.813406 C352.975099,171.398222 353.388409,172.138988 353.700341,173.035705 C354.012273,173.932421 354.168239,175.016279 354.168239,176.287278 L351.719574,176.287278 C351.719574,174.649795 351.384247,173.448974 350.705795,172.66922 C350.027344,171.889466 349.255312,171.49959 348.366307,171.49959 C347.196562,171.49959 346.330952,171.827086 345.761676,172.474282 C345.192401,173.121477 344.903864,173.901231 344.903864,174.805746 C344.958452,175.74145 345.28598,176.435431 345.894247,176.887688 C346.502514,177.339945 347.39152,177.73762 348.561264,178.072914 C349.231918,178.252257 349.925966,178.462791 350.620014,178.696717 C351.321861,178.930643 351.961321,179.265937 352.546193,179.710397 C353.131065,180.154856 353.622358,180.731874 354.027869,181.44145 C354.433381,182.158824 354.659531,183.078933 354.706321,184.225171 L354.706321,184.537073 L354.721918,184.537073 C354.721918,185.387004 354.558153,186.19015 354.238423,186.930917 C353.910895,187.671683 353.466392,188.318878 352.897116,188.872503 C352.327841,189.433926 351.649389,189.870588 350.877358,190.198085 C350.097528,190.525581 349.270909,190.681532 348.389702,190.681532 C347.531889,190.681532 346.713068,190.541176 345.917642,190.252668 C345.130014,189.964159 344.420369,189.558687 343.796506,189.028454 C343.172642,188.498222 342.681349,187.843228 342.31483,187.07907 C341.956108,186.314911 341.768949,185.464979 341.768949,184.529275 L341.768949,183.43762 L344.217614,183.43762 C344.217614,184.997127 344.615327,186.197948 345.402955,187.040082 C346.190582,187.882216 347.188764,188.303283 348.381903,188.303283 C349.575043,188.303283 350.518636,187.921204 351.220483,187.157045 C351.92233,186.392886 352.273253,185.503967 352.273253,184.490287 L352.273253,184.373324 C352.218665,183.281669 351.852145,182.447332 351.165895,181.862517 C350.479645,181.277702 349.489261,180.802052 348.186946,180.443365 C347.407116,180.264022 346.674077,180.037893 345.987827,179.764979 C345.301577,179.492066 344.69331,179.141176 344.155227,178.712312 C343.624943,178.283447 343.211634,177.753215 342.9075,177.121614 C342.611165,176.482216 342.462997,175.71026 342.462997,174.805746 C342.462997,174.025992 342.595568,173.285226 342.852912,172.591245 C343.110256,171.889466 343.492372,171.289056 343.999261,170.782216 C344.506151,170.275376 345.122216,169.877702 345.847457,169.573598 C346.572699,169.277291 347.414915,169.129138 348.374105,169.129138 Z M141.064219,169.59699 L141.064219,190.221477 L138.607756,190.221477 L138.607756,169.59699 L141.064219,169.59699 Z M303.081605,169.136936 C303.448125,169.136936 303.877031,169.152531 304.38392,169.191518 C304.89081,169.230506 305.428892,169.324077 305.998168,169.464432 C306.567443,169.604788 307.167912,169.815321 307.791776,170.088235 C308.415639,170.361149 309.039503,170.743228 309.663366,171.234473 C311.714318,172.973324 312.735895,175.686867 312.735895,179.367305 L312.735895,190.221477 L310.248239,190.221477 L310.248239,179.359508 C310.248239,177.8 310.06108,176.529001 309.686761,175.530917 C309.312443,174.532832 308.797756,173.729685 308.150497,173.137073 C307.705994,172.747196 307.105526,172.380711 306.341293,172.029822 C305.57706,171.678933 304.532088,171.507387 303.206378,171.507387 L296.164517,171.546375 L296.164517,190.221477 L293.708054,190.221477 L293.669062,169.136936 L303.081605,169.136936 Z M93.3542472,162.009986 L93.3542472,169.59699 L98.2983665,169.59699 L98.2983665,171.967442 L93.3542472,171.967442 L93.3542472,190.21368 L90.9055824,190.21368 L90.9055824,171.967442 L86.6633097,171.967442 L86.6633097,169.59699 L90.9055824,169.59699 L90.9055824,162.009986 L93.3542472,162.009986 Z M408.818693,169.051163 L408.818693,171.538577 L402.041974,171.538577 L402.041974,190.21368 L399.59331,190.21368 L399.632301,169.168126 L400.579444,169.16776 C402.72725,169.166055 404.43995,169.158379 405.72277,169.144733 C407.188849,169.136936 408.218224,169.097948 408.818693,169.051163 Z M131.44892,162.009986 L131.44892,169.59699 L136.39304,169.59699 L136.39304,171.967442 L131.44892,171.967442 L131.44892,190.21368 L129.000256,190.21368 L129.000256,171.967442 L124.757983,171.967442 L124.757983,169.59699 L129.000256,169.59699 L129.000256,162.009986 L131.44892,162.009986 Z M254.178494,171.507387 C253.00875,171.507387 251.90919,171.717921 250.872017,172.146785 C249.834844,172.57565 248.930241,173.160465 248.166009,173.893434 C247.401776,174.6342 246.809105,175.523119 246.395795,176.560192 C245.982486,177.597264 245.795327,178.712312 245.849915,179.905335 L245.927898,187.258413 C247.378381,187.726265 248.688494,188.06156 249.858239,188.272093 C251.027983,188.482627 252.104148,188.583995 253.086733,188.583995 C254.927131,188.583995 256.455597,188.279891 257.679929,187.671683 C258.896463,187.063475 259.863452,186.314911 260.580895,185.433789 C261.298338,184.552668 261.797429,183.601368 262.101562,182.595486 C262.397898,181.581806 262.546065,180.685089 262.546065,179.905335 C262.546065,178.657729 262.327713,177.527086 261.88321,176.505609 C261.438707,175.476334 260.838239,174.595212 260.074006,173.862244 C259.309773,173.121477 258.420767,172.54446 257.406989,172.13119 C256.39321,171.717921 255.317045,171.507387 254.178494,171.507387 Z M175.033594,171.49959 C173.895043,171.49959 172.81108,171.710123 171.781705,172.123393 C170.75233,172.536662 169.871122,173.11368 169.114687,173.854446 C168.358253,174.595212 167.765582,175.476334 167.32108,176.497811 C166.876577,177.519289 166.658224,178.657729 166.658224,179.897538 C166.658224,180.887825 166.829787,181.878112 167.18071,182.876197 C167.531634,183.874282 168.054119,184.778796 168.755966,185.581943 C169.457812,186.385089 170.33902,187.040082 171.399588,187.546922 C172.460156,188.053762 173.707884,188.303283 175.134972,188.303283 C176.382699,188.303283 177.505653,188.077155 178.503835,187.624897 C179.502017,187.17264 180.367628,186.57223 181.092869,185.815869 C181.794716,185.11409 182.348395,184.232969 182.769503,183.172503 C183.095515,182.262791 183.266734,179.259896 183.275995,174.16382 L183.276392,171.507387 L175.033594,171.507387 L175.033594,171.49959 Z M211.022727,175.74145 C209.806193,176.31067 208.808011,176.879891 208.043778,177.456908 C207.279545,178.026129 206.679077,178.595349 206.25017,179.148974 C205.821264,179.710397 205.524929,180.264022 205.353366,180.825445 C205.181804,181.386867 205.103821,181.94829 205.103821,182.51751 C205.103821,183.242681 205.236392,183.952257 205.509332,184.63844 C205.782273,185.324624 206.179986,185.932832 206.694673,186.463064 C207.217159,186.993297 207.833224,187.422161 208.558466,187.749658 C209.283707,188.077155 210.118125,188.240903 211.046122,188.240903 C212.262656,188.240903 213.307628,187.936799 214.181037,187.328591 C215.046648,186.720383 215.888864,185.597538 216.692088,183.960055 L217.432926,182.36156 L211.022727,175.74145 Z M57.4041051,171.491792 C56.3357386,171.491792 55.3375568,171.663338 54.3861648,172.022025 C53.4347727,172.372914 52.5925568,172.848564 51.859517,173.456772 C51.118679,174.064979 50.4948153,174.79015 49.9879261,175.616689 C49.4810369,176.443228 49.1535085,177.35554 48.9975426,178.33803 L65.4579119,178.337337 L65.4016226,177.989106 C65.2463878,177.163648 64.9538299,176.386696 64.5239489,175.663475 C64.0326562,174.829138 63.4165909,174.103967 62.6757528,173.480164 C61.9349148,172.856361 61.1160937,172.372914 60.2036932,172.022025 C59.2912926,171.671135 58.3632955,171.491792 57.4041051,171.491792 Z M111.532074,171.491792 C110.463707,171.491792 109.465526,171.663338 108.514134,172.022025 C107.562741,172.372914 106.720526,172.848564 105.987486,173.456772 C105.246648,174.064979 104.622784,174.79015 104.115895,175.616689 C103.609006,176.443228 103.281477,177.35554 103.125511,178.33803 L119.585912,178.337337 L119.529591,177.989106 C119.374357,177.163648 119.081799,176.386696 118.651918,175.663475 C118.160625,174.829138 117.54456,174.103967 116.803722,173.480164 C116.062884,172.856361 115.244063,172.372914 114.331662,172.022025 C113.419261,171.671135 112.491264,171.491792 111.532074,171.491792 Z M279.000469,171.491792 C277.932102,171.491792 276.93392,171.663338 275.982528,172.022025 C275.031136,172.372914 274.18892,172.848564 273.455881,173.456772 C272.715043,174.064979 272.091179,174.79015 271.58429,175.616689 C271.077401,176.443228 270.749872,177.35554 270.593906,178.33803 L287.054912,178.337337 L286.997986,177.989106 C286.842751,177.163648 286.550194,176.386696 286.120312,175.663475 C285.62902,174.829138 285.012955,174.103967 284.272116,173.480164 C283.531278,172.856361 282.712457,172.372914 281.800057,172.022025 C280.887656,171.671135 279.959659,171.491792 279.000469,171.491792 Z M327.71642,171.491792 C326.648054,171.491792 325.649872,171.663338 324.69848,172.022025 C323.747088,172.372914 322.904872,172.848564 322.171832,173.456772 C321.430994,174.064979 320.807131,174.79015 320.300241,175.616689 C319.793352,176.443228 319.465824,177.35554 319.309858,178.33803 L335.770912,178.337337 L335.713938,177.989106 C335.558703,177.163648 335.266145,176.386696 334.836264,175.663475 C334.344972,174.829138 333.728906,174.103967 332.988068,173.480164 C332.24723,172.856361 331.428409,172.372914 330.516009,172.022025 C329.603608,171.671135 328.675611,171.491792 327.71642,171.491792 Z M385.072884,171.491792 C384.004517,171.491792 383.006335,171.663338 382.054943,172.022025 C381.103551,172.372914 380.261335,172.848564 379.528295,173.456772 C378.787457,174.064979 378.163594,174.79015 377.656705,175.616689 C377.149815,176.443228 376.822287,177.35554 376.666321,178.33803 L393.126912,178.337337 L393.070401,177.989106 C392.915166,177.163648 392.622608,176.386696 392.192727,175.663475 C391.701435,174.829138 391.085369,174.103967 390.344531,173.480164 C389.603693,172.856361 388.784872,172.372914 387.872472,172.022025 C386.960071,171.671135 386.032074,171.491792 385.072884,171.491792 Z M421.927628,171.491792 C420.859261,171.491792 419.86108,171.663338 418.909687,172.022025 C417.958295,172.372914 417.11608,172.848564 416.38304,173.456772 C415.642202,174.064979 415.018338,174.79015 414.511449,175.616689 C414.00456,176.443228 413.677031,177.35554 413.521065,178.33803 L429.981912,178.337337 L429.925145,177.989106 C429.769911,177.163648 429.477353,176.386696 429.047472,175.663475 C428.556179,174.829138 427.940114,174.103967 427.199276,173.480164 C426.458437,172.856361 425.639616,172.372914 424.727216,172.022025 C423.814815,171.671135 422.886818,171.491792 421.927628,171.491792 Z M212.418622,163.990561 C211.771364,163.990561 211.202088,164.115321 210.726392,164.357045 C210.250696,164.598769 209.845185,164.91067 209.517656,165.269357 C209.190128,165.635841 208.948381,166.041313 208.776818,166.49357 C208.605256,166.945828 208.527273,167.38249 208.527273,167.795759 C208.527273,168.544323 208.706634,169.199316 209.073153,169.760739 C209.439673,170.322161 209.798395,170.805609 210.164915,171.218878 L210.203906,171.218878 C210.492443,171.53078 210.73419,171.788098 210.944744,171.998632 C211.155298,172.201368 211.397045,172.466484 211.685582,172.778386 C212.488807,172.411902 213.198452,172.06881 213.806719,171.749111 C214.414986,171.429412 214.921875,171.08632 215.319588,170.735431 C215.725099,170.384542 216.021435,169.994665 216.216392,169.5658 C216.411349,169.144733 216.512727,168.630096 216.512727,168.037483 C216.512727,167.515048 216.411349,167.016005 216.216392,166.516963 C216.021435,166.025718 215.740696,165.589056 215.381974,165.214774 C215.015455,164.840492 214.594347,164.536389 214.095256,164.318057 C213.603963,164.099726 213.042486,163.990561 212.418622,163.990561 Z M141.064219,162.009986 L141.064219,166.758687 L138.607756,166.758687 L138.607756,162.009986 L141.064219,162.009986 Z" id="Combined-Shape"></path>
                    <path d="M174.214773,0.827086183 C175.025795,0.827086183 175.439105,1.43529412 175.439105,2.25403557 C175.439105,2.65950752 175.236349,2.8622435 174.830838,3.06497948 C163.219176,9.98919289 144.479872,28.1184679 133.881989,40.3372093 C122.172352,53.9400846 113.496466,67.3045743 105.065165,80.5798861 L103.57926,82.9216929 L103.57926,82.9216929 L102.095027,85.2618304 C97.888849,91.8900274 93.6617836,98.5003184 89.0651847,105.111354 C93.7519602,103.684405 98.2359801,102.05472 103.125511,100.830506 C103.733778,100.62777 104.552599,101.033242 104.755355,101.64145 C104.958111,102.249658 104.552599,103.068399 103.944332,103.271135 C98.0332244,104.900821 92.3326705,106.530506 86.8348722,108.362927 C64.8358807,138.91368 26.1329403,176.193707 7.99410511,176.193707 C3.71284091,176.193707 0.0476420455,172.528865 0.0476420455,168.248016 C0.0476420455,156.029275 24.9008097,132.808208 62.5899716,115.489877 L77.461321,96.3391245 C64.6253267,93.8984952 56.6788636,84.120383 56.6788636,72.299316 C56.6788636,43.580985 91.9193608,28.7110807 134.903565,15.4708618 C147.123494,11.8060192 160.162244,6.30875513 173.40375,1.00642955 C173.910639,0.856976744 173.854318,0.832067943 174.056135,0.827916477 L174.214773,0.827086183 L174.214773,0.827086183 Z M59.3146875,119.575787 C23.668679,136.894118 2.48071023,158.688235 2.48071023,168.263611 C2.48071023,171.320246 4.9215767,173.760876 7.97850852,173.760876 C20.4089915,173.760876 36.9101847,148.504651 59.3146875,119.575787 Z M261.789631,18.1454172 C264.643807,18.1454172 267.084673,20.3833105 267.084673,23.2372093 C267.084673,40.7582763 222.065114,71.7145007 206.991009,81.2898769 C203.306314,85.9637209 199.086665,91.4248551 194.889551,96.979708 L193.957456,98.2153805 C182.937424,112.849089 172.358778,127.775599 172.358778,130.383174 C172.366577,132.207798 173.590909,133.229275 175.626264,133.229275 C183.742886,133.229275 199.99846,118.075643 212.393915,105.700588 L213.28308,104.811096 C215.149678,102.940173 216.919185,101.144378 218.548652,99.4878974 C218.565845,99.4649923 218.584254,99.4420654 218.60267,99.4191518 L243.455838,69.4766074 L258.732699,69.4766074 L219.210937,116.940219 C218.189361,118.367168 210.858963,127.739808 210.858963,130.383174 C210.858963,132.215595 212.083295,133.237073 214.118651,133.237073 C220.475041,133.237073 231.562736,123.943402 241.79214,113.968766 L242.733792,113.046348 C243.203236,112.584422 243.670486,112.12161 244.134992,111.65876 L245.060181,110.733256 C249.359135,106.416338 253.387123,102.145171 256.697344,98.6082079 L257.144986,98.6081217 C271.019861,80.9394124 297.222465,68.2445964 305.179347,68.2445964 C308.236278,68.2445964 311.29321,70.6852257 311.29321,74.15513 C311.29321,84.744186 286.237287,103.894938 267.903494,104.30041 C261.181364,113.470315 256.291832,122.024213 256.291832,126.913269 C256.291832,130.983584 258.943253,133.229275 264.441051,133.229275 C273.774441,133.229275 284.889122,121.661739 297.181451,108.868347 L298.1173,107.894508 C299.993488,105.942786 301.896496,103.968821 303.824207,102.008858 L304.790111,101.030211 C305.444663,100.369437 306.101999,99.7109542 306.762037,99.0561639 L328.605426,71.7145007 L314.350142,71.7145007 L316.182741,69.2738714 L330.64858,69.2738714 L355.096236,38.723119 L368.946009,38.723119 L344.498352,69.2738714 L366.902855,69.2738714 L391.350511,38.723119 L405.200284,38.723119 L380.752628,69.2738714 L398.680909,69.2738714 L396.84831,71.7145007 L378.717273,71.7145007 L354.472372,102.062517 C352.226463,104.916416 335.319759,125.080848 335.319759,130.375376 C335.319759,132.207798 336.544091,133.229275 338.579446,133.229275 C346.323153,133.229275 369.546477,111.637893 379.933807,98.6004104 L380.184973,98.6001276 C394.061472,80.9355834 420.257372,68.2445964 428.213054,68.2445964 C431.269986,68.2445964 434.326918,70.6852257 434.326918,74.15513 C434.326918,84.744186 409.270994,103.894938 390.937202,104.30041 C384.215071,113.470315 379.32554,122.024213 379.32554,126.913269 C379.32554,130.983584 381.97696,133.229275 387.474759,133.229275 C398.580311,133.229275 412.207814,116.851973 427.340355,101.51918 L428.308296,100.542077 C428.95494,99.8918448 429.60427,99.2441751 430.256207,98.6004104 L433.718651,98.6004104 C423.534077,108.378523 402.143352,135.669904 387.474759,135.669904 C376.268608,135.669904 371.379077,129.151163 371.379077,120.597264 C371.379077,116.759057 372.233672,112.992955 373.737478,109.350827 C363.24773,120.576696 347.032755,136.221966 337.565668,136.084087 C332.270625,136.005198 329.619205,132.621067 329.619205,126.507798 C329.619205,123.103734 331.216184,118.279515 333.550658,113.470733 C323.258478,124.04421 309.655283,136.205722 301.303594,136.084087 C296.008551,136.005198 293.357131,132.621067 293.357131,126.507798 C293.357131,122.718668 295.335843,117.169918 298.107873,111.841504 C287.544115,123.006487 274.433022,135.669904 264.441051,135.669904 C253.234901,135.669904 248.345369,129.151163 248.345369,120.597264 C248.345369,116.310559 249.411354,112.113795 251.257199,108.07923 C240.362127,119.478008 223.262628,136.083174 213.923693,136.083174 C209.642429,136.083174 204.752898,133.432011 204.752898,127.326539 C204.752898,123.206704 206.98906,117.427853 210.387136,111.448459 C199.209186,122.483372 183.867371,136.083174 175.41571,136.083174 C171.142244,136.083174 166.244915,133.432011 166.244915,127.326539 C166.244915,123.480401 168.635136,117.43239 172.685462,110.108731 C161.720904,121.484808 145.911111,136.083174 137.944901,136.083174 C133.663636,136.083174 128.774105,133.432011 128.774105,127.326539 C128.774105,125.088646 129.382372,122.437483 130.606705,119.380848 C123.065753,127.326539 114.713778,134.453488 108.404957,134.453488 C104.123693,134.453488 99.2341619,131.810123 99.2341619,125.696854 C99.2341619,118.77264 101.472273,113.478112 109.013224,103.902736 L136.315057,69.4766074 L151.591918,69.4766074 L113.7,115.310534 C112.475668,116.737483 105.348026,126.110123 105.348026,128.753488 C105.348026,130.58591 106.572358,131.607387 108.607713,131.607387 C113.490802,131.607387 122.955884,123.125406 131.613222,113.401272 L132.29492,112.631129 C133.881174,110.828722 135.435206,108.990629 136.923324,107.162107 L167.890355,69.4688098 L183.167216,69.4688098 L143.239943,116.932421 C142.015611,118.359371 134.887969,127.732011 134.887969,130.375376 C134.887969,132.207798 136.112301,133.229275 138.147656,133.229275 C147.926719,133.229275 168.911932,110.616416 179.704773,98.6004104 L180.623842,97.2150956 C202.977357,63.7621352 245.214822,18.1454172 261.789631,18.1454172 Z M364.8675,71.7145007 L342.462997,71.7145007 L318.218097,102.062517 C317.075232,103.519827 312.105476,109.490884 307.515147,115.690873 L306.943636,116.466754 C302.771513,122.160746 299.065483,127.897086 299.065483,130.375376 C299.065483,132.207798 300.289815,133.229275 302.32517,133.229275 C307.281143,133.229275 318.577567,124.385445 328.791674,114.60019 L329.745849,113.680305 C333.251459,110.2794 336.599958,106.795476 339.484555,103.55515 C339.862358,103.039104 340.24246,102.540606 340.622599,102.062517 L364.8675,71.7145007 Z M305.592656,70.8957592 C300.703125,70.8957592 282.572088,85.1574555 270.75767,100.432832 C289.496974,99.0058824 307.2225,78.4359781 307.2225,72.9309166 C307.2225,71.9172367 306.614233,70.8957592 305.592656,70.8957592 Z M428.626364,70.8957592 C423.736832,70.8957592 405.605795,85.1574555 393.791378,100.432832 C412.530682,99.0058824 430.256207,78.4359781 430.256207,72.9309166 C430.256207,71.9172367 429.640142,70.8957592 428.626364,70.8957592 Z M164.43571,7.34582763 C154.453892,11.2134063 145.080341,14.8860465 135.714588,17.7321477 C91.5060511,31.1751026 63.5959517,54.5989056 63.5959517,75.7848153 C63.5959517,83.5277702 67.8772159,92.0816689 79.2783239,94.1168263 C101.285114,66.2094391 129.600724,32.602052 164.43571,7.34582763 Z M261.399716,20.9915185 C252.439474,20.9915185 224.529375,57.2500684 212.917713,74.3578659 C232.670795,60.5094391 263.840582,31.7911081 263.840582,23.2294118 C263.840582,21.8024624 262.819006,20.9915185 261.399716,20.9915185 Z M274.430668,35.0426813 C277.690355,35.0426813 280.950043,37.0778386 280.950043,40.3372093 C280.942244,45.4367989 276.871534,49.7098495 271.779247,49.7098495 C268.316804,49.7098495 264.651605,47.8774282 264.651605,44.4153215 C264.651605,39.1207934 269.135625,35.0426813 274.430668,35.0426813 Z" id="Combined-Shape"></path>
                    <path d="M299.99348,25.2411765 C295.532855,25.1554036 291.953437,21.506156 292.054815,17.1395349 C292.140597,13.2485636 295.860384,9.44336525 299.393011,9.60711354 C303.728864,9.81764706 307.698196,13.7242134 307.643608,17.7165527 C307.581222,21.623119 303.822443,25.3191518 299.99348,25.2411765 M345.028636,16.3675787 C340.57581,16.445554 336.918409,12.9366621 336.863821,8.53105335 C336.809233,4.41395349 340.295071,0.686730506 344.147429,0.725718194 C348.381903,0.77250342 352.015923,4.60109439 352.015923,9.03009576 C352.023707,12.9756498 348.857599,16.2974008 345.028636,16.3675787 M369.164361,21.9194254 C365.070256,22.0129959 361.701392,18.6912449 361.623409,14.4961696 C361.545426,9.88002736 364.45419,6.76101231 368.930412,6.65964432 C372.860753,6.57387141 376.689716,10.1451436 376.798892,13.9893297 C376.923665,18.4417237 373.671776,21.825855 369.164361,21.9194254" id="Shape"></path>
                </g>
                <g id="REGISTERED" transform="translate(439.000000, 27.000000)">
                    <circle id="Oval" stroke="#212121" stroke-width="2" cx="10" cy="10" r="11"></circle>
                    <path d="M8.5234375,15.8398438 L8.5234375,11.2548828 L9.95898438,11.2548828 L13.0424805,15.8398438 L14.9321289,15.8398438 L11.3139648,10.7641602 C12.7739258,10.1586914 13.5039062,9.13330078 13.5039062,7.68798828 C13.5039062,6.81396484 13.2268066,6.14746094 12.6726074,5.68847656 C12.1184082,5.22949219 11.3212891,5 10.28125,5 L10.28125,5 L7,5 L7,15.8398438 L8.5234375,15.8398438 Z M9.02148438,10.1049805 L8.5234375,10.1049805 L8.5234375,6.14990234 L9.49023438,6.14990234 C11.1113281,6.14990234 11.921875,6.70898438 11.921875,7.82714844 C11.921875,9.34570312 10.9550781,10.1049805 9.02148438,10.1049805 L9.02148438,10.1049805 Z" id="R" fill="#212121" fill-rule="nonzero"></path>
                </g>
            </g>
        </g>
    </g>
</svg>