<?xml version="1.0" encoding="UTF-8"?>
<svg width="82px" height="82px" viewBox="0 0 82 82" version="1.1" xmlns="http://www.w3.org/2000/svg" xmlns:xlink="http://www.w3.org/1999/xlink">
    <g id="Home" stroke="none" stroke-width="1" fill="none" fill-rule="evenodd">
        <g id="Mobile-Portrait" transform="translate(-125.000000, -336.000000)">
            <g id="ciglia" transform="translate(126.000000, 337.000000)">
                <g id="Group-2">
                    <circle id="Oval" stroke="#734FCE" stroke-width="2" cx="40" cy="40" r="40"></circle>
                    <path d="M39.3609757,46.96889 C36.8963891,46.5865573 35.1956024,44.2604542 35.5501816,41.7717418 C35.2688307,41.2857364 35.1613505,40.7218821 35.2471979,40.1578393 C35.4518394,38.8136745 36.6988343,37.8887248 38.0275117,38.0947509 C38.1349298,38.1114642 38.2393641,38.1357173 38.341001,38.1656882 C39.1014441,37.853476 39.9267857,37.7547041 40.7393838,37.8809964 C43.2178949,38.2655282 44.9249601,40.616073 44.5447075,43.1207447 C44.3615124,44.3345959 43.721293,45.4036194 42.7421595,46.1305227 C41.9535565,46.7159284 41.0209833,47.0229883 40.0603123,47.0229883 C39.8282569,47.0230512 39.5947096,47.0051441 39.3609757,46.96889 Z M39.4173578,38.8266807 C39.9237397,39.3615066 40.1883065,40.1190091 40.0686422,40.9051002 C39.969554,41.5559139 39.6259777,42.1290045 39.1011955,42.5186885 C38.6782988,42.8327228 38.1785684,42.9974055 37.6637945,42.9974055 C37.5392193,42.9974055 37.4138361,42.9877922 37.2883284,42.9682514 C36.9937989,42.9224469 36.7156184,42.8243662 36.4632355,42.6811721 C36.4563976,42.6779048 36.449684,42.67558 36.4427838,42.6715588 C36.5532479,44.3399995 37.7985023,45.7730715 39.502335,46.0374057 C40.4574112,46.1853751 41.411928,45.9487498 42.1901498,45.3710096 C42.9684338,44.7932695 43.4773022,43.9435296 43.6230129,42.9783046 C43.925375,40.9868446 42.5683511,39.1183468 40.5979624,38.8126692 L40.597838,38.8126692 C40.20335,38.7513452 39.8051943,38.7566859 39.4173578,38.8266807 Z M36.1688925,40.3012847 C36.107786,40.7029068 36.205258,41.1045289 36.4434676,41.4322606 C36.6817394,41.7601179 37.0321537,41.9748148 37.430185,42.0366415 C37.8276568,42.0984053 38.2249422,41.9999476 38.5491858,41.7591126 C38.8734915,41.5182776 39.0859033,41.1640936 39.147072,40.7617804 C39.2732634,39.9326494 38.7074534,39.1540982 37.8857795,39.0264236 C37.8083862,39.0144227 37.7309308,39.0083908 37.654097,39.0083908 C37.3363185,39.0083908 37.0278644,39.110053 36.7667787,39.3039525 C36.442473,39.5447876 36.2300612,39.8989715 36.1688925,40.3012847 Z M50.4623175,36.492188 C52.6139555,38.016659 54.2995908,39.97941 55.4722229,42.3260782 C55.9208506,43.2262849 56.0844141,44.0536744 55.9592884,44.8366478 C55.9591009,44.8378364 55.9589134,44.8390876 55.9586633,44.8403387 C55.8349751,45.6086111 55.4334102,46.334219 54.7488435,47.0437495 C51.0291959,50.9003754 46.3912302,51.988318 42.3444556,51.9885057 C41.0034475,51.9885683 39.7281897,51.8691454 38.5716827,51.6914813 C33.9250295,50.9790731 27.7164917,48.7903633 24.5277224,42.4089047 C24.0872822,41.5252132 23.9216562,40.711649 24.0341569,39.9413123 C24.0342194,39.9408118 24.0342819,39.9402488 24.0343444,39.9397484 C24.1493451,39.1547731 24.553285,38.4147143 25.2511643,37.6912334 C26.2061701,36.7010685 27.2217387,35.8941354 28.2721826,35.2405315 C27.680304,34.7475135 27.1901761,34.036982 26.8569865,33.1725584 C26.449359,32.1149562 26.2979831,30.8767497 26.441734,29.7754822 C26.4752967,29.5185573 26.7102981,29.3374524 26.9672997,29.371046 C27.2239888,29.4046395 27.4049274,29.6401071 27.3713647,29.8970945 C27.1488633,31.6020448 27.7724296,33.8627586 29.159063,34.7286211 C29.7659417,34.4048219 30.3817579,34.1281287 31.0018867,33.8934744 C29.9147551,32.7160115 29.4134396,31.0273888 29.7089414,29.3859973 C29.7548166,29.1309491 29.9985681,28.9617303 30.2533822,29.00746 C30.5081337,29.0533775 30.6774472,29.2974154 30.631572,29.552401 C30.3618203,31.0509106 30.8949486,32.5936485 31.9956427,33.5536605 C32.5948339,33.3696154 33.19565,33.2216037 33.7940287,33.1053713 C33.2150877,32.1868977 32.9306484,31.0007392 33.0360866,29.8399167 C33.0595242,29.5818032 33.2876506,29.3911896 33.5453397,29.4151492 C33.8031537,29.4385458 33.9931549,29.6668193 33.9697172,29.9248702 C33.8704666,31.0183805 34.2032187,32.1707577 34.8245349,32.9349013 C35.4947265,32.8430664 36.158668,32.787953 36.8104845,32.7629924 C36.3614193,32.0385106 36.1292929,31.1996105 36.1347304,30.291021 C36.1362304,30.0328449 36.3458567,29.8246526 36.6034207,29.8246526 C36.6044208,29.8246526 36.6052958,29.8246526 36.6062958,29.8246526 C36.8651098,29.8262165 37.0737361,30.0374742 37.0722361,30.2966512 C37.0666111,31.2353935 37.3741129,32.0791106 37.9632415,32.7490421 C39.191374,32.7656199 40.3608811,32.8796627 41.4282626,33.0436267 C41.6842016,33.082913 41.8598277,33.3224468 41.8205149,33.5785585 C41.7812647,33.8347327 41.5426383,34.0107703 41.2860742,33.9711712 C37.217612,33.3462188 31.6028279,33.4701458 27.092488,37.2540169 C30.8754484,35.4770626 35.8837289,34.9077866 41.0207601,35.696703 C46.1570413,36.4834925 50.7634443,38.52638 53.8400255,41.3534295 C51.6353871,37.9257625 48.0761155,35.5351162 43.4495873,34.3993794 C43.1981483,34.3376348 43.0443349,34.0835876 43.1059603,33.8319176 C43.1677106,33.5803101 43.4218372,33.4262928 43.6729012,33.4879748 C46.2611044,34.1232492 48.5453683,35.1340582 50.4623175,36.492188 Z M35.6369774,36.3019497 C34.2244688,37.4172302 33.2612754,39.0779521 32.9864613,40.8811807 C32.696147,42.7731788 33.1596498,44.6644887 34.2915317,46.2072892 C35.4234136,47.7499646 37.0876737,48.759147 38.9778102,49.0490398 C40.8678217,49.3386824 42.7573956,48.8747538 44.2985925,47.7420197 C45.8398519,46.6093482 46.8480455,44.9436842 47.1376098,43.0519989 C47.4139864,41.2480196 46.9914214,39.3748514 45.9776652,37.8880402 C44.3757805,37.3262086 42.6615826,36.8973749 40.8787592,36.6243101 C39.0965609,36.3506197 37.3331752,36.2459605 35.6369774,36.3019497 Z M54.0743394,46.3919598 C54.6133427,45.8333187 54.9286571,45.2973235 55.0298452,44.730237 C55.0210327,44.1811046 54.6235302,43.4801445 53.8780257,42.7010496 C52.2222031,40.9703255 49.9743145,39.5079744 47.3592361,38.4173417 C48.0580528,39.8850728 48.3138669,41.5652502 48.0641779,43.1943179 C47.7368009,45.3337321 46.5964815,47.2174726 44.8534084,48.4985312 C43.4491498,49.5305472 41.7888898,50.0718599 40.0788794,50.0718599 C39.6665019,50.0718599 39.2511868,50.0403933 38.8357468,49.9766469 C36.6980463,49.6489066 34.8158474,48.5075395 33.5358396,46.762865 C32.2555818,45.0178778 31.7313911,42.8787138 32.0597056,40.7392996 C32.3078946,39.1107324 33.0542117,37.584197 34.1604059,36.3927837 C31.3388888,36.6495209 28.7561231,37.3711251 26.6575478,38.5260672 C25.7139171,39.0465481 25.125351,39.5958681 24.9530375,40.1154107 C24.8794745,40.6871889 25.0195379,41.2938119 25.366415,41.9896423 C28.3755583,48.0116438 34.2857192,50.0851221 38.7137461,50.7639993 C43.141773,51.4441277 49.4006235,51.2378121 54.0743394,46.3919598 Z" id="Combined-Shape" fill="#734FCE" fill-rule="nonzero"></path>
                </g>
            </g>
        </g>
    </g>
</svg>