<svg width="111px" height="80px" viewBox="0 0 111 80" version="1.1" xmlns="http://www.w3.org/2000/svg" id="lashes">
    <g id="Home" stroke="none" stroke-width="1" fill="none" fill-rule="evenodd">
        <g id="Artboard" transform="translate(-301.000000, -124.000000)" fill="#FFFFFF" fill-rule="nonzero">
            <path  d="M320.80289,125.343271 C320.96202,124.455703 321.807533,123.866821 322.691419,124.025961 C323.575089,124.185754 324.162395,125.035006 324.003265,125.922356 C323.067564,131.137169 324.916853,136.505897 328.734886,139.846738 C330.81333,139.206262 332.897411,138.691181 334.973037,138.286692 C332.964835,135.090404 331.978187,130.962572 332.343925,126.92291 C332.425225,126.024675 333.216538,125.36134 334.110397,125.444719 C335.00469,125.52614 335.663756,126.320531 335.582457,127.218548 C335.238181,131.023964 336.392415,135.034237 338.547606,137.693456 C340.872333,137.373871 343.17538,137.182076 345.436368,137.095214 C343.878673,134.574017 343.073485,131.654644 343.092346,128.492753 C343.097549,127.5943 343.82469,126.869791 344.718116,126.869791 L344.718116,126.869791 L344.728088,126.869791 C345.62585,126.875234 346.349522,127.61041 346.344319,128.512346 C346.324807,131.779169 347.391454,134.715305 349.434994,137.046666 C353.695078,137.104357 357.751806,137.501226 361.454286,138.071821 C362.342074,138.208537 362.951277,139.042115 362.814911,139.933383 C362.678762,140.82487 361.851026,141.437481 360.96107,141.299676 C346.848592,139.124841 327.372309,139.556107 311.727068,152.723979 C324.849212,146.540178 342.221685,144.559097 360.040762,147.304527 C377.857237,150.042554 393.835697,157.151802 404.507588,166.989935 C396.860249,155.061654 384.514025,146.742204 368.465756,142.78984 C367.593577,142.574969 367.060037,141.690885 367.2738,140.815073 C367.487996,139.939479 368.369498,139.403499 369.240376,139.618152 C378.218206,141.828907 386.141746,145.346522 392.791164,150.072814 C400.254658,155.377973 406.101705,162.208347 410.169273,170.374752 C411.725451,173.507472 412.292811,176.386787 411.858781,179.111534 C411.858131,179.115671 411.857481,179.120025 411.856613,179.124379 C411.42757,181.797966 410.034641,184.323082 407.660051,186.792248 C394.757523,200.213306 378.66958,204 364.63233,204 C359.980708,204 355.557158,203.584626 351.545524,202.966355 C335.427446,200.487174 313.891581,192.870464 302.830537,170.662988 C301.30276,167.587742 300.728245,164.756539 301.118482,162.075767 C301.118698,162.074025 301.118915,162.072066 301.119132,162.070324 C301.518041,159.33861 302.919207,156.763206 305.339976,154.245492 C308.652652,150.799718 312.175406,147.991591 315.819133,145.71705 C313.766055,144.001347 312.065923,141.528697 310.910172,138.520503 C309.496214,134.840048 308.971129,130.531089 309.469765,126.698678 C309.586185,125.804579 310.401347,125.174334 311.292821,125.29124 C312.183211,125.408146 312.810842,126.227573 312.694421,127.121889 C311.92262,133.055116 314.085615,140.9224 318.8955,143.935601 C321.00061,142.80878 323.136723,141.845888 325.287795,141.029291 C321.516807,136.93172 319.777868,131.055313 320.80289,125.343271 Z M336.243908,149.726887 C326.45677,150.620333 317.497802,153.131515 310.218369,157.150714 C306.94515,158.961987 304.903561,160.873621 304.305849,162.681629 C304.050677,164.671418 304.536522,166.782466 305.739752,169.203955 C316.177718,190.160521 336.678588,197.376225 352.038307,199.738718 C367.398025,202.105565 389.108413,201.387586 405.320365,184.52402 C407.190032,182.579949 408.283779,180.714686 408.634776,178.741225 C408.604207,176.830244 407.225371,174.390903 404.639402,171.679653 C398.895767,165.656733 391.098403,160.567751 382.02735,156.772349 C384.451371,161.880053 385.338726,167.727071 384.472617,173.396226 C383.337028,180.841388 379.381545,187.396805 373.33526,191.854889 C368.464239,195.446304 362.705211,197.330072 356.773613,197.330072 C355.343178,197.330072 353.902554,197.220569 352.461497,196.998731 C345.046348,195.858195 338.517471,191.886237 334.077444,185.81477 C329.636549,179.742215 327.818263,172.297924 328.957104,164.852763 C329.81801,159.185349 332.406797,153.873005 336.243908,149.726887 Z M359.548196,150.532599 C353.366196,149.580157 347.249451,149.215943 341.365765,149.410785 C336.466126,153.291961 333.125049,159.071273 332.171788,165.346509 C331.16476,171.930662 332.772535,178.512421 336.698751,183.881366 C340.624966,189.249877 346.397868,192.761831 352.954279,193.770659 C359.510256,194.778615 366.064716,193.164143 371.410743,189.222229 C376.756986,185.280532 380.254158,179.484021 381.258584,172.900956 C382.217265,166.623108 380.751493,160.104483 377.235026,154.93038 C371.678489,152.975206 365.732364,151.482865 359.548196,150.532599 Z M350.986537,156.176595 C353.662066,155.090097 356.565933,154.74637 359.424964,155.185868 C368.145314,156.524038 374.151422,164.703934 372.813548,173.420191 C372.168998,177.644394 369.916461,181.364596 366.471495,183.894219 C363.696888,185.931431 360.415739,187 357.035731,187 C356.219272,187 355.397563,186.937901 354.575198,186.811737 C345.90384,185.48122 339.919822,177.386381 341.167367,168.725662 C340.177467,167.034363 339.79931,165.07215 340.101354,163.109281 C340.821361,158.431587 345.208766,155.212762 349.883561,155.929733 C350.261499,155.987895 350.628939,156.072296 350.986537,156.176595 Z M358.926952,158.428089 C357.538992,158.214681 356.138129,158.233267 354.773571,158.476849 C356.555216,160.338043 357.486064,162.974152 357.065039,165.709749 C356.716409,167.97458 355.507576,169.968936 353.661191,171.325036 C352.173279,172.417875 350.415037,172.990971 348.603865,172.990971 C348.165562,172.990971 347.724416,172.957517 347.282832,172.889515 C346.246565,172.730115 345.267819,172.388794 344.37984,171.890479 C344.355781,171.879109 344.33216,171.871018 344.307883,171.857025 C344.696538,177.663198 349.077819,182.650289 355.072554,183.570172 C358.432877,184.085105 361.791232,183.261649 364.529314,181.251113 C367.267614,179.240578 369.058008,176.283483 369.570674,172.9245 C370.634499,165.994219 365.859971,159.491847 358.92739,158.428089 L358.92739,158.428089 Z M348.569746,159.1092 C347.451679,159.1092 346.36642,159.462984 345.447821,160.137755 C344.306789,160.975861 343.559443,162.208421 343.344228,163.608471 C343.129233,165.006116 343.472176,166.403761 344.310289,167.544267 C345.14862,168.68521 346.381511,169.432356 347.781938,169.647512 C349.180396,169.862451 350.578197,169.519818 351.71901,168.681712 C352.860042,167.843606 353.607388,166.611046 353.822602,165.210996 C354.266592,162.32562 352.275856,159.616262 349.384893,159.171954 C349.112594,159.130191 348.840076,159.1092 348.569746,159.1092 Z" id="Combined-Shape"></path>
        </g>
    </g>
</svg>