<svg width="160px" height="140px" viewBox="0 0 64 47" version="1.1" xmlns="http://www.w3.org/2000/svg" >
    <g id="Home" stroke="none" stroke-width="1" fill="none" fill-rule="evenodd">
        <g id="home-mani" transform="translate(-382.000000, -591.000000)" fill="#734FCE" fill-rule="nonzero">
            <g id="ciglia" transform="translate(344.000000, 545.000000)">
                <path d="M68.7219514,82.5929524 C63.7927782,81.8282871 60.3912048,77.1760808 61.1003633,72.1986561 C60.5376615,71.2266452 60.3227009,70.0989366 60.4943959,68.970851 C60.9036787,66.2825214 63.3976686,64.4326219 66.0550234,64.8446741 C66.2698596,64.8781007 66.4787282,64.926607 66.682002,64.9865488 C68.2028883,64.3621244 69.8535714,64.1645807 71.4787675,64.4171653 C76.4357899,65.1862288 79.8499202,69.8873184 79.0894149,74.8966618 C78.7230247,77.3243643 77.442586,79.4624113 75.4843191,80.9162179 C73.9071129,82.0870292 72.0419666,82.7011491 70.1206247,82.7011491 C69.6565138,82.7012748 69.1894191,82.6654605 68.7219514,82.5929524 Z M68.8347156,66.3085339 C69.8474794,67.3781857 70.376613,68.8931907 70.1372845,70.4653728 C69.939108,71.7670003 69.2519554,72.9131815 68.2023909,73.6925495 C67.3565977,74.3206181 66.3571369,74.6499834 65.327589,74.6499834 C65.0784387,74.6499834 64.8276721,74.6307568 64.5766569,74.5916753 C63.9875979,74.5000662 63.4312367,74.3039048 62.9264711,74.0175166 C62.9127952,74.010982 62.8993679,74.0063325 62.8855677,73.99829 C63.1064959,77.3351714 65.5970046,80.2013155 69.0046699,80.7299839 C70.9148225,81.0259225 72.823856,80.552672 74.3802997,79.3971917 C75.9368676,78.2417113 76.9546044,76.5422316 77.2460258,74.6117815 C77.8507499,70.6288616 75.1367022,66.8918661 71.1959247,66.2805108 L71.195676,66.2805108 C70.4067,66.1578627 69.6103887,66.1685442 68.8347156,66.3085339 Z M62.337785,69.2577419 C62.2155721,70.0609861 62.4105161,70.8642302 62.8869352,71.5196936 C63.3634788,72.1754082 64.0643073,72.6048021 64.86037,72.7284554 C65.6553137,72.8519831 66.4498844,72.6550677 67.0983715,72.1733976 C67.7469829,71.6917276 68.1718066,70.9833597 68.2941439,70.1787332 C68.5465267,68.5204713 67.4149068,66.9633689 65.771559,66.7080197 C65.6167725,66.6840178 65.4618616,66.6719541 65.3081941,66.6719541 C64.6726369,66.6719541 64.0557288,66.8752784 63.5335574,67.2630775 C62.884946,67.7447475 62.4601223,68.4531154 62.337785,69.2577419 Z M90.9246349,61.6395484 C95.2279111,64.6884905 98.5991815,68.6139924 100.944446,73.3073288 C101.841701,75.1077423 102.168828,76.7625212 101.918577,78.328468 C101.918202,78.3308452 101.917827,78.3333475 101.917327,78.3358499 C101.66995,79.8723945 100.86682,81.3236104 99.497687,82.7426715 C92.0583918,90.4559231 82.7824604,92.6318085 74.6889113,92.6321839 C72.006895,92.632309 69.4563795,92.3934633 67.1433654,92.038135 C57.8500589,90.6133185 45.4329835,86.2358991 39.0554447,73.4729818 C38.1745644,71.7055989 37.8433124,70.0784705 38.0683137,68.537797 C38.0684387,68.5367961 38.0685637,68.53567 38.0686888,68.5346691 C38.2986901,66.9647186 39.1065701,65.484601 40.5023285,64.0376391 C42.4123401,62.0573094 44.4434775,60.4434433 46.5443652,59.1362355 C45.3606081,58.1501995 44.3803521,56.7291365 43.7139731,55.0002891 C42.8987181,52.8850848 42.5959663,50.4086717 42.883468,48.2061367 C42.9505934,47.6922869 43.4205963,47.3300773 43.9345994,47.3972644 C44.4479775,47.4644514 44.8098547,47.9353866 44.7427293,48.4493614 C44.2977266,51.859262 45.5448592,56.3806895 48.318126,58.1124146 C49.5318834,57.4648162 50.7635159,56.9114299 52.0037734,56.4421213 C49.8295102,54.0871955 48.8268791,50.7099501 49.4178827,47.427167 C49.5096333,46.9170707 49.9971362,46.578633 50.5067643,46.6700925 C51.0162674,46.7619273 51.3548945,47.2500033 51.2631439,47.7599745 C50.7236406,50.7569936 51.7898971,53.8424694 53.9912855,55.7624934 C55.1896678,55.3944033 56.3913001,55.0983798 57.5880574,54.865915 C56.4301753,53.0289677 55.8612969,50.6566509 56.0721731,48.3350058 C56.1190484,47.8187788 56.5753012,47.4375516 57.0906793,47.4854709 C57.6063075,47.5322641 57.9863098,47.9888109 57.9394345,48.5049128 C57.7409333,50.6919334 58.4064373,52.9966879 59.6490699,54.524975 C60.989453,54.3413053 62.3173361,54.2310784 63.620969,54.1811573 C62.7228386,52.7321935 62.2585857,51.0543933 62.2694608,49.2372144 C62.2724608,48.7208623 62.6917134,48.3044776 63.2068415,48.3044776 C63.2088415,48.3044776 63.2105915,48.3044776 63.2125915,48.3044776 C63.7302197,48.3076055 64.1474722,48.7301208 64.1444722,49.2484748 C64.1332221,51.1259595 64.7482259,52.8133936 65.926483,54.1532565 C68.3827479,54.1864121 70.7217622,54.4144979 72.8565251,54.7424259 C73.3684032,54.8209985 73.7196554,55.3000661 73.6410299,55.8122894 C73.5625294,56.3246377 73.0852765,56.676713 72.5721484,56.5975149 C64.435224,55.34761 53.2056557,55.595464 44.1849759,63.1632062 C51.7508969,59.6092976 61.7674577,58.4707456 72.0415202,60.0485785 C82.3140826,61.6221574 91.5268886,65.7079324 97.680051,71.3620314 C93.2707742,64.5066975 86.1522309,59.7254049 76.8991747,57.4539312 C76.3962966,57.3304421 76.0886698,56.8223476 76.2119205,56.3190075 C76.3354213,55.8157926 76.8436743,55.507758 77.3458024,55.631122 C82.5222089,56.9016709 87.0907366,58.9232888 90.9246349,61.6395484 Z M61.2739547,61.2590719 C58.4489376,63.4896328 56.5225509,66.8110766 55.9729225,70.4175338 C55.392294,74.20153 56.3192996,77.9841499 58.5830634,81.0697508 C60.8468272,84.1551015 64.1753474,86.1734664 67.9556203,86.7532521 C71.7356433,87.3325373 75.5147913,86.40468 78.597185,84.1392118 C81.6797037,81.8738688 83.696091,78.5425408 84.2752195,74.7591702 C84.8279729,71.1512117 83.9828427,67.4048753 81.9553304,64.4312528 C78.7515609,63.3075896 75.3231651,62.4499222 71.7575184,61.9037926 C68.1931218,61.3564118 64.6663504,61.1470934 61.2739547,61.2590719 Z M98.1486788,81.4390921 C99.2266854,80.3218098 99.8573142,79.2498193 100.05969,78.1156464 C100.042065,77.0173817 99.2470605,75.6154614 97.7560514,74.0572717 C94.4444063,70.5958235 89.948629,67.6711213 84.7184722,65.4898559 C86.1161057,68.4253181 86.6277338,71.7856729 86.1283558,75.0438082 C85.4736018,79.3226366 83.1929629,83.0901175 79.7068167,85.6522348 C76.8982997,87.7162668 73.5777795,88.7988921 70.1577587,88.7988921 C69.3330037,88.7988921 68.5023737,88.735959 67.6714936,88.6084662 C63.3960926,87.9529855 59.6316948,85.6702514 57.0716792,82.1809025 C54.5111637,78.6909279 53.4627823,74.4126 54.1194113,70.1337716 C54.6157893,66.8766372 56.1084234,63.8235663 58.3208118,61.4407397 C52.6777775,61.9542142 47.5122461,63.3974226 43.3150956,65.7073068 C41.4278342,66.7482686 40.250702,67.8469087 39.9060749,68.8859937 C39.758949,70.0295503 40.0390757,71.2427963 40.7328299,72.6344571 C46.7511165,84.6784601 58.5714383,88.8254166 67.4274921,90.1831711 C76.2835459,91.5434279 88.801247,91.1307967 98.1486788,81.4390921 Z" id="Combined-Shape"></path>
            </g>
        </g>
    </g>
</svg>