<?xml version="1.0" encoding="UTF-8"?>
<svg width="66px" height="66px" viewBox="0 0 66 66" version="1.1" xmlns="http://www.w3.org/2000/svg" xmlns:xlink="http://www.w3.org/1999/xlink">
    <!-- Generator: Sketch 52.2 (67145) - http://www.bohemiancoding.com/sketch -->
    <title>logo_juliette copia</title>
    <desc>Created with Sketch.</desc>
    <g id="Wait" stroke="none" stroke-width="1" fill="none" fill-rule="evenodd">
        <g id="black" transform="translate(-92.000000, -20.000000)" fill="#FF87A4" fill-rule="nonzero">
            <g id="logo_juliette-copia" transform="translate(93.000000, 21.000000)">
                <path d="M31.826087,64 C14.2770075,64 0,49.6447614 0,32.0004785 C0,14.3561955 14.2770075,0 31.826087,0 C49.3751664,0 63.6521739,14.3552386 63.6521739,32.0004785 C63.6521739,49.6457184 49.3742147,64 31.826087,64 M0.843239026,32.0004785 C0.843239026,49.1777688 14.7424069,63.1530974 31.826087,63.1530974 C48.909767,63.1530974 62.8079831,49.1777688 62.8079831,32.0004785 C62.8079831,14.8231881 48.909767,0.847859567 31.826087,0.847859567 C14.7424069,0.847859567 0.843239026,14.8231881 0.843239026,32.0004785 Z" id="Shape" stroke="#FF87A4"></path>
                <path d="M48.7968314,29.3108901 L49.2610885,29.3108901 L52.1863159,25.6 L53.8434783,25.6 L50.9182508,29.3108901 L53.0634176,29.3108901 L52.8441422,29.6073446 L50.6747151,29.6073446 L47.773748,33.2936091 C47.5050189,33.6402619 45.4820865,36.0895631 45.4820865,36.7326704 C45.4820865,36.955248 45.6285812,37.0793232 45.8721169,37.0793232 C46.7986721,37.0793232 49.5774049,34.4566956 50.8202767,32.8730794 L51.2355004,32.8730794 C50.7969495,33.3674859 47.408911,37.4506016 45.7508156,37.425976 C45.1172495,37.4165046 44.8,37.0054464 44.8,36.2628895 C44.8,35.8833229 44.9610237,35.3583914 45.2035169,34.8229878 C43.9907642,36.0712546 42.4461541,37.4402664 41.4840508,37.425976 C40.8505502,37.4165046 40.5333333,37.0054464 40.5333333,36.2628895 C40.5333333,36.0540029 40.5820963,35.8010907 40.666364,35.5266361 C39.5991797,36.5805441 38.4441019,37.5033816 37.5122066,37.5033816 C36.1499452,37.5033816 35.5555556,36.6963061 35.5555556,35.6372607 C35.5555556,32.1569886 41.1278398,29.1555556 42.4645054,29.1555556 C42.7183062,29.1555556 42.9721069,29.2965034 43.1075219,29.5227324 L43.2641969,29.3108901 L44.9948946,29.3108901 L47.9198202,25.6 L49.5768116,25.6 L46.6518859,29.3108901 L48.7968314,29.3108901 Z M48.5775786,29.6073446 L46.4083754,29.6073446 L43.5077075,33.2936091 C43.2399392,33.6402619 41.2162825,36.0895631 41.2162825,36.7326704 C41.2162825,36.955248 41.362762,37.0793232 41.6062726,37.0793232 C42.366682,37.0793232 44.3747039,35.3125593 45.7572148,33.8036274 C45.8742472,33.6206473 45.9954006,33.4483299 46.1165856,33.2936091 L49.0175528,29.6073446 L48.5775786,29.6073446 Z M40.9828658,34.723234 C41.2248336,34.2089494 41.5372033,33.692731 41.8497831,33.2936091 L44.750451,29.6073446 L43.1507733,29.6073446 C43.1871271,29.6920874 43.2077295,29.7861761 43.2077295,29.8873298 C43.2077295,31.198345 40.1618381,33.5693709 37.9331141,33.6195717 C37.1159468,34.7548838 36.5215572,35.8139292 36.5215572,36.4192358 C36.5215572,36.9231754 36.8438737,37.201211 37.5122066,37.201211 C38.5164214,37.201211 39.6902673,36.0793016 40.9828658,34.723234 Z M30.1639071,35.1557029 C30.4738304,34.4236871 30.9945791,33.5913686 31.5736523,32.8669317 L34.6368072,29.1562141 L36.5196816,29.1562141 L31.6486213,35.0382812 C31.5227118,35.2151201 30.6192397,36.376652 30.6192397,36.7042388 C30.6192397,36.931327 30.7701388,37.0579166 31.0209965,37.0579166 C32.2262667,37.0579166 34.8117348,34.331892 36.2688239,32.7664331 L36.6955703,32.7664331 C35.9679869,33.5230716 32.5790053,37.410628 30.996968,37.410628 C30.4693018,37.410628 29.8666667,37.0820749 29.8666667,36.3254364 C29.8666667,36.167245 29.8931247,35.9893163 29.9421027,35.7970265 C28.7778181,36.8144947 27.5207811,37.7275362 26.7387801,37.7275362 C26.2081241,37.7275362 25.6,37.4069613 25.6,36.6686961 C25.6,34.1069254 34.6056588,23.4666667 37.4642292,23.4666667 C37.8186455,23.4666667 38.1217391,23.7372696 38.1217391,24.0823591 C38.1217391,26.2009822 32.5314522,29.9441658 30.6596309,31.1020069 C28.9650177,33.1951726 26.3591867,36.5942096 26.3591867,37.0383002 C26.3601551,37.2589311 26.5121861,37.3824468 26.7649255,37.3824468 C27.5316771,37.3824468 28.8833457,36.3219659 30.1639071,35.1557029 Z M26.0470596,21.3333333 C26.1451703,21.3333333 26.1951691,21.408126 26.1951691,21.5088084 C26.1951691,21.5586702 26.1706414,21.5836011 26.121586,21.608532 C24.7169043,22.4600177 22.4499802,24.6894143 21.1679369,26.1919797 C18.8764851,28.8979398 17.5453865,31.5271895 15.7463751,34.1573981 C16.313342,33.981923 16.8557812,33.7815171 17.4472757,33.6309729 C17.5208588,33.606042 17.6199129,33.6559038 17.6444406,33.7306964 C17.6689683,33.8054891 17.6199129,33.9061715 17.5463298,33.9311024 C16.8312535,34.1315084 16.1416482,34.3319143 15.4765705,34.5572512 C12.8153167,38.3141441 8.13335885,42.8985507 5.93907437,42.8985507 C5.42116286,42.8985507 4.97777778,42.447877 4.97777778,41.9214517 C4.97777778,40.4188863 7.98430599,37.5633409 12.5436254,35.4336678 L14.3426368,33.0786578 C12.7898456,32.7785283 11.828549,31.5760924 11.828549,30.1224299 C11.828549,26.5908739 16.0916494,24.7622892 21.2915187,23.1341105 C22.7697835,22.6834368 24.3471023,22.0074262 25.9489489,21.3553876 C26.0225319,21.3333333 25.9980042,21.3333333 26.0470596,21.3333333 Z M5.27211,41.9233695 C5.27211,42.2992506 5.5673856,42.5993801 5.93718763,42.5993801 C7.44092342,42.5993801 9.43709967,39.4935669 12.1474089,35.936121 C7.83525314,38.0657941 5.27211,40.7458645 5.27211,41.9233695 Z M24.8640705,22.1349572 C23.6565536,22.6105619 22.5226199,23.0621945 21.3896295,23.4121858 C16.0416507,25.0652954 12.6653204,27.9457717 12.6653204,30.5510494 C12.6653204,31.5032175 13.1832319,32.5551092 14.5624426,32.8053769 C17.2246398,29.3735444 20.6500254,25.2407705 24.8640705,22.1349572 Z M25.3176715,29.1555556 L27.1536232,29.1555556 L22.3552196,35.1034916 C22.2080811,35.2823107 21.3514911,36.4568498 21.3514911,36.788105 C21.3514911,37.0177361 21.4986296,37.1457433 21.7432357,37.1457433 C22.9184697,37.1457433 25.4404432,34.3119969 26.7375116,32.8062027 L27.1536232,32.8062027 C26.3945008,33.7511105 23.0899752,37.5033816 21.7188689,37.5033816 C21.2043525,37.5033816 20.6167355,37.1711493 20.6167355,36.4060378 C20.6167355,36.1255946 20.6898362,35.7933623 20.8369748,35.4103179 C19.9307138,36.4060378 18.9269852,37.2991565 18.1688,37.2991565 C17.6542837,37.2991565 17.0666667,36.9679013 17.0666667,36.2018126 C17.0666667,35.3340999 17.3356397,34.6706124 18.2419007,33.4706673 L21.5229965,29.1565327 L23.3589482,29.1565327 L18.8051508,34.9002436 C18.6580122,35.0790627 17.8014222,36.2536018 17.8014222,36.5848569 C17.8014222,36.8144881 17.9485608,36.9424953 18.1931669,36.9424953 C18.9035555,36.9424953 20.4208632,35.3849119 21.5960972,33.8791177 L25.3176715,29.1555556 Z M37.7189054,24.0814162 C37.7189054,23.9088715 37.5920515,23.8108133 37.4158117,23.8108133 C36.3031771,23.8108133 32.837451,28.1951467 31.3955772,30.2637978 C33.8484088,28.5892653 37.7189054,25.1166846 37.7189054,24.0814162 Z M36.6759809,28.82 C36.3573206,28.82 36.02,28.6325997 36.02,28.2785327 C36.02,27.7370654 36.4326794,27.32 36.92,27.32 C37.22,27.32 37.52,27.528134 37.52,27.8614673 C37.5192823,28.3829984 37.1446411,28.82 36.6759809,28.82 Z M38.5226475,27.3888889 C38.2039872,27.3888889 37.8666667,27.2014886 37.8666667,26.8474216 C37.8666667,26.3059543 38.2793461,25.8888889 38.7666667,25.8888889 C39.0666667,25.8888889 39.3666667,26.0970229 39.3666667,26.4303562 C39.365949,26.9518873 38.9913078,27.3888889 38.5226475,27.3888889 Z M40.5226475,26.3888889 C40.2039872,26.3888889 39.8666667,26.2014886 39.8666667,25.8474216 C39.8666667,25.3059543 40.2793461,24.8888889 40.7666667,24.8888889 C41.0666667,24.8888889 41.3666667,25.0970229 41.3666667,25.4303562 C41.365949,25.9518873 40.9913078,26.3888889 40.5226475,26.3888889 Z M42.5147489,29.483792 C41.9203593,29.483792 39.7162829,31.2495112 38.2800783,33.1407326 C40.5580979,32.9640642 42.7128788,30.4173352 42.7128788,29.7357618 C42.7128788,29.6102596 42.6389356,29.483792 42.5147489,29.483792 Z M51.4548905,36.4192358 C51.4548905,36.9231754 51.7772071,37.201211 52.4455399,37.201211 C53.8817445,37.201211 55.6649134,34.9064518 57.6462121,32.9138633 L58.0671196,32.9138633 C56.8290449,34.1244767 54.2287088,37.5033816 52.4455399,37.5033816 C51.0832785,37.5033816 50.4888889,36.6963061 50.4888889,35.6372607 C50.4888889,32.1569886 56.0611731,29.1555556 57.3978388,29.1555556 C57.7694508,29.1555556 58.1410628,29.4577262 58.1410628,29.8873298 C58.1410628,31.198345 55.0951715,33.5693709 52.8664474,33.6195717 C52.0492802,34.7548838 51.4548905,35.8139292 51.4548905,36.4192358 Z M57.4480822,29.483792 C56.8536926,29.483792 54.6496163,31.2495112 53.2134117,33.1407326 C55.4914312,32.9640642 57.6462121,30.4173352 57.6462121,29.7357618 C57.6462121,29.6102596 57.5713209,29.483792 57.4480822,29.483792 Z" id="Combined-Shape"></path>
            </g>
        </g>
    </g>
</svg>