<?xml version="1.0" encoding="UTF-8"?>
<svg width="144px" height="144px" viewBox="0 0 144 144" version="1.1" xmlns="http://www.w3.org/2000/svg" xmlns:xlink="http://www.w3.org/1999/xlink">
    <!-- Generator: Sketch 52.2 (67145) - http://www.bohemiancoding.com/sketch -->
    <title>Group 6</title>
    <desc>Created with Sketch.</desc>
    <g id="Home" stroke="none" stroke-width="1" fill="none" fill-rule="evenodd">
        <g id="home-mani" transform="translate(-1142.000000, -543.000000)">
            <g id="Group-6" transform="translate(1144.000000, 545.000000)">
                <circle id="Oval" stroke="#D56681" stroke-width="4" cx="70" cy="70" r="70"></circle>
                <path d="M83.4952421,67.4568421 L83.4837895,67.4568421 L83.4837895,62.1320421 C83.4837895,60.3380211 82.0262737,58.8783158 80.2349474,58.8783158 L79.7842526,58.8783158 L79.7842526,40.4732632 C79.7842526,40.4330105 79.7414737,39.3594947 79.6525474,38.8382316 C79.2102737,36.2487579 77.6173474,33.3146947 75.0465684,30.7437474 C72.9113263,28.6085053 70.4190316,27.0581895 68.0289684,26.3779368 C65.3817263,25.6247579 63.1284211,26.0052211 61.6840421,27.4497684 C61.2023579,27.9314526 60.8454737,28.5020632 60.6078316,29.1403789 C60.4010105,29.6958316 60.2352842,30.4976842 60.2352842,31.1546947 L60.2352842,44.784 C60.2352842,45.4816 60.8006737,46.0471579 61.4984421,46.0471579 C62.1962105,46.0471579 62.7616,45.4816 62.7616,44.784 L62.7616,38.1765053 C63.3904842,39.0777263 64.1303579,39.9651368 64.9780211,40.8126316 C68.0363789,43.8708211 71.6085895,45.5466105 74.5030737,45.5466105 C75.5235368,45.5466105 76.4589474,45.3370947 77.2586105,44.9076211 L77.2586105,58.8781474 L62.7658105,58.8781474 L62.7617684,50.6120421 C62.7614316,49.9147789 62.1960421,49.3495579 61.4986105,49.3495579 C61.4984421,49.3495579 61.4981053,49.3495579 61.4979368,49.3495579 C60.8005053,49.3498947 60.2351158,49.9157895 60.2354526,50.6133895 L60.2396632,58.8781474 L59.7657263,58.8781474 C57.9715368,58.8781474 56.5118316,60.3378526 56.5118316,62.1318737 L56.5118316,67.4566737 L56.5052632,67.4566737 C55.1481263,67.4566737 54.0437895,68.5608421 54.0437895,69.9179789 L54.0437895,104.213221 C54.0437895,108.634442 57.6407579,112.231411 62.0618105,112.231411 L77.9392,112.231411 C82.3602526,112.231411 85.9572211,108.634442 85.9572211,104.213221 L85.9572211,69.9181474 C85.9567158,68.5610105 84.8523789,67.4568421 83.4952421,67.4568421 Z M76.5537684,42.3203368 C75.0181053,43.8568421 70.6191158,42.8816842 66.7639579,39.0263579 C62.9086316,35.1710316 61.9338105,30.7723789 63.4701474,29.2360421 C63.9370105,28.7691789 64.6528,28.5310316 65.5328,28.5310316 C66.0779789,28.5310316 66.6863158,28.6224842 67.3372632,28.8077474 C69.3205895,29.3721263 71.424,30.6940632 73.2599579,32.5300211 C77.1152842,36.3853474 78.0901053,40.7838316 76.5537684,42.3203368 Z M59.0376421,62.1320421 C59.0376421,61.7308632 59.3640421,61.4044632 59.7652211,61.4044632 L61.5028211,61.4044632 L78.5210947,61.4044632 L80.2347789,61.4044632 C80.6332632,61.4044632 80.9574737,61.7308632 80.9574737,62.1320421 L80.9574737,67.4568421 L59.0374737,67.4568421 L59.0374737,62.1320421 L59.0376421,62.1320421 Z M83.4304,69.9831579 L83.4304,80.6947368 L72.5157053,80.6947368 C71.8181053,80.6947368 71.2525474,81.2602947 71.2525474,81.9578947 C71.2525474,82.6554947 71.8179368,83.2210526 72.5157053,83.2210526 L83.4304,83.2210526 L83.4304,91.7893053 L56.5696,91.7893053 L56.5696,83.2210526 L66.6871579,83.2210526 C67.3847579,83.2210526 67.9503158,82.6554947 67.9503158,81.9578947 C67.9503158,81.2602947 67.3849263,80.6947368 66.6871579,80.6947368 L56.5696,80.6947368 L56.5696,69.9831579 L83.4304,69.9831579 Z M77.9386947,109.705432 L62.0613053,109.705432 C59.0330947,109.705432 56.5696,107.241768 56.5696,104.213558 L56.5696,94.3154526 L83.4304,94.3154526 L83.4304,104.213558 C83.4304,107.241768 80.9669053,109.705432 77.9386947,109.705432 Z" id="Shape" fill="#D56681" fill-rule="nonzero"></path>
            </g>
        </g>
    </g>
</svg>