<?xml version="1.0" encoding="UTF-8"?>
<svg width="82px" height="82px" viewBox="0 0 82 82" version="1.1" xmlns="http://www.w3.org/2000/svg" xmlns:xlink="http://www.w3.org/1999/xlink">
    <g id="Home" stroke="none" stroke-width="1" fill="none" fill-rule="evenodd">
        <g id="Mobile-Portrait" transform="translate(-240.000000, -489.000000)">
            <g id="makeup" transform="translate(241.000000, 490.000000)">
                <g id="Group-6">
                    <circle id="Oval" stroke="#DC2610" stroke-width="2" cx="40" cy="40" r="40"></circle>
                    <g id="014-lipstick" transform="translate(32.000000, 18.000000)" fill="#DC2610" fill-rule="nonzero">
                        <path d="M14.7476211,20.7284211 L14.7418947,20.7284211 L14.7418947,18.0660211 C14.7418947,17.1690105 14.0131368,16.4391579 13.1174737,16.4391579 L12.8921263,16.4391579 L12.8921263,7.23663158 C12.8921263,7.21650526 12.8707368,6.67974737 12.8262737,6.41911579 C12.6051368,5.12437895 11.8086737,3.65734737 10.5232842,2.37187368 C9.45566316,1.30425263 8.20951579,0.529094737 7.01448421,0.188968421 C5.69086316,-0.187621053 4.56421053,0.00261052632 3.84202105,0.724884211 C3.60117895,0.965726316 3.42273684,1.25103158 3.30391579,1.57018947 C3.20050526,1.84791579 3.11764211,2.24884211 3.11764211,2.57734737 L3.11764211,9.392 C3.11764211,9.7408 3.40033684,10.0235789 3.74922105,10.0235789 C4.09810526,10.0235789 4.3808,9.7408 4.3808,9.392 L4.3808,6.08825263 C4.69524211,6.53886316 5.06517895,6.98256842 5.48901053,7.40631579 C7.01818947,8.93541053 8.80429474,9.77330526 10.2515368,9.77330526 C10.7617684,9.77330526 11.2294737,9.66854737 11.6293053,9.45381053 L11.6293053,16.4390737 L4.38290526,16.4390737 L4.38088421,12.3060211 C4.38071579,11.9573895 4.09802105,11.6747789 3.74930526,11.6747789 C3.74922105,11.6747789 3.74905263,11.6747789 3.74896842,11.6747789 C3.40025263,11.6749474 3.11755789,11.9578947 3.11772632,12.3066947 L3.11983158,16.4390737 L2.88286316,16.4390737 C1.98576842,16.4390737 1.25591579,17.1689263 1.25591579,18.0659368 L1.25591579,20.7283368 L1.25263158,20.7283368 C0.574063158,20.7283368 0.0218947368,21.2804211 0.0218947368,21.9589895 L0.0218947368,39.1066105 C0.0218947368,41.3172211 1.82037895,43.1157053 4.03090526,43.1157053 L11.9696,43.1157053 C14.1801263,43.1157053 15.9786105,41.3172211 15.9786105,39.1066105 L15.9786105,21.9590737 C15.9783579,21.2805053 15.4261895,20.7284211 14.7476211,20.7284211 Z M11.2768842,8.16016842 C10.5090526,8.92842105 8.30955789,8.44084211 6.38197895,6.51317895 C4.45431579,4.58551579 3.96690526,2.38618947 4.73507368,1.61802105 C4.96850526,1.38458947 5.3264,1.26551579 5.7664,1.26551579 C6.03898947,1.26551579 6.34315789,1.31124211 6.66863158,1.40387368 C7.66029474,1.68606316 8.712,2.34703158 9.62997895,3.26501053 C11.5576421,5.19267368 12.0450526,7.39191579 11.2768842,8.16016842 Z M2.51882105,18.0660211 C2.51882105,17.8654316 2.68202105,17.7022316 2.88261053,17.7022316 L3.75141053,17.7022316 L12.2605474,17.7022316 L13.1173895,17.7022316 C13.3166316,17.7022316 13.4787368,17.8654316 13.4787368,18.0660211 L13.4787368,20.7284211 L2.51873684,20.7284211 L2.51873684,18.0660211 L2.51882105,18.0660211 Z M14.7152,21.9915789 L14.7152,27.3473684 L9.25785263,27.3473684 C8.90905263,27.3473684 8.62627368,27.6301474 8.62627368,27.9789474 C8.62627368,28.3277474 8.90896842,28.6105263 9.25785263,28.6105263 L14.7152,28.6105263 L14.7152,32.8946526 L1.2848,32.8946526 L1.2848,28.6105263 L6.34357895,28.6105263 C6.69237895,28.6105263 6.97515789,28.3277474 6.97515789,27.9789474 C6.97515789,27.6301474 6.69246316,27.3473684 6.34357895,27.3473684 L1.2848,27.3473684 L1.2848,21.9915789 L14.7152,21.9915789 Z M11.9693474,41.8527158 L4.03065263,41.8527158 C2.51654737,41.8527158 1.2848,40.6208842 1.2848,39.1067789 L1.2848,34.1577263 L14.7152,34.1577263 L14.7152,39.1067789 C14.7152,40.6208842 13.4834526,41.8527158 11.9693474,41.8527158 Z" id="Shape"></path>
                    </g>
                </g>
            </g>
        </g>
    </g>
</svg>