<?xml version="1.0" encoding="UTF-8"?>
<svg width="44px" height="120px" viewBox="0 0 44 120" version="1.1" xmlns="http://www.w3.org/2000/svg" xmlns:xlink="http://www.w3.org/1999/xlink">
    <title>Shape</title>
    <g id="Home" stroke="none" stroke-width="1" fill="none" fill-rule="evenodd">
        <g id="Artboard" transform="translate(-1235.000000, -98.000000)" fill="#FFFFFF" fill-rule="nonzero">
            <path d="M1275.6056,155.691487 L1275.58981,155.691487 L1275.58981,148.281468 C1275.58981,145.7849 1273.58029,143.753567 1271.11053,143.753567 L1270.48914,143.753567 L1270.48914,118.141003 C1270.48914,118.084988 1270.43016,116.591078 1270.30756,115.865685 C1269.69778,112.262161 1267.50157,108.179104 1263.95716,104.601361 C1261.01324,101.629947 1257.57703,99.4725198 1254.28178,98.5258769 C1250.63195,97.4777493 1247.52525,98.0072037 1245.53384,100.017443 C1244.86973,100.687757 1244.37768,101.481822 1244.05004,102.370105 C1243.76489,103.143076 1243.5364,104.258938 1243.5364,105.173237 L1243.5364,124.139846 C1243.5364,125.11063 1244.31592,125.897663 1245.27795,125.897663 C1246.23999,125.897663 1247.01951,125.11063 1247.01951,124.139846 L1247.01951,114.944824 C1247.88657,116.198967 1248.90665,117.433892 1250.07535,118.61327 C1254.292,122.869062 1259.21711,125.201099 1263.20783,125.201099 C1264.61477,125.201099 1265.90445,124.909536 1267.00697,124.311878 L1267.00697,143.753332 L1247.02531,143.753332 L1247.01974,132.250179 C1247.01927,131.279864 1246.23975,130.4933 1245.27818,130.4933 C1245.27795,130.4933 1245.27749,130.4933 1245.27726,130.4933 C1244.31569,130.493768 1243.53617,131.28127 1243.53663,132.252054 L1243.54244,143.753332 L1242.889,143.753332 C1240.4153,143.753332 1238.40276,145.784665 1238.40276,148.281234 L1238.40276,155.691252 L1238.39371,155.691252 C1236.52258,155.691252 1235,157.227819 1235,159.116417 L1235,206.841847 C1235,212.994441 1239.95925,218 1246.05468,218 L1267.94532,218 C1274.04075,218 1279,212.994441 1279,206.841847 L1279,159.116651 C1278.9993,157.228053 1277.47672,155.691487 1275.6056,155.691487 L1275.6056,155.691487 Z M1266.03998,121.040656 C1263.91788,123.162305 1257.83902,121.81578 1252.51166,116.492238 C1247.18407,111.168697 1245.83699,105.094915 1247.96002,102.973498 C1248.60517,102.328841 1249.5943,102 1250.81035,102 C1251.56372,102 1252.40437,102.12628 1253.3039,102.382097 C1256.04461,103.161407 1258.95127,104.986774 1261.48834,107.521916 C1266.81593,112.845458 1268.16301,118.919007 1266.03998,121.040656 Z M1242,147.96171 C1242,147.431434 1242.44695,147 1242.996,147 L1245.37411,147 L1268.66554,147 L1271.01091,147 C1271.55628,147 1272,147.431434 1272,147.96171 L1272,155 L1242,155 L1242,147.96171 L1242,147.96171 Z M1276,159 L1276,173.736549 L1260.96531,173.736549 C1260.00439,173.736549 1259.22535,174.514621 1259.22535,175.47435 C1259.22535,176.434079 1260.00416,177.212151 1260.96531,177.212151 L1276,177.212151 L1276,189 L1239,189 L1239,177.212151 L1252.93665,177.212151 C1253.89758,177.212151 1254.67662,176.434079 1254.67662,175.47435 C1254.67662,174.514621 1253.89781,173.736549 1252.93665,173.736549 L1239,173.736549 L1239,159 L1276,159 Z M1268.43533,214 L1246.56467,214 C1242.3934,214 1239,210.638272 1239,206.506205 L1239,193 L1276,193 L1276,206.506205 C1276,210.638272 1272.6066,214 1268.43533,214 Z" id="Shape"></path>
        </g>
    </g>
</svg>