<?xml version="1.0" encoding="UTF-8"?>
<svg width="120px" height="180px" viewBox="0 0 64 77"  version="1.1">
    <title>014-lipstick</title>
    <g id="Home" stroke="none" stroke-width="1" fill="none" fill-rule="evenodd">
        <g id="home-mani" transform="translate(-1198.000000, -571.000000)" fill="#DC2610" fill-rule="nonzero">
            <g id="makeup" transform="translate(1144.000000, 545.000000)">
                <g id="014-lipstick" transform="translate(54.000000, 26.000000)">
                    <path d="M29.4952421,41.4568421 L29.4837895,41.4568421 L29.4837895,36.1320421 C29.4837895,34.3380211 28.0262737,32.8783158 26.2349474,32.8783158 L25.7842526,32.8783158 L25.7842526,14.4732632 C25.7842526,14.4330105 25.7414737,13.3594947 25.6525474,12.8382316 C25.2102737,10.2487579 23.6173474,7.31469474 21.0465684,4.74374737 C18.9113263,2.60850526 16.4190316,1.05818947 14.0289684,0.377936842 C11.3817263,-0.375242105 9.12842105,0.00522105263 7.68404211,1.44976842 C7.20235789,1.93145263 6.84547368,2.50206316 6.60783158,3.14037895 C6.40101053,3.69583158 6.23528421,4.49768421 6.23528421,5.15469474 L6.23528421,18.784 C6.23528421,19.4816 6.80067368,20.0471579 7.49844211,20.0471579 C8.19621053,20.0471579 8.7616,19.4816 8.7616,18.784 L8.7616,12.1765053 C9.39048421,13.0777263 10.1303579,13.9651368 10.9780211,14.8126316 C14.0363789,17.8708211 17.6085895,19.5466105 20.5030737,19.5466105 C21.5235368,19.5466105 22.4589474,19.3370947 23.2586105,18.9076211 L23.2586105,32.8781474 L8.76581053,32.8781474 L8.76176842,24.6120421 C8.76143158,23.9147789 8.19604211,23.3495579 7.49861053,23.3495579 C7.49844211,23.3495579 7.49810526,23.3495579 7.49793684,23.3495579 C6.80050526,23.3498947 6.23511579,23.9157895 6.23545263,24.6133895 L6.23966316,32.8781474 L5.76572632,32.8781474 C3.97153684,32.8781474 2.51183158,34.3378526 2.51183158,36.1318737 L2.51183158,41.4566737 L2.50526316,41.4566737 C1.14812632,41.4566737 0.0437894737,42.5608421 0.0437894737,43.9179789 L0.0437894737,78.2132211 C0.0437894737,82.6344421 3.64075789,86.2314105 8.06181053,86.2314105 L23.9392,86.2314105 C28.3602526,86.2314105 31.9572211,82.6344421 31.9572211,78.2132211 L31.9572211,43.9181474 C31.9567158,42.5610105 30.8523789,41.4568421 29.4952421,41.4568421 L29.4952421,41.4568421 Z M22.5537684,16.3203368 C21.0181053,17.8568421 16.6191158,16.8816842 12.7639579,13.0263579 C8.90863158,9.17103158 7.93381053,4.77237895 9.47014737,3.23604211 C9.93701053,2.76917895 10.6528,2.53103158 11.5328,2.53103158 C12.0779789,2.53103158 12.6863158,2.62248421 13.3372632,2.80774737 C15.3205895,3.37212632 17.424,4.69406316 19.2599579,6.53002105 C23.1152842,10.3853474 24.0901053,14.7838316 22.5537684,16.3203368 Z M5.03747368,36.1320421 C5.03747368,35.7308632 5.36404211,35.4044632 5.76522105,35.4044632 L7.50282105,35.4044632 L24.5210947,35.4044632 L26.2347789,35.4044632 C26.6332632,35.4044632 26.9574737,35.7308632 26.9574737,36.1320421 L26.9574737,41.4568421 L5.03747368,41.4568421 L5.03747368,36.1320421 L5.03747368,36.1320421 Z M29.4304,43.9831579 L29.4304,54.6947368 L18.5157053,54.6947368 C17.8181053,54.6947368 17.2525474,55.2602947 17.2525474,55.9578947 C17.2525474,56.6554947 17.8179368,57.2210526 18.5157053,57.2210526 L29.4304,57.2210526 L29.4304,65.7893053 L2.5696,65.7893053 L2.5696,57.2210526 L12.6871579,57.2210526 C13.3847579,57.2210526 13.9503158,56.6554947 13.9503158,55.9578947 C13.9503158,55.2602947 13.3849263,54.6947368 12.6871579,54.6947368 L2.5696,54.6947368 L2.5696,43.9831579 L29.4304,43.9831579 Z M23.9386947,83.7054316 L8.06130526,83.7054316 C5.03309474,83.7054316 2.5696,81.2417684 2.5696,78.2135579 L2.5696,68.3154526 L29.4304,68.3154526 L29.4304,78.2135579 C29.4304,81.2417684 26.9669053,83.7054316 23.9386947,83.7054316 Z" id="Shape"></path>
                </g>
            </g>
        </g>
    </g>
</svg>