<?xml version="1.0" encoding="UTF-8"?>
<svg width="144px" height="144px" viewBox="0 0 144 144" version="1.1" xmlns="http://www.w3.org/2000/svg" xmlns:xlink="http://www.w3.org/1999/xlink">
    <g id="Home" stroke="none" stroke-width="1" fill="none" fill-rule="evenodd">
        <g id="home-mani" transform="translate(-142.000000, -543.000000)">
            <g id="nails" transform="translate(144.000000, 545.000000)">
                <g id="Group">
                    <circle id="Oval" stroke="#F24699" stroke-width="4" cx="70" cy="70" r="70"></circle>
                    <path d="M65.7011255,84.5228682 C63.9746404,84.5228682 62.2481553,84.2257193 60.7082455,83.6315616 C60.1913099,83.4321554 59.925799,82.8288955 60.115032,82.2843093 C60.304265,81.739443 60.8767479,81.4595181 61.3935505,81.6592044 C64.0505196,82.684242 67.3515984,82.684242 70.0085675,81.6592044 C70.5253702,81.4599382 71.097986,81.739583 71.2870861,82.2843093 C71.4763191,82.8288955 71.2108082,83.4321554 70.6938726,83.6315616 C69.1542285,84.2258594 67.4276106,84.5228682 65.7011255,84.5228682 Z M87.7771803,93.5515733 C88.287082,93.3650553 88.8521967,93.6283903 89.0384262,94.1401966 C89.2246557,94.652003 88.9618361,95.2182653 88.451541,95.4050463 C86.9314098,95.9613118 85.2271475,96.2395104 83.5238033,96.2395104 C81.8199344,96.2395104 80.1169836,95.9613118 78.5982951,95.4049148 C78.088,95.2180022 77.8255738,94.6516084 78.0119344,94.139802 C78.1982951,93.6279957 78.7631475,93.3646607 79.2733115,93.5517048 C81.8940328,94.5119172 85.1525246,94.5120488 87.7771803,93.5515733 Z M92.4302951,94.8825855 C92.9735082,94.8825855 93.4139016,95.3242832 93.4139016,95.8691051 L93.4139016,102.349487 C93.4139016,102.894309 92.9735082,103.336006 92.4302951,103.336006 C91.887082,103.336006 91.4466885,102.894309 91.4466885,102.349487 L91.4466885,95.8691051 C91.4466885,95.3242832 91.887082,94.8825855 92.4302951,94.8825855 Z M52.144918,89.0809295 C52.655082,88.8944115 53.2198033,89.1577465 53.4061639,89.6695528 C53.5922623,90.1814908 53.3295738,90.747753 52.8191475,90.9345341 C51.2992787,91.490668 49.5951475,91.768735 47.8910164,91.768735 C46.1868852,91.768735 44.4827541,91.490668 42.9627541,90.9345341 C42.452459,90.747753 42.1897705,90.1814908 42.3758689,89.6695528 C42.5620984,89.1577465 43.1266885,88.8941484 43.6369836,89.0809295 C46.2609836,90.0411419 49.5211803,90.0410104 52.144918,89.0809295 Z M100.055475,37.9342285 C102.415475,40.4347269 102.308459,44.3938274 99.8163934,46.7597644 L93.3568525,52.8903919 C93.3463607,52.9013094 93.3366557,52.9126215 93.3256393,52.9231444 C93.3139672,52.9341934 93.3015082,52.9437955 93.2895738,52.9541868 L90.548459,55.5557048 C90.1681311,55.9207171 89.6672787,56.1215725 89.1362623,56.1215725 C89.1175082,56.1215725 89.0987541,56.1213094 89.0798689,56.1209148 C88.5277377,56.1061828 88.0158689,55.8763894 87.6388197,55.4737579 L87.4733115,55.2984205 L79.5969836,62.7779491 C78.6876066,63.6422718 77.9589508,64.2327367 77.2347541,64.6924548 C76.4200656,65.2082073 75.6127213,65.5379679 74.8097049,65.683052 C75.3286557,66.9031795 75.5994754,68.2159082 75.5994754,69.552445 L75.5994754,75.5820528 C76.131541,74.8667604 76.7628852,74.2196035 77.4806557,73.6611019 L77.5582951,70.8044042 C77.5855738,69.8806272 78.3196066,69.1587579 79.2292459,69.1587579 L87.820459,69.1587579 C88.728,69.1587579 89.4603279,69.8806272 89.4876066,70.8020365 L89.5661639,73.6600496 C91.9838689,75.5400929 93.4135082,78.4345414 93.4135082,81.5020912 L93.4135082,91.3120422 C93.4135082,91.8568641 92.9731148,92.2985618 92.4299016,92.2985618 C91.8866885,92.2985618 91.4462951,91.8568641 91.4462951,91.3120422 L91.4462951,81.5020912 C91.4462951,79.6503282 90.794623,77.8765659 89.6432787,76.4695259 L89.8445902,83.7984458 C89.8883934,85.4467228 89.2674098,87.0183143 88.0961311,88.224762 C86.8980984,89.4588323 85.2313443,90.1664957 83.5230164,90.1664957 C81.8232131,90.1664957 80.1535738,89.4494932 78.9420328,88.199244 C77.7754754,86.995427 77.1586885,85.4321223 77.2051148,83.7975251 L77.4043279,76.4687367 C76.2519344,77.8761713 75.5996066,79.6503282 75.5996066,81.5022228 L75.5996066,102.349355 C75.5996066,102.894177 75.1592131,103.335875 74.616,103.335875 L74.6158689,103.335875 C74.0726557,103.335875 73.6322623,102.894177 73.6322623,102.349355 L73.6322623,69.5525765 C73.6322623,68.1652669 73.267541,66.8092628 72.5761311,65.6051828 C72.3340328,65.5441501 72.0920656,65.4665439 71.8500984,65.3713118 L72.026623,71.8523511 C72.0723934,73.4964189 71.4537705,75.0661689 70.2845902,76.2719589 C69.0862951,77.5076076 67.4184918,78.2163233 65.7087213,78.2163233 C64.008918,78.2163233 62.3392787,77.50011 61.1277377,76.2514393 C59.9607869,75.0486746 59.3426885,73.4864221 59.3871475,71.8523511 L59.587541,64.5198796 C58.4342295,65.927972 57.7815082,67.7018658 57.7815082,69.5525765 L57.7815082,76.9975112 C57.7815082,77.0092179 57.7820328,77.0209246 57.7820328,77.0326313 L57.7820328,102.349355 C57.7820328,102.894177 57.3416393,103.335875 56.7984262,103.335875 C56.7982951,103.335875 56.7981639,103.335875 56.7981639,103.335875 L56.7979016,103.335875 C56.2546885,103.335875 55.8142951,102.894177 55.8142951,102.349355 L55.8142951,77.0093494 C55.808918,75.1669254 55.1581639,73.4019761 54.0111475,72.0000659 L54.212459,79.3279336 C54.2561311,80.9762105 53.6351475,82.547802 52.4638689,83.7542497 C51.2659672,84.9881885 49.599082,85.6958519 47.8908852,85.6958519 C46.1914754,85.6958519 44.5222295,84.9799017 43.3109508,83.731494 C42.1433443,82.5280716 41.5248525,80.9642408 41.5693115,79.3280651 L41.7707541,72.0000659 C40.6190164,73.4078952 39.9672131,75.1816574 39.9672131,77.0326313 L39.9672131,102.349487 C39.9672131,102.894309 39.5268197,103.336006 38.9836066,103.336006 C38.4403934,103.336006 38,102.894309 38,102.349487 L38,77.0327628 C38,73.9665283 39.4297705,71.0720798 41.8478689,69.190195 L41.9262951,66.3337604 C41.9535738,65.4102465 42.6874754,64.6883772 43.5972459,64.6883772 L52.184918,64.6883772 C53.0946885,64.6883772 53.8285902,65.4102465 53.8558689,66.3316558 L53.9344262,69.1900635 C54.652459,69.7488282 55.282623,70.3974319 55.8148197,71.112856 L55.8148197,69.5525765 C55.8148197,66.4875259 57.2455082,63.5933404 59.6650492,61.711061 L59.7445246,58.8575202 C59.7716721,57.9322963 60.504,57.2087171 61.4118033,57.2087171 L70.0028852,57.2087171 C70.9043934,57.2087171 71.652459,57.9520267 71.6702951,58.8656754 L71.7038689,60.0430537 C72.6537705,59.4583764 73.356459,58.7830708 74.0814426,58.0860618 C74.1930492,57.9787285 82.5311475,50.0614483 82.5311475,50.0614483 L81.912918,49.4063993 C81.133377,48.5814058 81.1685246,47.2734123 81.9914754,46.490905 L87.0803934,41.6478829 C87.4744918,41.2728739 88.0970492,41.2894475 88.4709508,41.6844499 C88.8448525,42.0797154 88.828459,42.7041166 88.4344918,43.0791256 L86.8296393,44.606521 L92.6862951,50.8109401 L98.4643934,45.3269434 C100.165115,43.7120765 100.241049,41.0113805 98.6360656,39.3004924 C96.9371803,37.6063094 94.2919344,37.5280455 92.6077377,39.1243658 L91.2676721,40.4014483 C90.8740984,40.7768519 90.2514098,40.7608045 89.8771148,40.365802 C89.5029508,39.9709311 89.5188197,39.3463984 89.9126557,38.9711264 L91.2546885,37.6922024 C93.7231475,35.3521778 97.5799344,35.4508298 100.03659,37.9148927 C100.043016,37.9212064 100.049311,37.9277832 100.055475,37.9342285 Z M51.0545574,82.3777261 C51.8523279,81.556021 52.275541,80.4918952 52.2459016,79.3813372 L51.8965246,66.6612849 L43.8851148,66.6612849 L43.5357377,79.3821264 C43.5059672,80.4809777 43.9268197,81.5369483 44.7207869,82.3553649 C45.5638033,83.2244229 46.7193443,83.7228127 47.8908852,83.7228127 C49.0716066,83.7228127 50.2246557,83.2325782 51.0545574,82.3777261 Z M68.8744918,74.8962244 C69.6699016,74.0758347 70.0911475,73.0140765 70.060459,71.9065439 L69.8503607,64.1930128 C69.3669508,63.814847 68.8824918,63.3705185 68.3963279,62.8555553 C68.1575082,62.6024801 68.069377,62.2418086 68.1645902,61.9067865 C68.2599344,61.5716329 68.5243279,61.3118494 68.8603279,61.2231942 C69.1808525,61.1386166 69.4801311,61.0471991 69.7617049,60.9501256 L69.7112131,59.1816247 L61.7032131,59.1816247 L61.3538361,71.9061493 C61.3240656,73.0030275 61.7445246,74.0575512 62.5378361,74.8753102 C63.3812459,75.7444997 64.5370492,76.2431525 65.7089836,76.2431525 C66.8907541,76.2431525 68.044459,75.7522604 68.8744918,74.8962244 Z M79.1718033,83.8525071 C79.1405902,84.9509638 79.5601311,86.0057506 80.352918,86.8240357 C81.1961967,87.6944091 82.3517377,88.1934564 83.5231475,88.1934564 C84.7037377,88.1934564 85.856918,87.703222 86.6868197,86.8483698 C87.4845902,86.0266648 87.9076721,84.962539 87.8781639,83.851981 L87.5287869,71.1319287 L79.5175082,71.1319287 L79.1718033,83.8525071 Z M78.2443279,61.3456542 L79.6692459,59.9921493 L77.5346885,57.5211149 C77.5346885,57.5211149 75.5516066,59.4056305 75.4427541,59.5103331 C74.3436066,60.5672244 73.125377,61.738289 71.0001311,62.5924834 C73.2591475,64.3901852 74.8776393,63.851677 76.184,63.0247105 C76.7951475,62.6366795 77.4309508,62.1186909 78.2443279,61.3456542 Z M81.0990164,58.6343037 L86.1211803,53.8655994 L85.5167213,53.2251509 L83.8828852,51.4947955 L78.9645902,56.1635324 L81.0990164,58.6343037 Z M89.1927869,54.1265667 L91.2574426,52.1672073 L85.402623,45.9647612 L83.3453115,47.9226738 C83.3114754,47.9547685 83.3096393,48.0164589 83.3412459,48.0497375 L86.8973115,51.8178478 L88.2262295,53.2252824 C88.2285902,53.2277816 88.2305574,53.2305439 88.232918,53.233043 L89.0702951,54.120253 C89.0882623,54.1394573 89.1083279,54.1481386 89.1325902,54.1487963 C89.1561967,54.1505063 89.1766557,54.142088 89.1927869,54.1265667 Z" id="Combined-Shape" fill="#F24699"></path>
                </g>
            </g>
        </g>
    </g>
</svg>