<?xml version="1.0" encoding="UTF-8"?>
<svg width="180px" height="190px" viewBox="0 0 180 190" version="1.1" xmlns="http://www.w3.org/2000/svg" xmlns:xlink="http://www.w3.org/1999/xlink">
    <!-- Generator: Sketch 52.2 (67145) - http://www.bohemiancoding.com/sketch -->
    <title>Combined Shape</title>
    <desc>Created with Sketch.</desc>
    <g id="Service" stroke="none" stroke-width="1" fill="none" fill-rule="evenodd">
        <g id="-black-3" transform="translate(-99.000000, -190.000000)" fill="#F24699">
            <path d="M177.205407,326.91553 C172.33122,326.91553 167.457033,326.077073 163.109582,324.400556 C161.650177,323.837898 160.900591,322.135697 161.434831,320.599055 C161.96907,319.061622 163.585296,318.271766 165.044325,318.835215 C172.545441,321.727533 181.864998,321.727533 189.366114,318.835215 C190.825143,318.272951 192.441744,319.062017 192.975608,320.599055 C193.509848,322.135697 192.760262,323.837898 191.300857,324.400556 C186.954156,326.077469 182.079594,326.91553 177.205407,326.91553 Z M239.530198,352.391557 C240.969745,351.865265 242.565168,352.60831 243.090929,354.052458 C243.616689,355.496607 242.8747,357.094412 241.434043,357.621447 C237.142431,359.191045 232.330983,359.976029 227.522127,359.976029 C222.71179,359.976029 217.904044,359.191045 213.616505,357.621076 C212.175848,357.09367 211.43497,355.495494 211.9611,354.051345 C212.487231,352.607196 214.081914,351.864152 215.522201,352.391928 C222.920983,355.101331 232.120309,355.101702 239.530198,352.391557 Z M252.666803,356.147235 C254.200394,356.147235 255.443706,357.39356 255.443706,358.930868 L255.443706,377.216367 C255.443706,378.753675 254.200394,380 252.666803,380 C251.133211,380 249.889899,378.753675 249.889899,377.216367 L249.889899,358.930868 C249.889899,357.39356 251.133211,356.147235 252.666803,356.147235 Z M138.933723,339.776875 C140.37401,339.250583 141.968323,339.993627 142.494454,341.437776 C143.019844,342.882296 142.278226,344.480101 140.837198,345.007136 C136.546327,346.576362 131.735249,347.360976 126.924171,347.360976 C122.113093,347.360976 117.302015,346.576362 113.010774,345.007136 C111.570116,344.480101 110.828498,342.882296 111.353888,341.437776 C111.879648,339.993627 113.473591,339.249841 114.914249,339.776875 C122.322287,342.486278 131.526426,342.485907 138.933723,339.776875 Z M274.194099,195.457755 C280.856816,202.513336 280.554689,213.684612 273.519126,220.360506 L255.282646,237.659115 C255.253025,237.68992 255.225627,237.721839 255.194525,237.751532 C255.161573,237.782708 255.126399,237.809802 255.092705,237.839123 L247.354031,245.179749 C246.280295,246.209693 244.866296,246.776441 243.367138,246.776441 C243.314192,246.776441 243.261245,246.775698 243.207929,246.774585 C241.64916,246.733016 240.20406,246.084615 239.13958,244.948522 L238.67232,244.453777 L216.435988,265.55854 C213.868648,267.997374 211.811518,269.663471 209.766976,270.960644 C207.46696,272.415927 205.187678,273.346403 202.920614,273.755782 C204.385708,277.19858 205.150282,280.902667 205.150282,284.673933 L205.150282,301.687498 C206.652402,299.669178 208.434803,297.843115 210.461202,296.267208 L210.680393,288.206549 C210.757405,285.599955 212.829716,283.563078 215.397796,283.563078 L239.652382,283.563078 C242.214538,283.563078 244.282035,285.599955 244.359048,288.199868 L244.58083,296.264238 C251.406459,301.5691 255.442595,309.736279 255.442595,318.391893 L255.442595,346.072339 C255.442595,347.609647 254.199283,348.855972 252.665692,348.855972 C251.132101,348.855972 249.888788,347.609647 249.888788,346.072339 L249.888788,318.391893 C249.888788,313.166829 248.048997,308.161857 244.798539,304.191654 L245.366879,324.871449 C245.490544,329.522342 243.737392,333.956855 240.430655,337.361053 C237.048387,340.843192 232.342831,342.839985 227.519905,342.839985 C222.721046,342.839985 218.007345,340.81684 214.58694,337.28905 C211.293533,333.892275 209.552229,329.481145 209.683299,324.86885 L210.245715,304.189427 C206.992295,308.160743 205.150652,313.166829 205.150652,318.392265 L205.150652,377.215996 C205.150652,378.753304 203.90734,379.999629 202.373749,379.999629 L202.373378,379.999629 C200.839787,379.999629 199.596475,378.753304 199.596475,377.215996 L199.596475,284.674304 C199.596475,280.759774 198.566799,276.933578 196.614821,273.536061 C195.931333,273.363847 195.248214,273.144868 194.565096,272.876154 L195.063458,291.163509 C195.192676,295.802526 193.446189,300.231843 190.145377,303.634185 C186.762368,307.120778 182.05385,309.12054 177.226851,309.12054 C172.427992,309.12054 167.714291,307.099622 164.293886,303.576285 C160.999368,300.18248 159.254362,295.774319 159.379878,291.163509 L159.945626,270.473694 C156.689614,274.446866 154.846861,279.452209 154.846861,284.674304 L154.846861,305.681454 C154.846861,305.714487 154.848342,305.747519 154.848342,305.780552 L154.848342,377.215996 C154.848342,378.753304 153.60503,379.999629 152.071438,379.999629 C152.071068,379.999629 152.070698,379.999629 152.070698,379.999629 L152.069957,379.999629 C150.536366,379.999629 149.293054,378.753304 149.293054,377.215996 L149.293054,305.714858 C149.277874,300.516145 147.440674,295.53604 144.202435,291.580312 L144.770774,312.257137 C144.894069,316.908031 143.140917,321.342544 139.83418,324.746742 C136.452282,328.22851 131.746356,330.225303 126.923801,330.225303 C122.126052,330.225303 117.413462,328.205127 113.993798,324.682533 C110.697428,321.286872 108.951311,316.874257 109.076827,312.257509 L109.645537,291.580312 C106.393968,295.552742 104.553807,300.557714 104.553807,305.780552 L104.553807,377.216367 C104.553807,378.753675 103.310495,380 101.776903,380 C100.243312,380 99,378.753675 99,377.216367 L99,305.780923 C99,297.12902 103.036507,288.961841 109.863246,283.651783 L110.084658,275.591867 C110.161671,272.986015 112.233611,270.949138 114.802062,270.949138 L139.04665,270.949138 C141.615101,270.949138 143.687041,272.986015 143.764054,275.585928 L143.985836,283.651412 C146.012976,285.228062 147.792045,287.058207 149.294535,289.076898 L149.294535,284.674304 C149.294535,276.025742 153.333634,267.859305 160.164446,262.548134 L160.38882,254.496383 C160.465462,251.885706 162.532959,249.844004 165.095856,249.844004 L189.350071,249.844004 C191.895196,249.844004 194.007124,251.941379 194.057478,254.519394 L194.152263,257.841567 C196.834011,256.191801 198.817831,254.286311 200.864594,252.319582 C201.17968,252.016722 224.719676,229.676769 224.719676,229.676769 L222.9743,227.828437 C220.773511,225.500577 220.872739,221.809851 223.196082,219.601874 L237.56304,205.936463 C238.675652,204.878311 240.433247,204.925076 241.488841,206.039643 C242.544434,207.154952 242.498152,208.916806 241.38591,209.974957 L236.855114,214.284763 L253.389538,231.791588 L269.70218,216.317558 C274.503631,211.760936 274.718008,204.140463 270.186842,199.312901 C265.390574,194.532475 257.922555,194.31164 253.167756,198.81593 L249.384503,202.419435 C248.273371,203.4787 246.515406,203.43342 245.458702,202.318853 C244.402368,201.204658 244.447168,199.442433 245.559041,198.383539 L249.347848,194.774837 C256.316765,188.17206 267.205188,188.450423 274.140782,195.403196 C274.158925,195.421011 274.176697,195.439568 274.194099,195.457755 Z M135.855433,320.862646 C138.107687,318.544065 139.302496,315.541453 139.218818,312.407825 L138.232462,276.516033 L115.614769,276.516033 L114.628413,312.410052 C114.544365,315.510648 115.732509,318.490248 117.974026,320.79955 C120.354017,323.251745 123.616324,324.658037 126.923801,324.658037 C130.257196,324.658037 133.512467,323.274757 135.855433,320.862646 Z M186.164408,299.752316 C188.409997,297.437447 189.599252,294.441515 189.512613,291.316424 L188.919466,269.551383 C187.554711,268.484324 186.186993,267.230576 184.814462,265.777519 C184.14023,265.063425 183.89142,264.045728 184.160224,263.100407 C184.429399,262.154714 185.17583,261.42169 186.12442,261.171535 C187.029321,260.932884 187.87424,260.674934 188.669175,260.401025 L188.526627,255.410899 L165.91856,255.410899 L164.932204,291.31531 C164.848156,294.410339 166.03519,297.385857 168.274855,299.693303 C170.655957,302.145869 173.919004,303.552903 177.227592,303.552903 C180.563949,303.552903 183.821072,302.167767 186.164408,299.752316 Z M215.235625,325.023992 C215.147505,328.123474 216.331946,331.099734 218.570131,333.408665 C220.950863,335.864572 224.213169,337.272719 227.520276,337.272719 C230.8533,337.272719 234.108942,335.889439 236.451908,333.477328 C238.704162,331.158747 239.8986,328.156135 239.815293,325.022507 L238.828937,289.130715 L216.211614,289.130715 L215.235625,325.023992 Z M212.61719,261.517076 L216.639998,257.697932 L210.613747,250.725488 C210.613747,250.725488 205.015139,256.042969 204.707829,256.338405 C201.604732,259.320604 198.165444,262.624962 192.165481,265.035217 C198.543103,270.107739 203.112405,268.588246 206.800503,266.254819 C208.525886,265.159924 210.320876,263.698331 212.61719,261.517076 Z M220.676504,253.866539 L234.855003,240.410829 L233.148504,238.603694 L228.535882,233.721202 L214.650624,246.894838 L220.676504,253.866539 Z M243.526717,241.147193 L249.355623,235.618526 L232.826383,218.117269 L227.018211,223.641853 C226.922686,223.732414 226.917502,223.906484 227.006734,224.000385 L237.046165,234.632749 L240.797947,238.604066 C240.804612,238.611117 240.810165,238.618912 240.81683,238.625963 L243.1809,241.129377 C243.231625,241.183565 243.288274,241.208061 243.356771,241.209917 C243.423417,241.214742 243.481176,241.190988 243.526717,241.147193 Z" id="Combined-Shape"></path>
        </g>
    </g>
</svg>