<?xml version="1.0" encoding="UTF-8"?>
<svg width="115px" height="121px" viewBox="0 0 115 121" version="1.1" xmlns="http://www.w3.org/2000/svg" xmlns:xlink="http://www.w3.org/1999/xlink">
    <title>Combined Shape</title>
    <g id="Home" stroke="none" stroke-width="1" fill="none" fill-rule="evenodd">
        <g id="Artboard" transform="translate(-98.000000, -103.000000)" fill="#FFFFFF">
            <path d="M196.230918,208.836037 C197.159073,208.836037 197.92033,209.551113 197.994135,210.460547 L198,210.605681 L198,222.230356 C198,223.207671 197.207923,224 196.230918,224 C195.302764,224 194.541506,223.284923 194.467701,222.37549 L194.461836,222.230356 L194.461836,210.605681 C194.461836,209.628365 195.253913,208.836037 196.230918,208.836037 Z M209.8955,106.440982 C209.907091,106.452328 209.918445,106.464146 209.929563,106.475728 C214.112907,110.891549 213.998607,117.838815 209.72699,122.112419 L209.498331,122.334849 L197.847246,133.351331 C197.828322,133.370949 197.810817,133.391277 197.790947,133.410186 L197.758598,133.43852 L197.758598,133.43852 L197.725895,133.465968 L192.781742,138.140787 C192.095744,138.796699 191.192356,139.157628 190.23456,139.157628 C190.200734,139.157628 190.166907,139.157155 190.132843,139.156446 C189.21357,139.13201 188.356174,138.778285 187.694802,138.154949 L187.533621,137.993532 L187.235093,137.678458 L173.028548,151.11886 C171.388303,152.672012 170.074025,153.733052 168.767791,154.559147 C167.298335,155.485932 165.842127,156.078499 164.393725,156.339209 C165.267356,158.385559 165.751116,160.576863 165.811735,162.812614 L165.818236,163.292347 L165.818236,174.127301 C166.671291,172.984767 167.665834,171.938973 168.785581,171.015817 L169.211324,170.675432 L169.351362,165.542065 C169.398807,163.941362 170.631597,162.678025 172.190723,162.589829 L172.365259,162.584908 L187.861244,162.584908 C189.439715,162.584908 190.724325,163.791076 190.858186,165.361825 L190.868281,165.537811 L191.009975,170.673541 C195.269379,173.973334 197.828535,179.012174 197.945262,184.381311 L197.949436,184.765364 L197.949436,202.393437 C197.949436,203.372459 197.155098,204.166172 196.175303,204.166172 C195.244498,204.166172 194.481068,203.449846 194.407052,202.538825 L194.40117,202.393437 L194.40117,184.765364 C194.40117,181.570924 193.317901,178.50566 191.393925,176.02859 L191.149067,175.722053 L191.512173,188.891817 C191.591181,191.853702 190.471111,194.677787 188.358474,196.845723 C186.19758,199.063296 183.191253,200.334938 180.10994,200.334938 C177.044002,200.334938 174.03247,199.046514 171.847212,196.799868 C169.824018,194.71986 168.717635,192.042602 168.709965,189.228484 L168.71433,188.890163 L169.073651,175.720635 C167.07822,178.148572 165.914044,181.18383 165.824102,184.36697 L165.818472,184.7656 L165.818472,222.227029 C165.818472,223.1571 165.101582,223.920142 164.189842,223.994121 L164.044339,224 L163.898601,223.994121 C163.037513,223.924252 162.350226,223.239756 162.276518,222.380405 L162.26997,222.227029 L162.26997,163.292583 C162.26997,160.799646 161.612122,158.362963 160.365025,156.199281 C160.073909,156.126165 159.782899,156.039814 159.491924,155.939665 L159.055478,155.779025 L159.373876,167.425182 C159.456432,170.379504 158.340621,173.200279 156.231768,175.367034 C154.070402,177.587443 151.062182,178.860975 147.978266,178.860975 C144.912328,178.860975 141.900797,177.57397 139.715539,175.330161 C137.691662,173.25197 136.583066,170.576531 136.572072,167.763391 L136.576033,167.425182 L136.937483,154.249036 C134.940463,156.678108 133.775569,159.712976 133.685572,162.894201 L133.679939,163.292583 L133.679939,176.670821 L133.680412,176.702375 L133.680412,176.702375 L133.680885,222.227029 C133.680885,223.1571 132.963995,223.920142 132.052254,223.994121 L131.906752,224 C130.975049,224 130.211573,223.283461 130.137555,222.372418 L130.131673,222.227029 L130.131673,176.692094 C130.122363,173.513765 129.040247,170.46374 127.123284,167.996019 L126.879333,167.69062 L127.242439,180.858493 C127.32121,183.820378 126.201141,186.644462 124.088504,188.812399 C121.927847,191.029735 118.921283,192.301377 115.840206,192.301377 C112.774978,192.301377 109.764156,191.014844 107.579371,188.771508 C105.554357,186.692181 104.445061,184.014075 104.434015,181.19737 L104.437973,180.858729 L104.801315,167.69062 C102.80702,170.119238 101.643761,173.153869 101.553891,176.335495 L101.548266,176.73393 L101.548266,222.227265 C101.548266,223.206288 100.753927,224 99.7741328,224 C98.8433281,224 98.0798975,223.283675 98.0058814,222.372653 L98,222.227265 L98,176.734167 C98,171.352408 100.460326,166.265151 104.639017,162.880262 L104.940407,162.641399 L105.081865,157.508505 C105.12931,155.908257 106.36188,154.644937 107.921203,154.556741 L108.095762,154.551819 L123.58536,154.551819 C125.167709,154.551819 126.455097,155.757988 126.589152,157.328737 L126.599257,157.504723 L126.740951,162.641162 C127.892166,163.533675 128.918155,164.553743 129.806125,165.672315 L130.13262,166.09634 L130.13262,163.292583 C130.13262,157.912902 132.594526,152.826145 136.775715,149.440617 L137.077285,149.201706 L137.220635,144.074012 C137.267852,142.470802 138.497774,141.204518 140.053726,141.116114 L140.227908,141.111182 L155.723657,141.111182 C157.291635,141.111182 158.602265,142.353175 158.722727,143.913979 L158.731167,144.088667 L158.791724,146.204366 C160.505063,145.153726 161.772503,143.94023 163.080157,142.687734 C163.278882,142.497333 177.937716,128.630326 178.313551,128.274793 L178.320904,128.267837 L177.205802,127.090741 C175.848228,125.659382 175.860514,123.418918 177.199013,122.000476 L177.347497,121.851719 L186.526386,113.14901 C187.237222,112.475135 188.36013,112.504917 189.034537,113.21472 C189.671477,113.885536 189.680488,114.92362 189.080899,115.604579 L188.968776,115.720894 L186.074101,118.46556 L196.63776,129.614643 L207.059726,119.760129 C210.12732,116.85828 210.264283,112.005242 207.369371,108.930847 C204.371704,105.952653 199.740493,105.753321 196.696605,108.431543 L196.496066,108.614355 L194.078988,110.909219 C193.369098,111.583804 192.245954,111.554967 191.570837,110.845164 C190.93345,110.175018 190.923571,109.13676 191.522865,108.455382 L191.634943,108.33899 L194.055569,106.040817 C198.507933,101.835891 205.464426,102.013164 209.8955,106.440982 Z M172.567209,206.448668 C177.28075,208.171122 183.141364,208.171358 187.861982,206.448433 C188.779074,206.113852 189.795471,206.586229 190.130417,207.50432 C190.465363,208.422412 189.992664,209.438187 189.074865,209.77324 C186.340808,210.771084 183.275579,211.270123 180.212001,211.270123 C177.147479,211.270123 174.084609,210.771084 171.353147,209.773004 C170.435347,209.437716 169.963356,208.421704 170.298538,207.503612 C170.63372,206.585521 171.649645,206.113144 172.567209,206.448668 Z M125.788123,199.441952 C126.123789,200.361883 125.649977,201.379433 124.729321,201.715071 C121.987931,202.71442 118.914187,203.214095 115.840443,203.214095 C112.766698,203.214095 109.692954,202.71442 106.951328,201.715071 C106.030908,201.379433 105.557096,200.361883 105.892762,199.441952 C106.228664,198.522257 107.247017,198.048583 108.167437,198.38422 C112.90035,200.109682 118.780772,200.109446 123.513212,198.38422 C124.433395,198.049055 125.451984,198.522257 125.788123,199.441952 Z M187.335154,166.130613 L172.885198,166.130613 L172.261649,188.988963 C172.20535,190.962844 172.962077,192.858252 174.392028,194.328676 C175.913051,195.892701 177.997302,196.789468 180.110176,196.789468 C182.239609,196.789468 184.319602,195.908537 185.816497,194.372404 C187.18349,192.969662 187.940549,191.173774 187.967205,189.286692 L187.965326,188.988018 L187.335154,166.130613 Z M140.40927,185.115596 C145.188006,186.954334 151.125215,186.954334 155.903951,185.115596 C156.833455,184.758147 157.863342,185.259781 158.203452,186.236925 C158.5438,187.213818 158.066261,188.295961 157.136518,188.653661 C154.367365,189.719727 151.261928,190.252509 148.15673,190.252509 C145.051532,190.252509 141.946334,189.719476 139.176704,188.653661 C138.246961,188.295961 137.769422,187.213818 138.10977,186.236925 C138.450118,185.25953 139.479766,184.757393 140.40927,185.115596 Z M123.065184,158.097052 L108.614991,158.097052 L107.984819,180.955875 C107.931122,182.930465 108.690214,184.828 110.122294,186.298661 C111.642844,187.860322 113.727096,188.755908 115.840206,188.755908 C117.969875,188.755908 120.049632,187.874977 121.546527,186.338843 C122.91352,184.936102 123.670793,183.140213 123.697267,181.253131 L123.695356,180.954457 L123.065184,158.097052 Z M155.197567,144.656415 L140.753524,144.656415 L140.123353,167.521855 C140.069655,169.4929 140.828038,171.387835 142.258935,172.857314 C143.780195,174.419211 145.864919,175.31527 147.978739,175.31527 C150.110301,175.31527 152.19124,174.433157 153.688372,172.894896 C155.05132,171.4944 155.805188,169.702464 155.829709,167.820432 L155.827503,167.522564 L155.448548,153.66167 C154.576621,152.982122 153.702801,152.183682 152.825907,151.258315 C152.395147,150.803549 152.236185,150.155438 152.407921,149.553417 C152.579893,148.95116 153.05678,148.48434 153.662824,148.32503 C154.096422,148.211043 154.508465,148.090143 154.901646,147.963226 L155.288639,147.834337 L155.197567,144.656415 Z M169.308783,141.672548 C169.308783,141.672548 165.731895,145.058944 165.535557,145.24709 C163.553023,147.14628 161.3557,149.250634 157.522391,150.785586 C161.596982,154.015981 164.516259,153.048304 166.872544,151.56228 C167.896134,150.91481 168.958069,150.065981 170.279186,148.83582 L170.58876,148.545085 L173.158887,146.112893 L169.308783,141.672548 Z M180.759036,130.843502 L171.887899,139.233028 L175.737767,143.672901 L184.796252,135.103738 L183.705988,133.952879 L180.759036,130.843502 Z M183.500189,120.906261 L179.789413,124.424548 C179.740589,124.470687 179.728704,124.550862 179.755092,124.611704 L179.78208,124.652877 L186.196161,131.424014 L188.593133,133.953115 L188.605197,133.967061 L190.115575,135.56134 C190.147983,135.59585 190.184175,135.61145 190.227937,135.612631 C190.256323,135.61468 190.282186,135.608639 190.304895,135.596121 L190.336514,135.572686 L194.060537,132.051798 L183.500189,120.906261 Z" id="Combined-Shape"></path>
        </g>
    </g>
</svg>