<?xml version="1.0" encoding="UTF-8"?>
<svg width="82px" height="82px" viewBox="0 0 82 82" version="1.1" xmlns="http://www.w3.org/2000/svg" xmlns:xlink="http://www.w3.org/1999/xlink">
    <g id="Home" stroke="none" stroke-width="1" fill="none" fill-rule="evenodd">
        <g id="Mobile-Portrait" transform="translate(-235.000000, -336.000000)">
            <g id="spa" transform="translate(236.000000, 337.000000)">
                <g id="Group-3">
                    <circle id="Oval" stroke="#297B7C" stroke-width="2" cx="40" cy="40" r="40"></circle>
                    <path d="M55.6007623,21.0234536 C55.896154,21.1116602 56.0645347,21.4237469 55.9767357,21.7205844 L54.6985899,26.041136 C54.626565,26.2846011 54.4044631,26.4421769 54.1639086,26.4421769 C54.1112292,26.4421769 54.0577313,26.4345522 54.0046799,26.4187797 C53.7092882,26.3305731 53.5409074,26.0184864 53.6287065,25.7216489 L54.9068522,21.401172 C54.9946513,21.1044093 55.3051474,20.9350228 55.6007623,21.0234536 Z M43.3014424,36.850562 C43.5201441,36.6114769 43.8712356,36.6151007 44.0859435,36.8583037 C44.3005774,37.1016713 44.297471,37.4927068 44.0789172,37.7317919 C43.795204,38.0421166 43.4219243,38.1972789 43.0483489,38.1972789 C42.6753651,38.1972789 42.3020855,38.0426107 42.0174847,37.7331096 C41.7983392,37.4947658 41.7941234,37.1036479 42.0081657,36.8596214 C42.2222079,36.6155125 42.5734473,36.6109004 42.7925928,36.8492443 C42.9337098,37.0026771 43.1619525,37.0032536 43.3014424,36.850562 Z M37.2062043,36.850562 C37.4248321,36.6114769 37.7759975,36.6151007 37.9907054,36.8583037 C38.2053393,37.1016713 38.2022329,37.4927068 37.9836791,37.7317919 C37.6999659,38.0421166 37.3266862,38.1972789 36.9531108,38.1972789 C36.580127,38.1972789 36.2068474,38.0426107 35.9222466,37.7331096 C35.7031011,37.4947658 35.6988853,37.1036479 35.9129276,36.8596214 C36.1269698,36.6155125 36.4782092,36.6109004 36.6973547,36.8492443 C36.8384717,37.0026771 37.0667144,37.0032536 37.2062043,36.850562 Z M53.4204464,27.917333 C53.718601,28.0057072 53.8883313,28.3181972 53.7995609,28.6153471 L53.0608584,31.0886276 C52.9132081,31.5831789 52.7835822,31.9814241 52.6692019,32.332676 C52.3407813,33.3413842 52.1759326,33.8477587 52.1300453,34.9273308 C52.1297449,34.9346642 52.1292943,34.9419227 52.1286935,34.9491812 C52.1048862,35.2402698 52.0955735,35.5373448 52.0865613,35.8246171 C52.0432275,37.207101 51.9983165,38.6365033 50.415018,39.9175178 L46.8893586,43.1960438 C46.5949591,43.4705201 46.2159948,43.6182345 45.8117212,43.6182345 C45.7709409,43.6182345 45.7299353,43.6166631 45.6887043,43.6136699 C45.6715811,43.6124726 45.654608,43.6103774 45.6375599,43.6085815 C45.043654,44.3250785 44.2894054,45.0265348 43.4812337,45.6020522 L43.4812337,46.9432299 L43.6044009,46.9745837 C46.5155764,47.7153257 51.9343297,49.0940681 52.1827668,53.1794109 L52.4342832,58.0867611 C52.4508807,58.3697681 52.4375125,58.7341153 52.1816403,59.0044012 C51.9242661,59.2762585 51.5631009,59.3129252 51.2437676,59.3129252 L28.6358383,59.3129252 C28.316505,59.3129252 27.9553399,59.2762585 27.6979656,59.0044012 C27.4420934,58.7341153 27.4286502,58.3697681 27.4455481,58.0825706 L27.6965387,53.1847987 C27.9427979,49.0956395 33.3595985,47.7164481 36.2697226,46.9754816 L36.3983722,46.9427061 L36.3983722,45.6033991 C35.5897499,45.0276572 34.835276,44.3255275 34.2416705,43.6085066 C34.224322,43.6103774 34.2069734,43.6124726 34.1895498,43.6137447 C34.148469,43.6167379 34.1076136,43.6182345 34.0669835,43.6182345 C33.6632356,43.6182345 33.2841211,43.4708195 32.98852,43.1964179 L29.4646631,39.9175926 C27.8800127,38.6370271 27.8357776,37.2082983 27.7928944,35.8262634 C27.7838822,35.5383924 27.7747198,35.2407936 27.7508374,34.9491063 C27.7502365,34.9418478 27.7497859,34.9345145 27.7494855,34.927256 C27.7037485,33.8507519 27.528761,33.3143706 27.211155,32.340608 C27.0959487,31.9873357 26.9652713,31.5869204 26.8164944,31.0884031 L24.0234543,21.721186 C23.9349091,21.424111 24.1047896,21.1116958 24.4030193,21.0233965 C24.7013241,20.9353216 25.0147244,21.1044373 25.1033447,21.4015872 L27.8962347,30.7686546 C28.0409561,31.2534032 28.1692301,31.6467096 28.2824087,31.9936962 C28.6183396,33.0234316 28.8214152,33.6461667 28.8744371,34.8688886 C28.8999718,35.1850453 28.9095097,35.4933448 28.9187472,35.7916171 C28.9587015,37.0792166 28.9902443,38.0963057 30.1874439,39.056524 C30.1982586,39.0651295 30.2086226,39.0741839 30.2186863,39.0835376 L33.7568126,42.3756078 C33.8759242,42.4860569 34.0131354,42.5011726 34.1069377,42.4942882 C34.2695333,42.4823902 34.4241682,42.3991045 34.5311133,42.2656826 C34.7871357,41.944662 34.499946,41.4955324 34.3645373,41.3173623 L32.3928867,38.7188163 C31.5682677,38.6170475 30.9029398,37.9420063 30.8475146,37.0862506 L30.6835671,34.517038 C30.6638904,34.2076909 30.8994851,33.9409968 31.2099564,33.9213165 C31.5210286,33.9017111 31.788091,34.1365276 31.8078428,34.4457999 L31.9717903,37.0144887 C31.9943959,37.3639447 32.298033,37.6316115 32.648083,37.6099108 C32.9962555,37.5885843 33.2627171,37.2864208 33.2422893,36.9363662 L33.1379728,35.1352085 C33.0422178,33.4808673 32.6121092,32.4473904 31.6997711,31.67956 C31.6277484,31.6188728 31.5576783,31.5653694 31.4834776,31.5087231 C31.1321509,31.2404576 30.7688829,30.9631377 30.4774875,30.1578175 L30.3650599,29.8492934 C30.3612297,29.8388921 30.3576999,29.828341 30.3545456,29.8176404 L27.9404697,21.721186 C27.8519245,21.4240362 28.0218051,21.1116958 28.3200348,21.0233965 C28.6182645,20.9350971 28.9317399,21.1044373 29.0203601,21.4015872 L31.4296295,29.4822524 L31.5367249,29.7762594 C31.6526071,30.0964569 31.7607539,30.261008 31.9009692,30.3972734 C31.9898147,30.1394093 32.0900758,29.8856608 32.2019776,29.636926 C31.8777627,26.5893253 32.8811993,24.057827 35.039328,22.4966491 C37.0858551,21.0162876 39.9724723,20.6566547 42.0589537,21.622186 C43.4031277,22.2442476 44.2341304,23.3204524 44.423237,24.671807 C44.6610848,24.8427935 44.8810583,25.0399705 45.0787266,25.2629639 C45.7106341,25.9760936 46.0882465,26.8970262 46.1582415,27.8829112 C47.0327282,28.4920272 47.7221637,29.252225 48.1916258,30.1177834 C48.24262,30.0267153 48.2918118,29.9172391 48.3424305,29.777307 L48.4499764,29.4821027 L50.8592458,21.401662 C50.9478661,21.104587 51.2611913,20.9351719 51.5595712,21.0234713 C51.8578009,21.1117707 52.0277565,21.424111 51.9391362,21.7212609 L49.5251354,29.8177152 C49.521906,29.828341 49.5184513,29.8388921 49.5146211,29.8493683 L49.4018181,30.1590896 C49.1108732,30.9632125 48.7476053,31.2406073 48.3962785,31.5087979 C48.3221529,31.5654442 48.2520077,31.6189477 48.1800601,31.67956 C47.2675719,32.4461183 46.8375383,33.4795203 46.7417833,35.1352085 L46.6373917,36.9361417 C46.616964,37.2864956 46.8835007,37.5886591 47.231598,37.6099857 C47.3998263,37.6200129 47.5630228,37.5638904 47.6910715,37.4512713 C47.8191203,37.3385025 47.8953488,37.1839037 47.9057128,37.0158356 L48.0718383,34.4454257 C48.0918154,34.1361534 48.3602296,33.9014866 48.6701001,33.9214662 C48.9804963,33.941371 49.2159408,34.2082895 49.1959637,34.5175618 L49.0299134,37.0862506 C49.0012995,37.5521421 48.7906387,37.9810675 48.4368336,38.2925099 C48.165941,38.5309182 47.8363938,38.6763877 47.4864188,38.7191156 L45.5130409,41.3172874 C45.3788338,41.4947841 45.0925453,41.9449613 45.3493939,42.2668799 C45.4552125,42.3995534 45.6090212,42.4823902 45.7714666,42.494363 C45.865344,42.5012474 46.0020295,42.4863562 46.1202399,42.3760568 L49.6609948,39.0834628 C49.6709833,39.0741839 49.6812723,39.065354 49.6918616,39.0568233 C50.8883853,38.0960064 50.9202286,37.078169 50.9607085,35.7895967 C50.9700211,35.491923 50.9797093,35.1842221 51.0051688,34.8688886 C51.0582659,33.6434728 51.2615668,33.0189418 51.597798,31.9863629 C51.7101505,31.6411722 51.8374482,31.249961 51.9811933,30.7685049 L52.7198957,28.2951496 C52.8087413,27.9981494 53.1223669,27.8288839 53.4204464,27.917333 Z M46.0675935,29.2367352 C45.858735,30.3132393 45.3355751,31.2466685 44.5626262,31.883322 C44.3261303,32.0781044 44.0710842,32.2401862 43.8022193,32.3703155 C44.5243993,32.749479 45.1873239,33.2352004 45.765834,33.8142348 C45.9587708,32.82386 46.3796419,31.7787845 47.3378672,30.9224302 C47.0464718,30.2885454 46.6215452,29.7246267 46.0675935,29.2367352 Z M35.701126,23.4047858 C34.2972459,24.4203783 33.4760065,25.945114 33.3036476,27.7994009 C33.8358198,27.1085705 34.4693795,26.4857606 35.1894567,25.9537194 C37.0898355,24.5496845 39.4668111,23.8398473 42.0605308,23.8999358 C42.4119327,23.9083167 42.7524448,23.9572555 43.0778614,24.0424869 C42.7364481,23.3158129 42.118134,22.8870371 41.5843847,22.6400234 C39.8514831,21.8380705 37.43215,22.1525809 35.701126,23.4047858 Z M32.8298296,31.2023692 C33.5864814,32.0012541 33.9410376,32.9289962 34.1134716,33.8129627 C35.6283523,32.297057 37.7233953,31.4206482 39.9389017,31.4206482 C39.9393524,31.4206482 39.9394275,31.4206482 39.9398781,31.4206482 C40.4667931,31.4207231 40.9866485,31.4710088 41.4937367,31.5669408 C41.5090575,31.5685123 41.5243032,31.5702334 41.539699,31.5730769 C42.4104306,31.735009 43.2075624,31.5430701 43.8449523,31.0180629 C44.6001021,30.3961509 45.0367446,29.3657421 45.0434287,28.1905372 C45.0353177,27.1381284 44.5480564,26.0662637 43.6143894,25.4781001 C43.6041005,25.4722633 43.5942621,25.465828 43.5843487,25.4593926 C43.1576947,25.1980863 42.6400923,25.0365284 42.0338696,25.0220862 C38.5483147,24.9396984 35.5686462,26.4062163 33.9149772,28.8443268 C36.1892134,27.8472921 39.317884,27.5538838 41.7537395,28.2103672 C42.0540721,28.2912584 42.2316881,28.5994083 42.1504278,28.8986534 C42.0692426,29.1978236 41.7600481,29.3748714 41.4596404,29.2939053 C38.7794033,28.571796 35.0365492,29.1497079 33.1161181,30.5823279 C33.0812708,30.6082939 33.0439452,30.6279742 33.0057934,30.644811 C32.9410556,30.8273961 32.8824761,31.0133486 32.8298296,31.2023692 Z M51.0580406,53.2419688 C50.8596213,49.9790823 46.1435215,48.7791087 43.3256977,48.0623123 L43.1658057,48.0216048 C42.4601481,47.8427611 42.354705,47.3290533 42.354705,47.0387878 L42.354705,46.2993179 C41.5636566,46.7138012 40.7685526,46.9688966 40.0611677,46.9689714 C40.0203122,46.9689714 39.9799825,46.9680735 39.9397279,46.9664272 C39.8994732,46.9681483 39.8589933,46.9689714 39.8181379,46.9689714 C39.1103774,46.9689714 38.3154988,46.7142502 37.5248258,46.3003655 L37.5248258,47.0387878 C37.5248258,47.3295023 37.4189321,47.8438836 36.7096696,48.0220538 L36.548576,48.0630606 C33.7320289,48.7802311 29.018032,49.9804292 28.821265,53.2470572 L28.5703495,58.144006 C28.5694482,58.1605435 28.5686972,58.1756591 28.5681715,58.1895027 C28.5879984,58.1901013 28.6104539,58.1904754 28.6358383,58.1904754 L31.3190044,58.1904754 L31.3190044,54.9505617 C31.3190044,54.4142553 31.7560225,53.9778468 32.2931513,53.9778468 L38.5837628,53.9778468 C38.8948349,53.9778468 39.1470272,54.2291259 39.1470272,54.5390717 C39.1470272,54.8490175 38.8948349,55.1002965 38.5837628,55.1002965 L32.4455331,55.1002965 L32.4455331,58.1904754 L47.4341479,58.1904754 L47.4341479,55.1002965 L41.1831152,55.1002965 C40.872043,55.1002965 40.6198508,54.8490175 40.6198508,54.5390717 C40.6198508,54.2291259 40.872043,53.9778468 41.1831152,53.9778468 L47.5844268,53.9778468 C48.1226822,53.9778468 48.5606766,54.4141804 48.5606766,54.9505617 L48.5606766,58.1904754 L51.2438427,58.1904754 C51.2692272,58.1904754 51.2916826,58.1901013 51.3115095,58.1895027 C51.3110589,58.1768564 51.310383,58.1630877 51.3094818,58.1481965 L51.0580406,53.2419688 Z M44.6139959,40.6408992 L46.2898951,38.434612 C45.7903172,38.0980268 45.4753398,37.5138291 45.5128907,36.8711892 L45.6018114,35.3368005 C44.5673576,33.9518472 43.0930319,33.0296425 41.4131523,32.6895402 C41.3864911,32.6850504 41.3599051,32.6814586 41.3332439,32.6765198 C41.3169468,32.6735266 41.3011003,32.6694858 41.2854791,32.6651456 C40.8488365,32.5849279 40.3991263,32.5431728 39.9398781,32.5430979 L39.9389768,32.5430979 C37.6577562,32.5430979 35.6058217,33.5580918 34.2780198,35.3348549 L34.3670156,36.8714137 C34.4045666,37.5139788 34.089514,38.0982513 33.5897108,38.4347617 L35.2629815,40.6400761 C35.8659747,41.4334236 35.9232775,42.3245738 35.4121339,42.9652681 C35.373156,43.0139076 35.3316997,43.0601525 35.2882157,43.1039281 C36.6793285,44.6918203 38.6943128,45.9085558 39.909612,45.8440523 C39.9298144,45.8429299 39.9500168,45.8429299 39.9701441,45.8440523 C41.1838662,45.9093789 43.1983248,44.6919699 44.5910147,43.1039281 C44.5476058,43.0600777 44.5063749,43.0139076 44.4675472,42.9652681 C43.957455,42.3258459 44.0135561,41.4352195 44.6139959,40.6408992 Z M40.6044498,41.55322 C40.8556087,41.3753092 41.1836429,41.4674371 41.336896,41.7587361 C41.4901491,42.0501176 41.4108582,42.4304131 41.1596283,42.6082415 C40.8035297,42.8603161 40.3468254,42.9863946 39.8904764,42.9863946 C39.4337011,42.9863946 38.9772811,42.8602337 38.621964,42.6077471 C38.3710183,42.4294243 38.2921536,42.0489639 38.4459041,41.7579121 C38.5996546,41.4669427 38.9276887,41.3753092 39.1786345,41.5537144 C39.5508612,41.8181496 40.2304468,41.8179024 40.6044498,41.55322 Z" id="Combined-Shape" fill="#297B7C"></path>
                </g>
            </g>
        </g>
    </g>
</svg>