<?xml version="1.0" encoding="UTF-8"?>
<svg width="96px" height="115px" viewBox="0 0 96 115" version="1.1" xmlns="http://www.w3.org/2000/svg" xmlns:xlink="http://www.w3.org/1999/xlink">
    <title>Combined Shape</title>
    <g id="Home" stroke="none" stroke-width="1" fill="none" fill-rule="evenodd">
        <g id="Artboard" transform="translate(-514.000000, -103.000000)" fill="#212121">
            <path d="M526.892111,103.070227 C527.782106,102.805188 528.717599,103.313479 528.982065,104.205403 L528.982065,104.205403 L536.171953,128.460312 L536.491554,129.342803 C536.837377,130.303907 537.160115,130.797823 537.578554,131.206837 C537.843692,130.432833 538.142897,129.671182 538.476842,128.92458 C537.509299,119.776908 540.503816,112.178368 546.944235,107.492339 C553.051606,103.048889 561.666025,101.969415 567.89263,104.867552 C571.903996,106.734731 574.383925,109.965065 574.948269,114.021289 C575.658069,114.534521 576.314527,115.126368 576.904421,115.795704 C578.790197,117.936233 579.917091,120.700502 580.125975,123.659733 C582.735671,125.488054 584.793127,127.769862 586.194124,130.367921 C586.346304,130.094571 586.493105,129.765967 586.644165,129.345947 L586.644165,129.345947 L586.96511,128.459863 L594.154998,104.205628 C594.419464,103.313928 595.354508,102.805412 596.244952,103.070451 C597.134947,103.335491 597.642139,104.273011 597.377673,105.164935 L597.377673,105.164935 L590.173665,129.467236 C590.164027,129.499131 590.153718,129.530801 590.142287,129.562246 L590.142287,129.562246 L589.805654,130.491905 C588.937398,132.905559 587.853312,133.738186 586.804861,134.543187 C586.583651,134.713216 586.37432,134.873812 586.159609,135.055746 C583.436506,137.356646 582.153174,140.458503 581.867416,145.428214 L581.867416,145.428214 L581.555884,150.833891 C581.494922,151.885513 582.290337,152.792486 583.329151,152.8565 C583.831188,152.886598 584.318209,152.71814 584.70034,152.380103 C585.082471,152.041617 585.309956,151.577573 585.340885,151.0731 L585.340885,151.0731 L585.836647,143.357763 C585.896264,142.429452 586.697282,141.725077 587.622016,141.785047 C588.54832,141.844793 589.250947,142.645976 589.191331,143.574287 L589.191331,143.574287 L588.695793,151.284458 C588.610402,152.682877 587.981735,153.970339 586.925888,154.905163 C586.117474,155.620769 585.134019,156.05741 584.089603,156.185662 L584.089603,156.185662 L578.200528,163.98433 C577.800019,164.517103 576.945659,165.868354 577.712162,166.834624 C578.027953,167.232857 578.486958,167.4815 578.971738,167.517437 C579.251892,167.538101 579.659797,167.493404 580.012568,167.16233 L580.012568,167.16233 L590.579105,157.279286 C590.608913,157.251434 590.639618,157.224931 590.671219,157.199325 C594.241958,154.315339 594.336987,151.2602 594.45779,147.392424 C594.485581,146.498927 594.514493,145.575333 594.590471,144.628828 C594.748926,140.950623 595.355629,139.076032 596.359031,135.976645 C596.69432,134.940521 597.07421,133.766263 597.503182,132.321125 L597.503182,132.321125 L599.707663,124.897106 C599.972802,124.005631 600.908742,123.497564 601.798289,123.763053 C602.68806,124.028317 603.19458,124.966286 602.929666,125.858211 L602.929666,125.858211 L600.725185,133.282005 C600.284558,134.766449 599.89772,135.961821 599.55638,137.016138 C598.576287,140.043874 598.084335,141.563807 597.947396,144.804248 C597.946499,144.82626 597.945154,144.848047 597.943361,144.869834 C597.872314,145.743566 597.844523,146.635265 597.817628,147.497541 C597.688309,151.647202 597.554283,155.937693 592.829307,159.782784 L592.829307,159.782784 L582.307819,169.623601 C581.429254,170.447469 580.298326,170.890848 579.091868,170.890848 C578.970169,170.890848 578.847797,170.886131 578.724753,170.877147 C578.673653,170.873553 578.623001,170.867264 578.572125,170.861873 C576.799755,173.012509 574.54888,175.117999 572.137085,176.845471 L572.137085,176.845471 L572.137085,180.871147 L572.504648,180.965259 C581.192355,183.188668 597.363329,187.327099 598.104731,199.589656 L598.104731,199.589656 L598.855321,214.319548 C598.904852,215.169022 598.864958,216.262645 598.101369,217.073935 C597.333297,217.889941 596.255486,218 595.302512,218 L595.302512,218 L527.834551,218 C526.881577,218 525.803766,217.889941 525.035694,217.073935 C524.272105,216.262645 524.231987,215.169022 524.282415,214.30697 L524.282415,214.30697 L525.031436,199.605828 C525.766338,187.331816 541.931484,183.192038 550.616054,180.967954 L550.616054,180.967954 L550.999978,180.869575 L550.999978,176.849514 C548.586838,175.121368 546.335291,173.013857 544.563817,170.861649 C544.512045,170.867264 544.460272,170.873553 544.408276,170.877371 C544.28568,170.886356 544.163757,170.890848 544.042506,170.890848 C542.837617,170.890848 541.70624,170.448367 540.824089,169.624724 L540.824089,169.624724 L530.307981,159.783008 C525.887384,156.189944 525.483732,152.20827 525.345351,148.315735 L525.318987,147.502483 C525.292092,146.63841 525.264749,145.745138 525.193477,144.86961 C525.191684,144.847823 525.19034,144.825811 525.189443,144.804024 C525.052952,141.572791 524.530744,139.96279 523.582924,137.039946 C523.239119,135.979565 522.849143,134.777679 522.405154,133.281331 L522.405154,133.281331 L514.069994,105.164711 C513.805752,104.273011 514.31272,103.335266 515.202715,103.070227 C516.092934,102.805861 517.028202,103.313479 517.292668,104.205403 L517.292668,104.205403 L525.627381,132.321574 C526.059267,133.776595 526.442071,134.957142 526.779825,135.998657 C527.78233,139.089508 528.388361,140.958709 528.546592,144.628828 C528.622794,145.577804 528.651258,146.503195 528.678825,147.398488 C528.798059,151.263345 528.892191,154.316237 532.464947,157.198427 C532.497221,157.224257 532.52815,157.251434 532.558183,157.279511 L532.558183,157.279511 L543.116875,167.160982 C543.472335,167.492506 543.881809,167.537877 544.161739,167.517213 C544.646967,167.4815 545.108438,167.231509 545.42759,166.831031 C546.191628,165.867456 545.334579,164.519349 544.930484,163.984554 L544.930484,163.984554 L539.046564,156.184764 C536.585686,155.879295 534.600174,153.853092 534.43477,151.284458 L534.43477,151.284458 L533.945508,143.572714 C533.886788,142.644179 534.589864,141.84367 535.516391,141.784598 C536.444712,141.72575 537.241696,142.430575 537.30064,143.358886 L537.30064,143.358886 L537.789902,151.069057 C537.857364,152.117984 538.763496,152.921412 539.808136,152.856275 C540.847174,152.792262 541.642365,151.885288 541.581403,150.834565 L541.581403,150.834565 L541.270095,145.428214 C540.984338,140.462546 539.700781,137.360464 536.978126,135.055746 C536.763192,134.873588 536.554084,134.712992 536.33265,134.542962 C535.284199,133.737737 534.200113,132.905334 533.330513,130.488087 L533.330513,130.488087 L532.995,129.562022 C532.983569,129.530801 532.973036,129.499131 532.963622,129.467012 L532.963622,129.467012 L525.75939,105.164711 C525.495148,104.272786 526.002116,103.335266 526.892111,103.070227 Z M568.775229,178.938382 C566.414534,180.182495 564.041737,180.948188 561.930715,180.948413 C561.808792,180.948413 561.688438,180.945718 561.568307,180.940776 C561.448177,180.945942 561.327374,180.948413 561.205451,180.948413 C559.093309,180.948413 556.721184,180.183842 554.361609,178.941527 L554.361609,178.941527 L554.361609,181.157974 C554.361609,182.030582 554.045595,183.574548 551.928971,184.109343 L551.928971,184.109343 L551.448225,184.232429 C543.042914,186.385087 528.975117,189.987599 528.387913,199.792703 L528.387913,199.792703 L527.639115,214.491375 C527.636426,214.541013 527.634185,214.586384 527.632616,214.627937 C527.691784,214.629734 527.758797,214.630857 527.834551,214.630857 L535.841819,214.630857 L535.841819,204.905939 C535.841819,203.296162 537.145995,201.986239 538.748928,201.986239 L538.748928,201.986239 L557.521754,201.986239 C558.450074,201.986239 559.202682,202.740478 559.202682,203.670811 C559.202682,204.601143 558.450074,205.355382 557.521754,205.355382 L557.521754,205.355382 L539.203675,205.355382 L539.203675,214.630857 L583.933612,214.630857 L583.933612,205.355382 L565.2789,205.355382 C564.350579,205.355382 563.597972,204.601143 563.597972,203.670811 C563.597972,202.740478 564.350579,201.986239 565.2789,201.986239 L565.2789,201.986239 L584.382084,201.986239 C585.988379,201.986239 587.295468,203.295938 587.295468,204.905939 L587.295468,204.905939 L587.295468,214.630857 L595.409923,214.630071 L595.409923,214.630071 L595.504671,214.627937 C595.503327,214.589978 595.501309,214.54865 595.49862,214.503953 L595.49862,214.503953 L594.748254,199.777429 C594.156119,189.983556 580.082046,186.381717 571.672925,184.230183 L571.672925,184.230183 L571.195765,184.107995 C569.089899,183.571178 568.775229,182.029234 568.775229,181.157974 L568.775229,181.157974 Z M561.568756,137.64774 C554.758308,137.64774 548.6348,140.694343 544.672293,146.027472 L544.672293,146.027472 L544.93788,150.639604 C545.049942,152.568326 544.109743,154.322077 542.618199,155.332146 L542.618199,155.332146 L547.611676,161.951613 C549.411165,164.332924 549.582171,167.007798 548.056785,168.930905 C547.940465,169.076901 547.816749,169.21571 547.686981,169.347107 C551.838425,174.113321 557.851664,177.765471 561.478434,177.571858 C561.538723,177.568489 561.599012,177.568489 561.659078,177.571858 C565.281141,177.767942 571.292811,174.11377 575.448961,169.347107 C575.319418,169.215485 575.196374,169.076901 575.080502,168.930905 C573.558254,167.011617 573.725674,164.338314 575.517543,161.954084 L575.517543,161.954084 L580.518864,155.331697 C579.027993,154.321403 578.088018,152.567877 578.20008,150.63893 L578.20008,150.63893 L578.465442,146.033312 C575.378362,141.876239 570.97859,139.108151 565.96539,138.087301 C565.885827,138.073824 565.806487,138.063043 565.726923,138.048219 C565.678288,138.039234 565.630998,138.027105 565.58438,138.014078 C564.281325,137.773297 562.939272,137.64774 561.568756,137.64774 L561.568756,137.64774 Z M563.606444,164.297396 C564.348148,163.713626 565.316874,164.015921 565.76945,164.971746 C566.222025,165.927841 565.987869,167.175686 565.245956,167.759185 C564.194352,168.586305 562.845647,169 561.497992,169 C560.149077,169 558.801212,168.586035 557.751916,167.757563 C557.010842,167.172441 556.777945,165.924056 557.231989,164.969042 C557.686033,164.014299 558.654759,163.713626 559.395834,164.299018 C560.495066,165.166696 562.501967,165.165885 563.606444,164.297396 Z M568.461371,150.610811 C569.087079,149.809829 570.113856,149.794696 570.754483,150.576761 C571.16701,151.080213 571.83423,151.082104 572.242001,150.581085 C572.88133,149.796587 573.907674,149.808478 574.535329,150.606487 C575.162767,151.405038 575.153687,152.688123 574.514789,153.472621 C573.685412,154.490874 572.594205,155 571.502134,155 C570.411792,155 569.320585,154.492495 568.488613,153.476944 C567.847986,152.694879 567.835662,151.411523 568.461371,150.610811 Z M549.461371,150.610811 C550.087079,149.809829 551.113856,149.794696 551.754483,150.576761 C552.16701,151.080213 552.83423,151.082104 553.242001,150.581085 C553.881114,149.796587 554.907674,149.808478 555.535329,150.606487 C556.162767,151.405038 556.153687,152.688123 555.514789,153.472621 C554.685412,154.490874 553.594205,155 552.502134,155 C551.411792,155 550.320585,154.492495 549.488613,153.476944 C548.847986,152.694879 548.835662,151.411523 549.461371,150.610811 Z M579.855457,127.723368 C579.232169,130.954601 577.670924,133.75638 575.364242,135.667358 C574.658477,136.252016 573.897353,136.73852 573.09499,137.129116 C575.250163,138.267213 577.228503,139.725153 578.954928,141.463182 C579.530702,138.490475 580.786691,135.353578 583.646286,132.783147 C582.776686,130.88048 581.508594,129.187822 579.855457,127.723368 Z M567.817773,115.072686 C557.415967,114.825391 548.523859,119.227288 543.588879,126.545516 C550.375793,123.552818 559.712563,122.672124 566.981791,124.642624 C567.878062,124.885427 568.408115,125.810369 568.165613,126.708582 C567.923335,127.606571 567.000618,128.137997 566.104123,127.89497 C558.105596,125.727488 546.935943,127.462147 541.204875,131.762296 C541.100882,131.840236 540.989492,131.899308 540.875638,131.949845 C540.682443,132.497893 540.507626,133.056047 540.350516,133.623411 C542.608562,136.021342 543.66665,138.806051 544.181238,141.459363 C548.702038,136.909224 554.954193,134.278597 561.565842,134.278597 L561.565842,134.278597 C563.141208,134.278822 564.692592,134.429759 566.205875,134.717709 C566.251596,134.722425 566.297094,134.727591 566.343039,134.736127 C568.941529,135.222182 571.320378,134.646058 573.222516,133.070198 C575.47608,131.203468 576.779135,128.110595 576.799082,124.583102 C576.774877,121.424194 575.320762,118.206887 572.534456,116.441456 C572.503751,116.423937 572.474391,116.40462 572.444807,116.385304 C571.17156,115.600967 569.6269,115.116035 567.817773,115.072686 Z M566.476393,107.922691 C561.304962,105.515551 554.085041,106.459584 548.919213,110.2182 C544.729669,113.266601 542.278876,117.843244 541.764512,123.409068 C543.352653,121.335473 545.24336,119.466048 547.392259,117.869074 C553.063485,113.654726 560.157,111.52408 567.897337,111.704441 C568.946012,111.729598 569.962189,111.876492 570.933317,112.132323 C569.91445,109.951139 568.06924,108.664127 566.476393,107.922691 Z M606.804406,104.179446 C607.061069,103.306963 607.968741,102.808967 608.83291,103.068954 C609.696428,103.328281 610.188654,104.245816 609.931992,105.118518 L609.931992,105.118518 L606.195594,117.82094 C605.985044,118.536727 605.335774,119 604.632562,119 C604.478565,119 604.322175,118.977584 604.16709,118.931212 C603.303572,118.671885 602.811346,117.75435 603.068008,116.881648 L603.068008,116.881648 Z" id="Combined-Shape"></path>
        </g>
    </g>
</svg>