<?xml version="1.0" encoding="UTF-8"?>
<svg  width="140px" height="180px" viewBox="0 0 64 77" version="1.1" xmlns="http://www.w3.org/2000/svg" xmlns:xlink="http://www.w3.org/1999/xlink">
    <title>Combined Shape</title>
    <g id="Home" stroke="none" stroke-width="1" fill="none" fill-rule="evenodd">
        <g id="home-mani" transform="translate(-582.000000, -576.000000)" fill="#297B7C">
            <g id="spa" transform="translate(544.000000, 545.000000)">
                <path d="M91.7184916,31.803324 C91.8957321,31.209174 92.5223825,30.8703438 93.1191423,31.0469426 C93.7156017,31.2235413 94.055513,31.848222 93.8782725,32.4425217 L93.8782725,32.4425217 L89.0502708,48.6354304 C89.043812,48.6566821 89.0369027,48.6777842 89.0292423,48.6987365 L89.0292423,48.6987365 L88.8036361,49.3181791 C88.2217465,50.9264251 87.4952106,51.4812146 86.792557,52.0175959 C86.6443059,52.1308885 86.5040155,52.2378954 86.3601202,52.3591199 C84.5351437,53.8922366 83.6750766,55.9590407 83.4835667,59.270417 L83.4835667,59.270417 L83.2747834,62.8722833 C83.2339279,63.5729913 83.7670013,64.1773182 84.4631961,64.2199713 C84.7996526,64.2400257 85.1260456,64.1277808 85.3821431,63.9025425 C85.6382406,63.677005 85.7906975,63.3678075 85.8114256,63.0316712 L85.8114256,63.0316712 L86.1436765,57.8908515 C86.1836307,57.2723068 86.7204592,56.8029732 87.3402002,56.8429324 C87.9609926,56.882742 88.4318816,57.416579 88.3919274,58.0351237 L88.3919274,58.0351237 L88.0598267,63.1725012 C88.0025991,64.1042841 87.5812774,64.9621351 86.8736671,65.5850198 C86.3318819,66.0618365 85.6727875,66.3527754 84.9728377,66.4382313 L84.9728377,66.4382313 L81.0260819,71.6345748 C80.7576676,71.9895683 80.1850906,72.8899226 80.6987877,73.5337598 C80.9104249,73.7991069 81.2180424,73.9647805 81.5429332,73.9887261 C81.730688,74.0024948 82.004059,73.9727124 82.2404798,73.7521137 L82.2404798,73.7521137 L89.3219895,67.1669256 C89.3419666,67.1483678 89.3625446,67.1307079 89.3837233,67.1136467 C91.7767707,65.1920128 91.8404571,63.1563379 91.921417,60.5791934 C91.9400423,59.9838461 91.9594186,59.3684443 92.0103376,58.7377772 C92.1165318,56.2869456 92.5231335,55.0378836 93.1955961,52.9727258 C93.420301,52.2823444 93.6748965,51.4999221 93.9623866,50.5370099 L93.9623866,50.5370099 L95.4397915,45.5902991 C95.6174826,44.9962987 96.2447338,44.6577679 96.8408928,44.834666 C97.437202,45.0114144 97.7766626,45.6363944 97.5991217,46.2306941 L97.5991217,46.2306941 L96.1217168,51.1772552 C95.8264161,52.1663579 95.5671643,52.9628482 95.3384039,53.6653521 C94.6815625,55.6827684 94.3518651,56.6955173 94.2600906,58.8546616 C94.2594898,58.8693283 94.2585886,58.8838453 94.2573869,58.8983623 C94.2097723,59.4805396 94.191147,60.0746896 94.1731226,60.6492342 C94.1680245,60.8118794 94.1629155,60.9748493 94.1571699,61.1380643 L94.1373982,61.6283655 C94.0227353,64.0827543 93.6240922,66.5744218 90.830036,68.8350356 L90.830036,68.8350356 L83.7787172,75.3920875 C83.1899182,75.9410403 82.4319897,76.236469 81.6234425,76.236469 C81.5418818,76.236469 81.4598705,76.2333262 81.3774086,76.2273398 L81.3774086,76.2273398 L81.2751198,76.2171629 C80.0873079,77.6501571 78.5788109,79.0530695 76.9624675,80.2041043 L76.9624675,80.2041043 L76.9624675,82.8864598 L77.2088018,82.9491674 C83.0311528,84.4306513 93.8686594,87.1881361 94.3655337,95.3588218 L94.3655337,95.3588218 L94.8685663,105.173522 C94.9017614,105.739536 94.8750251,106.468231 94.3632806,107.008802 C93.8485321,107.552517 93.1262019,107.62585 92.4875352,107.62585 L92.4875352,107.62585 L47.2716766,107.62585 C46.63301,107.62585 45.9106798,107.552517 45.3959312,107.008802 C44.8841868,106.468231 44.8573003,105.739536 44.8910962,105.165141 L44.8910962,105.165141 L45.3930774,95.3695973 C45.8855957,87.191279 56.7191971,84.4328962 62.5394452,82.9509633 L62.5394452,82.9509633 L62.7967444,82.8854122 L62.7967444,80.2067982 C61.1794998,79.0553144 59.6705521,77.651055 58.483341,76.2170132 L58.483341,76.2170132 L58.3790996,76.2274894 C58.2969381,76.2334758 58.2152272,76.236469 58.1339669,76.236469 C57.3264711,76.236469 56.5682422,75.9416389 55.97704,75.3928358 L55.97704,75.3928358 L48.9293261,68.8351852 C45.7600253,66.2740543 45.6715553,63.4165966 45.5857889,60.6525268 C45.5677644,60.0767849 45.5494395,59.4815872 45.5016747,58.8982127 C45.5004731,58.8836957 45.4995719,58.869029 45.4989711,58.854512 C45.4074969,56.7015037 45.057522,55.6287411 44.42231,53.681216 C44.1918973,52.9746713 43.9305427,52.1738409 43.6329889,51.1768062 L43.6329889,51.1768062 L38.0469085,32.4423721 C37.8698182,31.848222 38.2095793,31.2233917 38.8060387,31.0467929 C39.4026483,30.8706431 40.0294488,31.2088746 40.2066894,31.8031744 L40.2066894,31.8031744 L45.7924693,50.5373092 C46.0819121,51.5068064 46.3384603,52.2934192 46.5648174,52.9873924 C47.2366792,55.0468632 47.6428303,56.2923334 47.7488742,58.7377772 C47.7999435,59.3700905 47.8190194,59.9866896 47.8374945,60.5832342 C47.9174029,63.1584332 47.9804885,65.1926114 50.3748877,67.113048 C50.3965171,67.1302589 50.4172452,67.1483678 50.4373725,67.1670753 L50.4373725,67.1670753 L57.5136251,73.7512157 C57.7518484,73.9721138 58.0262708,74.0023451 58.2138754,73.9885764 C58.5390667,73.9647805 58.8483363,73.7982089 59.0622266,73.5313652 C59.5742714,72.889324 58.999892,71.9910649 58.7290745,71.6347245 L58.7290745,71.6347245 L54.7857734,66.4376326 C53.1365353,66.2340951 51.8058796,64.8840126 51.6950292,63.1725012 L51.6950292,63.1725012 L51.3671342,58.0340761 C51.3277808,57.4153818 51.7989703,56.8819937 52.4199129,56.8426331 C53.0420571,56.8034222 53.576182,57.2730551 53.6156856,57.8915998 L53.6156856,57.8915998 L53.9435805,63.0289773 C53.9887919,63.7278893 54.5960659,64.263223 55.296166,64.2198216 C55.9925109,64.1771686 56.5254341,63.5728416 56.4845787,62.8727323 L56.4845787,62.8727323 L56.2759456,59.270417 C56.0844357,55.9617345 55.2242184,53.8947808 53.3995422,52.3591199 C53.2554968,52.2377457 53.1153566,52.1307388 52.9669552,52.0174462 C52.2643017,51.4809153 51.5377658,50.9262754 50.9549749,49.3156349 L50.9549749,49.3156349 L50.7301198,48.6985869 C50.7224594,48.6777842 50.7153998,48.6566821 50.7090913,48.6352807 L50.7090913,48.6352807 L45.8809394,32.4423721 C45.7038491,31.8480723 46.0436101,31.2233917 46.6400695,31.0467929 C47.236529,30.8701941 47.8634797,31.2088746 48.0407203,31.8031744 L48.0407203,31.8031744 L52.8592591,47.9645048 L53.0734497,48.5525188 C53.3052142,49.1929137 53.5215078,49.522016 53.8019383,49.7945468 C53.9796294,49.2788186 54.1801515,48.7713216 54.4039553,48.2738519 C53.7555253,42.1786506 55.7623987,37.1156541 60.0786559,33.9932983 C64.1717102,31.0325752 69.9449446,30.3133094 74.1179074,32.2443719 C76.8062555,33.4884952 78.4682609,35.6409048 78.8464741,38.3436141 C79.3221696,38.6855871 79.7621166,39.0799411 80.1574531,39.5259278 C81.4212681,40.9521872 82.176493,42.7940524 82.3164829,44.7658224 C84.0654563,45.9840545 85.4443275,47.50445 86.3832516,49.2355668 C86.48524,49.0534307 86.5836235,48.8344781 86.6848609,48.554614 L86.6848609,48.554614 L86.8999528,47.9642055 Z M74.70941,81.5986359 C73.1273131,82.4276024 71.5371052,82.9377932 70.1223353,82.9379429 C70.0406244,82.9379429 69.959965,82.9361469 69.8794557,82.9328544 C69.7989465,82.9362966 69.7179866,82.9379429 69.6362757,82.9379429 C68.2207548,82.9379429 66.6309975,82.4285003 65.0496516,81.6007311 L65.0496516,81.6007311 L65.0496516,83.0775756 C65.0496516,83.6590046 64.8378642,84.6877671 63.4193393,85.0441075 L63.4193393,85.0441075 L63.097152,85.1261212 C57.4640579,86.5604623 48.0360639,88.9608584 47.6425299,95.4941144 L47.6425299,95.4941144 L47.1406989,105.288012 C47.1388965,105.321087 47.1373944,105.351318 47.136343,105.379005 C47.1759968,105.380203 47.2209078,105.380951 47.2716766,105.380951 L52.6380088,105.380951 L52.6380088,98.9011235 C52.6380088,97.8285105 53.5120449,96.9556936 54.5863027,96.9556936 L54.5863027,96.9556936 L67.1675256,96.9556936 C67.7896699,96.9556936 68.2940543,97.4582518 68.2940543,98.0781433 C68.2940543,98.6980349 67.7896699,99.2005931 67.1675256,99.2005931 L67.1675256,99.2005931 L54.8910663,99.2005931 L54.8910663,105.380951 L84.8682958,105.380951 L84.8682958,99.2005931 L72.3662303,99.2005931 C71.7440861,99.2005931 71.2397016,98.6980349 71.2397016,98.0781433 C71.2397016,97.4582518 71.7440861,96.9556936 72.3662303,96.9556936 L72.3662303,96.9556936 L85.1688537,96.9556936 C86.2453645,96.9556936 87.1213532,97.8283609 87.1213532,98.9011235 L87.1213532,98.9011235 L87.1213532,105.380951 L92.5595204,105.380427 L92.5595204,105.380427 L92.6230191,105.379005 C92.6221178,105.353713 92.620766,105.326175 92.6189636,105.296393 L92.6189636,105.296393 L92.1160811,95.4839376 C91.7192426,88.9581645 82.287043,86.5582174 76.6513953,85.1246246 L76.6513953,85.1246246 L76.3316114,85.0432096 C74.9202962,84.6855222 74.70941,83.6581066 74.70941,83.0775756 L74.70941,83.0775756 Z M69.8797561,54.0861959 C65.3155124,54.0861959 61.2116434,56.1161836 58.5560397,59.6697098 L58.5560397,59.6697098 L58.7340312,62.7428275 C58.8091331,64.0279576 58.1790281,65.1965026 57.1794216,65.8695234 L57.1794216,65.8695234 L60.5259629,70.2801522 C61.7319494,71.8668471 61.846555,73.6491476 60.8242677,74.9305362 C60.7463119,75.0278152 60.6633994,75.120305 60.5764314,75.2078561 C63.3586569,78.3836405 67.3886256,80.8171115 69.819224,80.6881046 C69.8596288,80.6858597 69.9000337,80.6858597 69.9402883,80.6881046 C72.3677324,80.8187578 76.3966497,78.3839398 79.1820295,75.2078561 C79.0952116,75.1201554 79.0127497,75.0278152 78.9350944,74.9305362 C77.91491,73.6516918 78.0271122,71.8704389 79.2279918,70.2817984 L79.2279918,70.2817984 L82.5797903,65.8692241 C81.5806344,65.1960536 80.9506795,64.0276582 81.0257814,62.7423785 L81.0257814,62.7423785 L81.2036228,59.6736009 C79.1347152,56.9036944 76.1860639,55.059285 72.8263046,54.3790804 L72.8263046,54.3790804 L72.6664878,54.3530396 C72.6338935,54.3470532 72.6022005,54.3389716 72.5709581,54.3302913 C71.6976731,54.1698558 70.7982525,54.0861959 69.8797561,54.0861959 L69.8797561,54.0861959 Z M71.2088996,72.1064399 C71.7112175,71.7506184 72.3672858,71.9348743 72.673792,72.5174723 C72.9802983,73.1002351 72.8217164,73.8608263 72.3192565,74.216483 C71.6070593,74.7206321 70.6936508,74.9727891 69.7809528,74.9727891 C68.8674022,74.9727891 67.9545621,74.7204673 67.243928,74.2154941 C66.7420365,73.8588486 66.5843073,73.0979278 66.8918082,72.5158242 C67.1993091,71.9338854 67.8553774,71.7506184 68.357269,72.1074288 C69.1017225,72.6362992 70.4608937,72.6358048 71.2088996,72.1064399 Z M74.0163314,62.7192428 C74.4444158,62.2310249 75.1468945,62.2218009 75.5851856,62.6984886 C75.8674196,63.0053542 76.323905,63.0065072 76.6028847,62.701124 C77.0402883,62.2229539 77.7424711,62.2302014 78.1718869,62.7166073 C78.6011548,63.2033427 78.5949421,63.9854136 78.1578344,64.4635838 C77.5904079,65.0842331 76.8438487,65.3945578 76.0966978,65.3945578 C75.3507302,65.3945578 74.6041709,65.0852214 74.0349694,64.4662192 C73.5966784,63.9895315 73.5882469,63.2072959 74.0163314,62.7192428 Z M61.8258552,62.7192428 C62.2539397,62.2310249 62.9564183,62.2218009 63.3947094,62.6984886 C63.6769434,63.0053542 64.1334288,63.0065072 64.4124086,62.701124 C64.8496642,62.2229539 65.5519949,62.2302014 65.9814107,62.7166073 C66.4106786,63.2033427 66.4044659,63.9854136 65.9673582,64.4635838 C65.3999317,65.0842331 64.6533725,65.3945578 63.9062216,65.3945578 C63.160254,65.3945578 62.4136948,65.0852214 61.8444933,64.4662192 C61.4062022,63.9895315 61.3977707,63.2072959 61.8258552,62.7192428 Z M82.1351869,47.4734704 C81.7174701,49.6264787 80.6711502,51.493337 79.1252524,52.766644 C78.6522605,53.1562089 78.1421683,53.4803724 77.6044386,53.740631 C79.0487987,54.4989581 80.3746479,55.4704009 81.5316679,56.6284697 C81.9175416,54.6477201 82.7592838,52.557569 84.6757345,50.8448604 C84.0929436,49.5770909 83.2430904,48.4492534 82.1351869,47.4734704 Z M74.0677393,39.0441723 C67.0966294,38.8793967 61.1372925,41.8124327 57.8299544,46.6886536 C62.3784267,44.6945842 68.635768,44.1077675 73.507479,45.4207344 C74.1081441,45.5825168 74.4633762,46.1988165 74.3008556,46.7973067 C74.1384853,47.3956473 73.5200961,47.7497427 72.9192808,47.5878106 C67.5588066,46.143592 60.0730984,47.2994159 56.2322363,50.1646559 C56.1625417,50.2165879 56.0878904,50.2559485 56.0115868,50.289622 C55.8821111,50.6547923 55.7649521,51.0266973 55.6596593,51.4047383 C57.1729628,53.0025081 57.8820751,54.8579923 58.2269431,56.6259255 C61.2567045,53.5941139 65.4467905,51.8412964 69.8778035,51.8412964 L69.8778035,51.8412964 C70.9335862,51.8414461 71.9732971,51.9420176 72.9874734,52.1338817 C73.0181149,52.1370245 73.0486063,52.1404667 73.0793981,52.1461538 C74.8208613,52.470018 76.4151247,52.0861401 77.6899046,51.0361258 C79.2002041,49.7923019 80.0734892,47.7314842 80.0868573,45.3810745 C80.0706353,43.2762568 79.0961129,41.1325275 77.2287789,39.9562002 L77.2287789,39.9562002 L77.1686973,39.9187852 C76.3153894,39.3961726 75.2801846,39.0730567 74.0677393,39.0441723 Z M73.1687694,34.2800467 C69.7029662,32.6761409 64.8643001,33.3051617 61.402252,35.8095716 C58.5944919,37.8407566 56.952013,40.890228 56.6072952,44.5988019 C57.6716395,43.2171411 58.938759,41.9715212 60.3789134,40.9074389 C64.179671,38.099369 68.9336222,36.6796946 74.1210616,36.7998715 C74.8238654,36.8166335 75.5048895,36.9145111 76.1557227,37.0849738 C75.4728961,35.6316259 74.236268,34.7740743 73.1687694,34.2800467 Z M99.8137045,31.8023441 C99.9893026,31.2088186 100.610295,30.8700456 101.201525,31.0469072 C101.792308,31.2233203 102.129069,31.8474939 101.953471,32.4411689 L101.953471,32.4411689 L99.3971799,41.0822721 C99.2531299,41.5692022 98.8089263,41.8843537 98.3278173,41.8843537 C98.2224584,41.8843537 98.1154626,41.8691045 98.0093597,41.8375594 C97.4185763,41.6611463 97.0818149,41.0369728 97.257413,40.4432978 L97.257413,40.4432978 Z" id="Combined-Shape"></path>
            </g>
        </g>
    </g>
</svg>