<?xml version="1.0" encoding="UTF-8"?>
<svg width="144px" height="144px" viewBox="0 0 144 144" version="1.1" xmlns="http://www.w3.org/2000/svg" xmlns:xlink="http://www.w3.org/1999/xlink">
    <!-- Generator: Sketch 52.2 (67145) - http://www.bohemiancoding.com/sketch -->
    <title>Group 4</title>
    <desc>Created with Sketch.</desc>
    <g id="Home" stroke="none" stroke-width="1" fill="none" fill-rule="evenodd">
        <g id="home-mani" transform="translate(-742.000000, -543.000000)">
            <g id="018-face-mask" transform="translate(744.000000, 545.000000)">
                <g id="Group-4">
                    <path d="M101.738947,60.0363158 C102.540526,65.5835088 101.101579,71.7221053 97.6866667,77.3624561 C97.6749123,84.2721053 97.4510526,88.6022807 94.0638596,95.2712281 C92.0466667,99.2429825 88.3478947,103.412807 83.9164912,106.711228 C79.3422807,110.115965 74.7405263,111.971579 71.2710526,111.815088 C71.1292982,111.821579 70.9859649,111.824737 70.8419298,111.824737 C64.8994737,111.824912 57.1022807,106.399123 52.3307018,100.881404 C51.8554386,100.33193 51.915614,99.5010526 52.4652632,99.0257895 C53.0147368,98.5503509 53.8457895,98.6108772 54.3208772,99.1603509 C59.4687719,105.113333 66.7263158,109.422982 71.2010526,109.184211 C71.2477193,109.181579 71.2945614,109.181579 71.3414035,109.184211 C77.3526316,109.50807 87.8257895,101.742281 91.7178947,94.0796491 C94.8614035,87.8905263 95.0466667,84.0064912 95.055614,77.2426316 C91.0594737,67.2378947 81.967193,61.034386 71.2685965,61.034386 C60.5701754,61.034386 51.4775439,67.2378947 47.4815789,77.2426316 C47.4905263,84.0064912 47.6757895,87.8903509 50.8192982,94.0796491 C51.1482456,94.7275439 50.8898246,95.5192982 50.2421053,95.8484211 C49.594386,96.1773684 48.8024561,95.9189474 48.4733333,95.2712281 C45.0707018,88.5715789 44.8603509,84.2322807 44.8505263,77.267193 C42.6122807,72.2040351 41.7040351,66.9526316 42.1573684,61.6529825 C42.4538596,58.1854386 43.3550877,54.7736842 44.7987719,51.5850877 C43.9501754,43.9005263 45.5333333,37.0950877 49.3894737,31.885614 C49.8219298,31.3014035 50.6457895,31.1787719 51.2298246,31.6108772 C51.8138596,32.0433333 51.9368421,32.867193 51.5045614,33.4512281 C48.7368421,37.1901754 47.2812281,41.8912281 47.2098246,47.2198246 C47.2101754,47.2191228 47.2107018,47.2185965 47.2110526,47.2178947 C50.3361404,42.4991228 54.7505263,38.6077193 59.9764912,35.9645614 C65.5810526,33.13 71.8770175,31.7747368 78.6912281,31.9349123 C80.3508772,31.9740351 81.9145614,32.2657895 83.3608772,32.7905263 C82.4492982,29.8573684 80.2689474,27.5315789 77.0380702,26.1114035 C70.4435088,23.2126316 61.502807,24.6214035 55.2966667,29.5377193 C54.7270175,29.9887719 53.8996491,29.892807 53.4484211,29.3233333 C52.997193,28.7536842 53.0933333,27.9263158 53.662807,27.4750877 C60.6001754,21.9792982 70.6475439,20.4282456 78.0970175,23.7024561 C82.884386,25.8068421 85.8,29.57 86.3708772,34.3440351 C87.2521053,34.9549123 88.067193,35.6745614 88.8022807,36.5066667 C90.9901754,38.9829825 92.2701754,42.2073684 92.4459649,45.6515789 C97.6840351,49.2147368 100.89193,54.1749123 101.738947,60.0363158 Z M76.7763158,58.9322807 C80.1966667,59.4405263 83.2549123,58.6408772 85.6222807,56.6175439 C88.3161404,54.3145614 89.8122807,50.6768421 89.8352632,46.3738596 C89.8068421,42.4664912 88.0063158,38.4878947 84.5564912,36.2905263 C84.4717544,36.2498246 84.3915789,36.2010526 84.3177193,36.1436842 C82.7452632,35.2003509 80.847193,34.6177193 78.6294737,34.5654386 C66.3701754,34.2761404 55.4463158,39.5491228 49.4052632,48.6707018 C49.1507018,49.0549123 48.9107018,49.4442105 48.677193,49.8359649 C51.6319298,48.0385965 55.1163158,46.6689474 58.8857895,45.8577193 C64.9075439,44.5615789 71.0191228,44.8466667 76.0949123,46.6601754 C76.7791228,46.9047368 77.135614,47.6575439 76.8912281,48.3417544 C76.6466667,49.0261404 75.8935088,49.3826316 75.2096491,49.1380702 C65.9626316,45.8342105 53.0487719,48.4505263 46.2601754,54.962807 C44.1478947,60.9198246 44.1242105,67.3863158 46.2470175,73.6214035 C48.5135088,69.22 51.7775439,65.5612281 55.8163158,62.934386 C60.3738596,59.97 65.7178947,58.4029825 71.2691228,58.4029825 C73.1359649,58.4029825 74.9784211,58.5842105 76.7763158,58.9322807 Z M96.5149123,74.0687719 C101.403333,64.5126316 99.7882456,54.8207018 92.3087719,48.822807 C91.8010526,52.8494737 90.0773684,56.2703509 87.3319298,58.6173684 C86.1,59.6705263 84.6957895,60.4610526 83.1745614,60.9801754 C84.3998246,61.5429825 85.5852632,62.1952632 86.7217544,62.934386 C90.8963158,65.6496491 94.2421053,69.4680702 96.5149123,74.0687719 Z M60.1950877,96.8878947 C60.1950877,93.0301754 65.0014035,90.0080702 71.137193,90.0080702 C77.2729825,90.0080702 82.0792982,93.03 82.0792982,96.8878947 C82.0792982,100.748596 77.2729825,103.772807 71.137193,103.772807 C65.0014035,103.772807 60.1950877,100.748596 60.1950877,96.8878947 Z M79.4480702,96.8878947 C79.4480702,94.8784211 76.0349123,92.6392982 71.137193,92.6392982 C66.2394737,92.6392982 62.8263158,94.8784211 62.8263158,96.8878947 C62.8263158,98.8996491 66.2394737,101.141404 71.137193,101.141404 C76.0349123,101.141404 79.4480702,98.8996491 79.4480702,96.8878947 Z M90.6617544,78.1466667 C90.6617544,82.2308772 86.7657895,85.5536842 81.977193,85.5536842 C77.185614,85.5536842 73.2873684,82.2308772 73.2873684,78.1466667 C73.2873684,74.0652632 77.1857895,70.7447368 81.977193,70.7447368 C86.7657895,70.7447368 90.6617544,74.0652632 90.6617544,78.1466667 Z M75.9185965,78.1466667 C75.9185965,80.78 78.6364912,82.9222807 81.9770175,82.9224561 C85.3147368,82.9224561 88.0303509,80.78 88.0303509,78.1466667 C88.0303509,75.5161404 85.3147368,73.3759649 81.9770175,73.3759649 C78.6363158,73.3759649 75.9185965,75.5161404 75.9185965,78.1466667 Z M60.7749123,70.7445614 C65.5663158,70.7445614 69.4645614,74.0652632 69.4645614,78.1464912 C69.4645614,82.2307018 65.5663158,85.5535088 60.7749123,85.5535088 C55.9861404,85.5535088 52.0901754,82.2307018 52.0901754,78.1464912 C52.0901754,74.0650877 55.9861404,70.7445614 60.7749123,70.7445614 Z M60.7749123,82.9222807 C64.1154386,82.9222807 66.8331579,80.78 66.8331579,78.1464912 C66.8331579,75.5159649 64.1154386,73.3757895 60.7749123,73.3757895 C57.4370175,73.3757895 54.7214035,75.5159649 54.7214035,78.1464912 C54.7214035,80.7798246 57.4370175,82.9222807 60.7749123,82.9222807 Z M62.0605263,76.772807 C62.6545614,76.3545614 63.4754386,76.4963158 63.8935088,77.0901754 C64.3121053,77.6842105 64.17,78.5050877 63.5761404,78.9236842 C62.7907018,79.4773684 61.7826316,79.7542105 60.7745614,79.7542105 C59.7664912,79.7542105 58.7585965,79.4773684 57.9729825,78.9236842 C57.3791228,78.5049123 57.2370175,77.6840351 57.655614,77.0901754 C58.074386,76.4963158 58.8952632,76.354386 59.4891228,76.772807 C60.1619298,77.247193 61.3875439,77.247193 62.0605263,76.772807 Z M66.3859649,95.9657895 C66.7001754,95.3107018 67.4863158,95.034386 68.1414035,95.3487719 C69.737193,96.1145614 72.5373684,96.1145614 74.1335088,95.3487719 C74.7884211,95.0347368 75.574386,95.3108772 75.8887719,95.9657895 C76.2031579,96.6208772 75.9268421,97.4068421 75.2717544,97.7210526 C74.1126316,98.277193 72.6249123,98.5554386 71.1373684,98.5554386 C69.6494737,98.5554386 68.1622807,98.2773684 67.0029825,97.7210526 C66.3478947,97.4066667 66.0715789,96.6208772 66.3859649,95.9657895 Z M85.0959649,77.0901754 C85.5145614,77.6842105 85.3726316,78.5049123 84.7785965,78.9236842 C83.9929825,79.4773684 82.9849123,79.7542105 81.9768421,79.7542105 C80.9689474,79.7542105 79.9608772,79.4773684 79.1752632,78.9236842 C78.5814035,78.5049123 78.4394737,77.6840351 78.8580702,77.0901754 C79.2763158,76.4963158 80.0975439,76.3542105 80.6914035,76.772807 C81.3645614,77.247193 82.5898246,77.2470175 83.2626316,76.772807 C83.8566667,76.3545614 84.6775439,76.4963158 85.0959649,77.0901754 Z" id="Combined-Shape" fill="#D56681" fill-rule="nonzero"></path>
                    <circle id="Oval" stroke="#D56681" stroke-width="4" cx="70" cy="70" r="70"></circle>
                </g>
            </g>
        </g>
    </g>
</svg>