<?xml version="1.0" encoding="UTF-8"?>
<svg width="82px" height="82px" viewBox="0 0 82 82" version="1.1" xmlns="http://www.w3.org/2000/svg" xmlns:xlink="http://www.w3.org/1999/xlink">
    <g id="Home" stroke="none" stroke-width="1" fill="none" fill-rule="evenodd">
        <g id="Mobile-Portrait" transform="translate(-20.000000, -491.000000)">
            <g id="viso" transform="translate(21.000000, 492.000000)">
                <g id="Group-4">
                    <g id="018-face-mask" transform="translate(24.000000, 16.000000)" fill="#BC55CC" fill-rule="nonzero">
                        <path d="M31.8607719,20.2860351 C32.2882807,23.244538 31.5208421,26.5184561 29.6995556,29.5266433 C29.6932865,33.2117895 29.5738947,35.5212164 27.7673918,39.0779883 C26.6915556,41.1962573 24.7188772,43.4201637 22.355462,45.1793216 C19.915883,46.9951813 17.461614,47.9848421 15.6112281,47.9013801 C15.5356257,47.9048421 15.4591813,47.9065263 15.3823626,47.9065263 C12.2130526,47.9066199 8.05454971,45.0128655 5.5097076,42.0700819 C5.25623392,41.7770292 5.28832749,41.3338947 5.58147368,41.0804211 C5.87452632,40.8268538 6.31775439,40.8591345 6.5711345,41.1521871 C9.31667836,44.3271111 13.1873684,46.6255906 15.5738947,46.4982456 C15.5987836,46.4968421 15.6237661,46.4968421 15.6487485,46.4982456 C18.8547368,46.6709708 24.4404211,42.5292164 26.5162105,38.4424795 C28.1927485,35.141614 28.2915556,33.0701287 28.2963275,29.4627368 C26.1650526,24.1268772 21.3158363,20.8183392 15.6099181,20.8183392 C9.90409357,20.8183392 5.05469006,24.1268772 2.92350877,29.4627368 C2.9282807,33.0701287 3.02708772,35.1415205 4.70362573,38.4424795 C4.87906433,38.7880234 4.74123977,39.2102924 4.39578947,39.3858246 C4.05033918,39.5612632 3.62797661,39.4234386 3.45244444,39.0779883 C1.6377076,35.5048421 1.52552047,33.1905497 1.5202807,29.4758363 C0.326549708,26.7754854 -0.157847953,23.9747368 0.0839298246,21.1482573 C0.24205848,19.2989006 0.72271345,17.4792982 1.49267836,15.7787135 C1.04009357,11.6802807 1.88444444,8.05071345 3.94105263,5.27232749 C4.17169591,4.96074854 4.61108772,4.89534503 4.9225731,5.12580117 C5.23405848,5.35644444 5.29964912,5.79583626 5.06909942,6.10732164 C3.59298246,8.1014269 2.81665497,10.608655 2.7785731,13.4505731 C2.77876023,13.4501988 2.77904094,13.4499181 2.77922807,13.4495439 C4.44594152,10.9328655 6.8002807,8.85745029 9.58746199,7.44776608 C12.5765614,5.936 15.9344094,5.21319298 19.568655,5.29861988 C20.4538012,5.31948538 21.2877661,5.47508772 22.0591345,5.75494737 C21.5729591,4.19059649 20.4101053,2.95017544 18.6869708,2.19274854 C15.1698713,0.646736842 10.4014971,1.39808187 7.09155556,4.02011696 C6.78774269,4.26067836 6.34647953,4.20949708 6.10582456,3.90577778 C5.86516959,3.60196491 5.91644444,3.16070175 6.22016374,2.92004678 C9.92009357,-0.0110409357 15.2786901,-0.838269006 19.2517427,0.907976608 C21.8050058,2.03031579 23.36,4.03733333 23.6644678,6.58348538 C24.1344561,6.90928655 24.5691696,7.29309942 24.9612164,7.73688889 C26.1280936,9.05759064 26.8107602,10.7772632 26.9045146,12.6141754 C29.698152,14.5145263 31.4090292,17.1599532 31.8607719,20.2860351 Z M18.5473684,19.6972164 C20.3715556,19.9682807 22.0026199,19.5418012 23.2652164,18.4626901 C24.7019415,17.2344327 25.499883,15.2943158 25.5121404,12.9993918 C25.4969825,10.915462 24.5367018,8.79354386 22.6967953,7.62161404 C22.6516023,7.59990643 22.6088421,7.57389474 22.5694503,7.54329825 C21.730807,7.04018713 20.7185029,6.72945029 19.5357193,6.70156725 C12.9974269,6.54727485 7.17136842,9.35953216 3.94947368,14.2243743 C3.8137076,14.4292865 3.6857076,14.6369123 3.56116959,14.845848 C5.13702924,13.8872515 6.99536842,13.1567719 9.00575439,12.724117 C12.2173567,12.0328421 15.4768655,12.1848889 18.1839532,13.1520936 C18.5488655,13.2825263 18.7389942,13.6840234 18.608655,14.0489357 C18.4782222,14.4139415 18.076538,14.6040702 17.7118129,14.4736374 C12.7800702,12.7115789 5.89267836,14.1069474 2.27209357,17.5801637 C1.14554386,20.7572398 1.13291228,24.2060351 2.26507602,27.5314152 C3.47387135,25.184 5.21469006,23.232655 7.36870175,21.8316725 C9.79939181,20.2506667 12.6495439,19.414924 15.6101988,19.414924 C16.605848,19.414924 17.5884912,19.5115789 18.5473684,19.6972164 Z M29.0746199,27.7700117 C31.6817778,22.6734035 30.8203977,17.5043743 26.831345,14.3054971 C26.5605614,16.4530526 25.6412632,18.2775205 24.1770292,19.5292632 C23.52,20.0909474 22.7710877,20.5125614 21.9597661,20.7894269 C22.6132398,21.0895906 23.2454737,21.4374737 23.8516023,21.8316725 C26.0780351,23.2798129 27.8624561,25.3163041 29.0746199,27.7700117 Z M9.70404678,39.9402105 C9.70404678,37.8827602 12.2674152,36.2709708 15.5398363,36.2709708 C18.8122573,36.2709708 21.3756257,37.8826667 21.3756257,39.9402105 C21.3756257,41.9992515 18.8122573,43.6121637 15.5398363,43.6121637 C12.2674152,43.6121637 9.70404678,41.9992515 9.70404678,39.9402105 Z M19.9723041,39.9402105 C19.9723041,38.8684912 18.1519532,37.6742924 15.5398363,37.6742924 C12.9277193,37.6742924 11.1073684,38.8684912 11.1073684,39.9402105 C11.1073684,41.0131462 12.9277193,42.2087485 15.5398363,42.2087485 C18.1519532,42.2087485 19.9723041,41.0131462 19.9723041,39.9402105 Z M25.9529357,29.9448889 C25.9529357,32.1231345 23.8750877,33.8952982 21.3211696,33.8952982 C18.7656608,33.8952982 16.6865965,32.1231345 16.6865965,29.9448889 C16.6865965,27.7681404 18.7657544,25.997193 21.3211696,25.997193 C23.8750877,25.997193 25.9529357,27.7681404 25.9529357,29.9448889 Z M18.0899181,29.9448889 C18.0899181,31.3493333 19.539462,32.491883 21.321076,32.4919766 C23.101193,32.4919766 24.5495205,31.3493333 24.5495205,29.9448889 C24.5495205,28.5419415 23.101193,27.4005146 21.321076,27.4005146 C19.5393684,27.4005146 18.0899181,28.5419415 18.0899181,29.9448889 Z M10.0132865,25.9970994 C12.5687018,25.9970994 14.6477661,27.7681404 14.6477661,29.9447953 C14.6477661,32.1230409 12.5687018,33.8952047 10.0132865,33.8952047 C7.45927485,33.8952047 5.3814269,32.1230409 5.3814269,29.9447953 C5.3814269,27.7680468 7.45927485,25.9970994 10.0132865,25.9970994 Z M10.0132865,32.491883 C11.7949006,32.491883 13.2443509,31.3493333 13.2443509,29.9447953 C13.2443509,28.541848 11.7949006,27.4004211 10.0132865,27.4004211 C8.23307602,27.4004211 6.78474854,28.541848 6.78474854,29.9447953 C6.78474854,31.3492398 8.23307602,32.491883 10.0132865,32.491883 Z M10.6989474,29.2121637 C11.0157661,28.9890994 11.4535673,29.0647018 11.676538,29.3814269 C11.8997895,29.6982456 11.824,30.1360468 11.5072749,30.3592982 C11.0883743,30.6545965 10.5507368,30.8022456 10.0130994,30.8022456 C9.47546199,30.8022456 8.93791813,30.6545965 8.51892398,30.3592982 C8.20219883,30.1359532 8.12640936,29.698152 8.34966082,29.3814269 C8.57300585,29.0647018 9.01080702,28.9890058 9.32753216,29.2121637 C9.68636257,29.4651696 10.3400234,29.4651696 10.6989474,29.2121637 Z M13.005848,39.4484211 C13.1734269,39.0990409 13.5927018,38.9516725 13.9420819,39.119345 C14.7931696,39.5277661 16.2865965,39.5277661 17.1378713,39.119345 C17.4871579,38.9518596 17.9063392,39.0991345 18.0740117,39.4484211 C18.2416842,39.7978012 18.0943158,40.2169825 17.7449357,40.3845614 C17.1267368,40.6811696 16.3332865,40.8295673 15.5399298,40.8295673 C14.746386,40.8295673 13.9532164,40.6812632 13.334924,40.3845614 C12.9855439,40.2168889 12.8381754,39.7978012 13.005848,39.4484211 Z M22.9845146,29.3814269 C23.2077661,29.6982456 23.1320702,30.1359532 22.8152515,30.3592982 C22.3962573,30.6545965 21.8586199,30.8022456 21.3209825,30.8022456 C20.7834386,30.8022456 20.2458012,30.6545965 19.826807,30.3592982 C19.5100819,30.1359532 19.434386,29.698152 19.6576374,29.3814269 C19.8807018,29.0647018 20.3186901,28.9889123 20.6354152,29.2121637 C20.9944327,29.4651696 21.6479064,29.465076 22.0067368,29.2121637 C22.3235556,28.9890994 22.7613567,29.0647018 22.9845146,29.3814269 Z" id="Combined-Shape"></path>
                    </g>
                    <circle id="Oval" stroke="#BC55CC" stroke-width="2" cx="40" cy="40" r="40"></circle>
                </g>
            </g>
        </g>
    </g>
</svg>